<svg width="22" height="22" viewBox="0 0 22 22" fill="none" xmlns="http://www.w3.org/2000/svg">
<path d="M11 22C14.0094 22 16.7594 20.8066 18.8868 18.6792C20.9104 16.6038 22 13.9057 22 11C22 8.09434 20.9104 5.39623 18.8868 3.32075C16.8113 1.1934 14.0094 0 11 0C7.99057 0 5.24057 1.1934 3.11321 3.32075C1.08962 5.39623 0 8.09434 0 11C0 13.9057 1.08962 16.6038 3.11321 18.6792C5.24057 20.8585 8.04245 22 11 22ZM12.5566 20.8585C13.4387 20.0283 14.6321 18.6274 15.566 16.7594C15.6179 16.7594 15.6179 16.8113 15.6698 16.8113C15.7736 16.8632 15.9292 16.967 16.033 17.0189C16.1887 17.1226 16.3443 17.1745 16.5 17.2783C16.6038 17.3821 16.7594 17.434 16.8632 17.5377C17.0189 17.6415 17.1745 17.7453 17.2783 17.8491C17.3821 17.9528 17.4858 18.0566 17.5896 18.1085C17.6415 18.1604 17.7453 18.2123 17.7972 18.316C16.2925 19.717 14.4764 20.5991 12.5566 20.8585ZM18.5236 17.6415C18.4717 17.5896 18.3679 17.4858 18.2642 17.434C18.1604 17.3302 18.0047 17.2264 17.9009 17.1226C17.7453 17.0189 17.5896 16.8632 17.434 16.7594C17.2783 16.6557 17.1745 16.5519 17.0189 16.5C16.8632 16.3962 16.7075 16.2925 16.5 16.1887C16.3443 16.0849 16.2406 16.033 16.0849 15.9292C16.033 15.8774 15.9811 15.8774 15.9292 15.8255C16.4481 14.5802 16.7594 13.1274 16.8632 11.5189H20.9623C20.8585 13.8019 20.0283 15.9292 18.5236 17.6415ZM18.2642 4.61792C18.3679 4.56604 18.4198 4.46226 18.5236 4.41038C20.0283 6.12264 20.9104 8.25 21.0142 10.533H16.9151C16.8632 8.87264 16.5 7.41981 16.033 6.17453C16.0849 6.17453 16.1368 6.12264 16.1368 6.12264C16.2925 6.07075 16.3962 5.96698 16.5519 5.86321C16.7075 5.75943 16.8632 5.65566 17.0708 5.55189C17.2264 5.44811 17.3302 5.34434 17.4858 5.29245C17.6415 5.18868 17.7972 5.08491 17.9528 4.92924C18.0047 4.82547 18.1604 4.7217 18.2642 4.61792ZM17.7972 3.68396C17.7453 3.73585 17.6415 3.78774 17.5896 3.89151C17.4858 3.99528 17.3821 4.09906 17.2783 4.15094C17.1226 4.25472 17.0189 4.35849 16.8632 4.46226C16.7594 4.56604 16.6038 4.61792 16.5 4.7217C16.3443 4.82547 16.1887 4.92925 16.033 4.98113C15.9292 5.03302 15.7736 5.13679 15.6698 5.18868C15.6698 5.18868 15.6179 5.18868 15.6179 5.24057C14.7358 3.37264 13.4906 2.02358 12.6085 1.14151C14.5283 1.45283 16.3443 2.28302 17.7972 3.68396ZM11.5189 1.5566C12.3491 2.28302 13.6981 3.68396 14.6321 5.65566C14.5283 5.70755 14.3726 5.75943 14.2689 5.81132C14.1651 5.86321 14.0094 5.91509 13.9057 5.96698C13.6981 6.01887 13.5425 6.07075 13.3349 6.12264C13.2311 6.17453 13.0755 6.17453 12.9717 6.22641C12.7642 6.2783 12.5566 6.2783 12.3491 6.33019C12.2453 6.33019 12.1415 6.38208 12.0377 6.38208C11.8821 6.38208 11.7264 6.38208 11.5708 6.38208V1.5566H11.5189ZM11.5189 7.31604C11.7264 7.31604 11.8821 7.31604 12.0896 7.26415C12.1934 7.26415 12.3491 7.21226 12.4528 7.21226C12.7123 7.16038 12.9198 7.16038 13.1792 7.10849C13.3349 7.0566 13.4387 7.0566 13.5943 7.00472C13.8019 6.95283 14.0094 6.90094 14.217 6.84906C14.3726 6.79717 14.5283 6.74528 14.6321 6.6934C14.7877 6.64151 14.9434 6.58962 15.0991 6.53774C15.566 7.67925 15.8774 8.97642 15.9292 10.4811H11.5708V7.31604H11.5189ZM11.5189 11.5189H15.8774C15.8255 12.9717 15.4623 14.2689 15.0472 15.4104C14.8915 15.3585 14.7877 15.3066 14.6321 15.2547C14.4764 15.2028 14.3726 15.1509 14.217 15.0991C14.0094 15.0472 13.8019 14.9953 13.5943 14.9434C13.4387 14.8915 13.3349 14.8915 13.1792 14.8396C12.9717 14.7877 12.7123 14.7877 12.4528 14.7358C12.3491 14.7358 12.1934 14.684 12.0896 14.684C11.8821 14.684 11.7264 14.684 11.5189 14.6321V11.5189ZM11.5189 15.7217C11.6745 15.7217 11.8302 15.7217 11.9858 15.7217C12.0896 15.7217 12.1934 15.7736 12.2972 15.7736C12.5047 15.8255 12.7123 15.8255 12.9198 15.8774C13.0236 15.8774 13.1792 15.9292 13.283 15.9811C13.4906 16.033 13.6462 16.0849 13.8538 16.1368C14.0094 16.1887 14.1132 16.2406 14.2689 16.2925C14.3726 16.3443 14.4764 16.3962 14.6321 16.3962C13.6462 18.3679 12.3491 19.717 11.5189 20.4953V15.7217ZM4.20283 18.3679C4.25472 18.316 4.35849 18.2642 4.41038 18.1604C4.51415 18.0566 4.61792 17.9528 4.7217 17.9009C4.87736 17.7972 4.98113 17.6934 5.13679 17.5896C5.24057 17.4858 5.39623 17.434 5.5 17.3302C5.65566 17.2264 5.81132 17.1226 5.96698 17.0708C6.07075 17.0189 6.22641 16.9151 6.33019 16.8632C6.38208 16.8632 6.38208 16.8113 6.43396 16.8113C7.36792 18.6792 8.56132 20.0802 9.4434 20.9104C7.52358 20.5991 5.70755 19.717 4.20283 18.3679ZM10.4811 20.4434C9.65094 19.717 8.35377 18.316 7.36792 16.3443C7.4717 16.2925 7.57547 16.2406 7.73113 16.2406C7.88679 16.1887 7.99057 16.1368 8.14623 16.0849C8.35377 16.033 8.50943 15.9811 8.71698 15.9292C8.82075 15.8774 8.97641 15.8774 9.08019 15.8255C9.28774 15.7736 9.49528 15.7736 9.70283 15.7217C9.8066 15.7217 9.91038 15.6698 10.0142 15.6698C10.1698 15.6698 10.3255 15.6698 10.4811 15.6698V20.4434ZM10.4811 14.684C10.2736 14.684 10.1179 14.684 9.91038 14.7358C9.8066 14.7358 9.65094 14.7877 9.54717 14.7877C9.28773 14.8396 9.08019 14.8396 8.82075 14.8915C8.66509 14.9434 8.56132 14.9434 8.40566 14.9953C8.19811 15.0472 7.99057 15.0991 7.78302 15.1509C7.62736 15.2028 7.52358 15.2547 7.36792 15.3066C7.21226 15.3585 7.0566 15.4104 6.95283 15.4623C6.48585 14.3208 6.17453 13.0236 6.12264 11.5708H10.4811V14.684ZM10.4811 10.4811H6.12264C6.17453 9.0283 6.48585 7.67925 6.95283 6.53774C7.10849 6.58962 7.26415 6.64151 7.41981 6.6934C7.57547 6.74528 7.67925 6.79717 7.83491 6.84906C8.04245 6.90094 8.25 6.95283 8.45755 7.00472C8.61321 7.0566 8.71698 7.0566 8.87264 7.10849C9.08019 7.16038 9.33962 7.16038 9.59906 7.21226C9.70283 7.21226 9.8066 7.26415 9.96226 7.26415C10.1698 7.26415 10.3255 7.26415 10.533 7.31604V10.4811H10.4811ZM10.4811 1.5566V6.33019C10.3255 6.33019 10.1698 6.33019 10.0142 6.33019C9.91038 6.33019 9.8066 6.2783 9.70283 6.2783C9.49528 6.22642 9.28774 6.22641 9.08019 6.17453C8.97641 6.17453 8.82075 6.12264 8.71698 6.07075C8.50943 6.01887 8.35377 5.96698 8.14623 5.91509C7.99057 5.86321 7.88679 5.81132 7.78302 5.75943C7.67924 5.70755 7.52358 5.65566 7.41981 5.60377C8.35377 3.68396 9.65094 2.28302 10.4811 1.5566ZM9.4434 1.14151C8.56132 1.9717 7.31604 3.37264 6.43396 5.24057C6.43396 5.24057 6.38208 5.24057 6.38208 5.18868C6.2783 5.13679 6.12264 5.03302 6.01887 4.98113C5.86321 4.87736 5.70755 4.82547 5.55189 4.7217C5.44811 4.61792 5.29245 4.56604 5.18868 4.46226C5.03302 4.35849 4.87736 4.25472 4.77358 4.15094C4.61792 4.04717 4.51415 3.9434 4.41038 3.83962C4.35849 3.78774 4.3066 3.73585 4.20283 3.68396C5.70755 2.28302 7.4717 1.45283 9.4434 1.14151ZM3.5283 4.41038C3.58019 4.46226 3.68396 4.56604 3.78774 4.61792C3.89151 4.7217 4.04717 4.82547 4.15094 4.92924C4.3066 5.03302 4.46226 5.18868 4.61792 5.29245C4.77358 5.39623 4.87736 5.5 5.03302 5.55189C5.18868 5.65566 5.34434 5.75943 5.55189 5.86321C5.70755 5.96698 5.81132 6.01887 5.96698 6.12264C6.01887 6.12264 6.07075 6.17453 6.07075 6.17453C5.55189 7.41981 5.24057 8.87264 5.18868 10.533H1.03774C1.14151 8.25 2.02358 6.07075 3.5283 4.41038ZM5.13679 11.5189C5.18868 13.1274 5.55189 14.5802 6.07075 15.8255C6.01887 15.8774 5.96698 15.8774 5.91509 15.9292C5.75943 15.9811 5.65566 16.0849 5.5 16.1887C5.34434 16.2925 5.18868 16.3962 4.98113 16.5C4.82547 16.6038 4.7217 16.7075 4.56604 16.7594C4.41038 16.8632 4.25472 16.967 4.09906 17.1226C3.99528 17.2264 3.83962 17.3302 3.73585 17.434C3.63208 17.4858 3.58019 17.5896 3.47641 17.6415C2.02358 15.9292 1.14151 13.8019 1.03774 11.5189H5.13679Z" fill="white"/>
</svg>
