<svg width="28" height="24" viewBox="0 0 28 24" fill="none" xmlns="http://www.w3.org/2000/svg">
<path d="M24.0709 0.243167C24.0336 0.243113 23.9964 0.243752 23.9593 0.24508H8.84063C7.04471 0.24508 5.51027 1.5512 5.51027 3.34712V10.6941H2.73476C1.65721 10.6941 0.938843 11.6739 0.938843 12.7515V18.8248C0.938843 19.9024 1.65721 20.8165 2.73476 20.8165H4.20415L4.79216 23.4288C4.84888 23.6603 5.02179 23.8458 5.24879 23.9185H5.44522C5.61728 23.916 5.78138 23.8456 5.90185 23.7228L8.57978 20.8165H12.6289C13.7272 20.7995 14.6183 19.9227 14.6531 18.8248V15.592H15.1429L19.6161 20.4575C19.7224 20.6034 19.8929 20.6885 20.0734 20.6858H20.2692C20.4917 20.6248 20.6655 20.451 20.7265 20.2285L21.7717 15.592H23.9592C25.7552 15.592 27.0613 14.0576 27.0613 12.2617V3.34712C27.0883 2.53559 26.7856 1.7477 26.2223 1.16295C25.6589 0.5782 24.8828 0.246406 24.0709 0.243167H24.0709ZM24.1289 1.54929C24.5845 1.56773 25.0136 1.76864 25.3194 2.10681C25.6253 2.44497 25.7824 2.89195 25.7552 3.34712V12.2617C25.7552 13.3392 25.0368 14.2859 23.9593 14.2859H21.2488C20.9469 14.2652 20.6786 14.4772 20.6289 14.7757L19.7469 18.6615L15.8942 14.4817C15.7736 14.3587 15.6092 14.2883 15.4369 14.2859H8.84063C7.73711 14.2518 6.8505 13.3652 6.81639 12.2617V3.34712C6.81639 2.26957 7.76308 1.5512 8.84063 1.5512H23.9593C24.0157 1.54774 24.0724 1.5471 24.1289 1.54929V1.54929ZM9.72265 5.14304C9.36197 5.14304 9.06958 5.43543 9.06958 5.7961C9.06958 6.15678 9.36197 6.44916 9.72265 6.44916H17.5594C17.9201 6.44916 18.2124 6.15678 18.2124 5.7961C18.2124 5.43543 17.9201 5.14304 17.5594 5.14304H9.72265ZM9.72265 9.06141C9.36197 9.06141 9.06958 9.35379 9.06958 9.71447C9.06958 10.0751 9.36197 10.3675 9.72265 10.3675H22.7839C23.1445 10.3675 23.4369 10.0751 23.4369 9.71447C23.4369 9.35379 23.1445 9.06141 22.7839 9.06141H9.72265ZM2.73476 12.0002H5.51027V12.2617C5.54517 14.0863 7.01598 15.5571 8.84063 15.592H13.347V18.8248C13.3144 19.2015 13.0067 19.4952 12.6289 19.5104H8.28578C8.1135 19.5128 7.94914 19.5831 7.82851 19.7062L5.77175 21.9268L5.34701 20.0002C5.27075 19.7042 4.99943 19.5007 4.69395 19.5104H2.73476C2.37558 19.5104 2.24497 19.184 2.24497 18.8248V12.7515C2.24497 12.3923 2.37558 12.0002 2.73476 12.0002H2.73476Z" fill="#D3D3D4"/>
</svg>
