<svg width="22" height="19" viewBox="0 0 22 19" fill="none" xmlns="http://www.w3.org/2000/svg">
<g clip-path="url(#clip0_129:66)">
<path d="M21.4241 3.22513H10.712L7.48691 0.172775C7.37173 0.0575916 7.25654 0 7.08377 0H0.575916C0.230366 0 0 0.230366 0 0.575916V17.911C0 18.199 0.230366 18.4869 0.575916 18.4869H21.4241C21.712 18.4869 22 18.2565 22 17.911V3.74346C22 3.4555 21.712 3.22513 21.4241 3.22513ZM20.8482 17.3351H1.09424V1.09424H6.8534L10.0785 4.1466C10.1937 4.26178 10.3089 4.31937 10.4817 4.31937H20.8482V17.3351Z" fill="white"/>
<path d="M10.021 7.42925C10.021 7.94758 10.4817 8.40831 11.0001 8.40831C11.5184 8.40831 11.9791 7.94758 11.9791 7.42925C11.9791 6.91093 11.5184 6.4502 11.0001 6.4502C10.4817 6.4502 10.021 6.91093 10.021 7.42925Z" fill="white"/>
<path d="M11.6335 10.424V9.73291H10.3089H9.67542V10.424H10.3089V14.6858H9.67542V15.3193H10.3089H11.6335H12.3246V14.6858H11.6335V10.424Z" fill="white"/>
</g>
<defs>
<clipPath id="clip0_129:66">
<rect width="22" height="18.4869" fill="white"/>
</clipPath>
</defs>
</svg>
