<svg width="28" height="29" viewBox="0 0 28 29" fill="none" xmlns="http://www.w3.org/2000/svg">
<path d="M0 14.5C0 6.76801 6.26801 0.5 14 0.5C21.732 0.5 28 6.76801 28 14.5C28 22.232 21.732 28.5 14 28.5C6.26801 28.5 0 22.232 0 14.5Z" fill="#7567CE"/>
<path d="M12.6875 6.84375C7.4375 6.84375 5.25 9.08687 5.25 12.0938V16.9062C5.25 19.9131 7.4375 22.1562 12.6875 22.1562H17.7734C22.5312 22.1562 22.75 21.5821 22.75 20.625C22.75 19.5313 22.3125 19.0938 21.2188 19.0938H12.6875C10.0625 19.0938 8.75 17.7843 8.75 16.4688V16.0312H21.2188C22.0938 16.0312 22.75 15.457 22.75 14.5C22.75 13.543 22.0938 12.9688 21.2188 12.9688H8.75V12.5312C8.75 11.2157 10.0625 9.90625 12.6875 9.90625H21.2188C22.3125 9.90625 22.75 9.4687 22.75 8.375C22.75 7.41791 22.5312 6.84375 17.7734 6.84375H12.6875Z" fill="white"/>
</svg>
