<svg xmlns="http://www.w3.org/2000/svg" version="1.1" xmlns:xlink="http://www.w3.org/1999/xlink" xmlns:svgjs="http://svgjs.com/svgjs" width="99" height="29"><svg width="99" height="29" viewBox="0 0 99 29" fill="none" xmlns="http://www.w3.org/2000/svg">
<path d="M29.3906 0L17.7891 28.7069H24.75L27.0703 23.2759H40.9922V28.7069H47.1797V0H29.3906ZM29.3906 17.069L33.6445 6.2069H40.9922V17.069H29.3906Z" fill="white"></path>
<path d="M23.9766 0L12.375 28.7069H8.89453L20.4961 0H23.9766Z" fill="white"></path>
<path d="M16.6289 0L5.02734 28.7069H0L11.6016 0H16.6289Z" fill="white"></path>
<path d="M77.3437 0L65.7422 28.7069H50.2734V0H56.4609V22.5H61.4883L70.3828 0H77.3437Z" fill="white"></path>
<path d="M99 0V9.31035H92.8125V6.2069H85.0781L78.8906 22.5H93.1219V18.6207H86.625L89.332 12.4138H99V28.7069H69.6094L81.2109 0H99Z" fill="white"></path>
</svg><style>@media (prefers-color-scheme: light) { :root { filter: none; } }
</style></svg>