<?xml version="1.0" encoding="utf-8"?>
<!-- Generator: Adobe Illustrator 24.1.1, SVG Export Plug-In . SVG Version: 6.00 Build 0)  -->
<svg version="1.1" id="Layer_1" xmlns="http://www.w3.org/2000/svg" xmlns:xlink="http://www.w3.org/1999/xlink" x="0px" y="0px"
	 viewBox="0 0 595.28 595.28" style="enable-background:new 0 0 595.28 595.28;" xml:space="preserve">
<style type="text/css">
	.st0{fill:#ECB007;}
	.st1{fill:#FFFFFF;}
</style>
<g>
	<g>
		<path class="st0" d="M551.25,297.64c-5.69,338.18-501.58,338.12-507.23-0.01C49.72-40.54,545.61-40.48,551.25,297.64z"/>
	</g>
	<g>
		<path class="st1" d="M356.05,284.91l0.72,0.4l1.16,0.03c4.49,0,8.27-2.94,9.64-7.49c1.39-4.65-0.27-9.42-4.1-11.85
			c-48.72-32.79-77.57-100.58-78.05-116.67c0.85-3.41,2.75-5.64,5.25-6.14c2.45-0.48,5.03,0.65,6.57,2.89
			c2.38,3.46,1.8,8.68-1.68,14.47c-2,3.73-1.45,8.31,1.41,11.68c2.87,3.38,7.25,4.62,11.29,3.11l0.34-0.16
			c8.59-4.73,9.76-16.17,10.7-25.36l0.07-0.76c0.29-9.5-3.85-17.31-11.67-22c-9.24-5.54-22.15-5.54-31.39,0
			c-7.81,4.69-11.96,12.48-11.69,21.88c-0.11,10.18,8.65,36.48,23.49,62.88C301.37,235.42,323.94,267.27,356.05,284.91z"/>
		<path class="st1" d="M283.99,235.24c2.29-3.03,2.79-6.69,1.38-10.04c-1.51-3.61-5.12-6.32-8.97-6.76
			c-3.59-0.41-6.92,1.13-9.09,4.19c-41.33,55.05-76.63,88.9-89.91,86.14c-1.58-0.32-3.83-1.34-5.25-6.43c0.25-3.72,1.2-5,1.75-5.44
			c1.48-1.17,5-0.44,8.39,0.27c5.69,1.19,13.47,2.82,17.48-4.73l0.17-0.42c1.18-3.62,0.83-6.97-1.03-9.69
			c-3.1-4.53-10.05-6.95-21.28-7.4c-9.38-0.32-17.06,3.91-21.69,11.84c-5.46,9.37-5.46,22.47,0,31.84
			c4.46,7.65,11.84,11.87,20.78,11.87c0.29,0,0.58,0,0.82-0.01c15.33-0.02,36.25-16.83,51.1-30.93
			C246.42,282.69,266.59,259.26,283.99,235.24z"/>
		<path class="st1" d="M242.71,311.19l-0.03-0.02c-3.11-2.15-6.74-2.47-9.97-0.87c-3.46,1.72-5.93,5.5-6.17,9.41
			c-0.22,3.66,1.46,6.94,4.6,9.02c39.79,26.64,81.9,95.7,76.84,117.35c-0.74,3.18-2.5,4.77-5.62,5.17c-2.62,0-4.34-0.73-5.23-2.23
			c-1.95-3.27-0.51-10.26,1.94-14.85c2.01-3.75,1.44-8.35-1.47-11.73c-2.9-3.37-7.31-4.56-11.23-3.04l-0.89,0.51
			c-10.74,8.5-12.17,24.18-8.02,35.29c4.02,10.76,12.86,17.19,23.65,17.19c0.57,0,1.16-0.02,1.92-0.07
			c13.8-1.6,22.29-8.34,25.25-20.03c4.15-16.4-4.08-42.6-22.58-71.89C288.37,352.98,264.83,327.1,242.71,311.19z"/>
		<path class="st1" d="M443.25,291.59l-0.07-0.42c-3.69-15.51-10.71-24.47-20.85-26.63c-13.89-2.96-33.29,7.64-57.66,31.51
			c-16.03,15.7-34.2,37.03-53.99,63.36c-2.44,3.1-2.81,7.34-0.97,11.06c1.79,3.62,5.26,5.87,9.05,5.87l1.75-0.05l0.98-1.05
			c8.03-8.6,16.37-17.9,24.45-26.91c27.5-30.66,58.66-65.4,70.5-63.07l0.44,0.09l0.44-0.03c1.74-0.11,3.02,0.59,3.93,2.11
			c1.5,2.51,1.49,6.61,0,9.12c-0.91,1.53-2.19,2.21-4.06,2.11l-0.45,0.02c-1.52,0.17-3.7-0.47-5.83-1.1
			c-4.91-1.45-12.33-3.65-16.1,4.76l-0.29,1.03c-0.67,5.49,1.56,10.33,6.12,13.27c7.8,5.03,21.53,4.12,31.26-2.08
			C440.29,309.21,444.34,301.05,443.25,291.59z"/>
	</g>
</g>
</svg>
