<svg width="99" height="45" viewBox="0 0 99 45" fill="none" xmlns="http://www.w3.org/2000/svg">
<path d="M29.3906 0L17.7891 28.7069H24.75L27.0703 23.2759H40.9922V28.7069H47.1797V0H29.3906ZM29.3906 17.069L33.6445 6.2069H40.9922V17.069H29.3906Z" fill="#080804"/>
<path d="M23.9766 0L12.375 28.7069H8.89453L20.4961 0H23.9766Z" fill="#080804"/>
<path d="M16.6289 0L5.02734 28.7069H0L11.6016 0H16.6289Z" fill="#080804"/>
<path d="M77.3437 0L65.7422 28.7069H50.2734V0H56.4609V22.5H61.4883L70.3828 0H77.3437Z" fill="#080804"/>
<path d="M99 0V9.31034H92.8125V6.2069H85.0781L78.8906 22.5H93.1219V18.6207H86.625L89.332 12.4138H99V28.7069H69.6094L81.2109 0H99Z" fill="#080804"/>
<path d="M2.07342 39.6016H2.76179L4.55414 44.2268H3.78784L3.30079 42.9695H1.52142L1.04086 44.2268H0.268066L2.07342 39.6016ZM3.15792 42.4288L2.4176 40.4028L1.6513 42.4288H3.15792Z" fill="#080804"/>
<path d="M7.08362 44.2594C6.71995 44.2594 6.41041 44.1964 6.15497 44.0705C5.89953 43.9445 5.69389 43.7729 5.53804 43.5558C5.38217 43.3343 5.26962 43.0867 5.20035 42.8132C5.13108 42.5352 5.09644 42.2464 5.09644 41.9468V39.6016H5.82378V41.9468C5.82378 42.1596 5.84542 42.3658 5.88871 42.5656C5.93201 42.761 6.00128 42.9369 6.09652 43.0933C6.19177 43.2496 6.31949 43.3734 6.47967 43.4646C6.64419 43.5558 6.8455 43.6014 7.08362 43.6014C7.32606 43.6014 7.52738 43.5558 7.68757 43.4646C7.85208 43.3691 7.98195 43.2431 8.07723 43.0867C8.17244 42.9261 8.23958 42.748 8.27856 42.5526C8.32179 42.3571 8.34345 42.1552 8.34345 41.9468V39.6016H9.07729V41.9468C9.07729 42.2638 9.03831 42.5612 8.96042 42.8392C8.88679 43.1172 8.76992 43.3626 8.60974 43.5754C8.4539 43.7881 8.24824 43.9553 7.99277 44.077C7.74171 44.1985 7.43863 44.2594 7.08362 44.2594Z" fill="#080804"/>
<path d="M13.6553 40.2465H12.1227V44.2268H11.3889V40.2465H9.84979V39.6016H13.6553V40.2465Z" fill="#080804"/>
<path d="M16.2962 44.2594C15.9672 44.2594 15.6662 44.1942 15.3935 44.0639C15.125 43.9337 14.8935 43.7578 14.6986 43.5363C14.5038 43.3104 14.3523 43.0585 14.244 42.7806C14.1401 42.4983 14.0882 42.2095 14.0882 41.9142C14.0882 41.6058 14.1445 41.3126 14.257 41.0347C14.3696 40.7524 14.5255 40.5027 14.7246 40.2856C14.9238 40.064 15.1575 39.8903 15.426 39.7644C15.6987 39.6341 15.9931 39.569 16.3092 39.569C16.6382 39.569 16.9369 39.6363 17.2054 39.7709C17.4781 39.9055 17.7097 40.0858 17.9002 40.3116C18.095 40.5375 18.2444 40.7893 18.3483 41.0673C18.4565 41.3452 18.5106 41.6297 18.5106 41.9207C18.5106 42.229 18.4544 42.5243 18.3418 42.8066C18.2336 43.0846 18.0799 43.3343 17.8807 43.5558C17.6816 43.7729 17.4456 43.9445 17.1729 44.0704C16.9044 44.1964 16.6122 44.2594 16.2962 44.2594ZM14.8285 41.9142C14.8285 42.2051 14.8891 42.4809 15.0103 42.7415C15.1315 42.9977 15.3004 43.2062 15.5169 43.3669C15.7377 43.5232 15.9996 43.6014 16.3027 43.6014C16.5321 43.6014 16.7377 43.5536 16.9196 43.4581C17.1014 43.3626 17.2551 43.2345 17.3807 43.0737C17.5062 42.9087 17.6014 42.7263 17.6664 42.5265C17.7314 42.3268 17.7638 42.1226 17.7638 41.9142C17.7638 41.6232 17.7032 41.3496 17.582 41.0933C17.4651 40.8371 17.2962 40.6308 17.0754 40.4745C16.8547 40.3138 16.597 40.2334 16.3027 40.2334C16.0689 40.2334 15.861 40.2812 15.6792 40.3767C15.4974 40.4723 15.3437 40.6004 15.2182 40.7611C15.0926 40.9218 14.9952 41.102 14.9259 41.3018C14.861 41.5016 14.8285 41.7057 14.8285 41.9142Z" fill="#080804"/>
<path d="M23.3679 44.2268V40.9305L22.0106 43.432H21.582L20.2183 40.9305V44.2268H19.4909V39.6016H20.2703L21.7963 42.4288L23.3224 39.6016H24.1017V44.2268H23.3679Z" fill="#080804"/>
<path d="M26.7001 39.6016H27.3885L29.1808 44.2268H28.4146L27.9274 42.9695H26.1481L25.6675 44.2268H24.8947L26.7001 39.6016ZM27.7846 42.4288L27.0443 40.4028L26.278 42.4288H27.7846Z" fill="#080804"/>
<path d="M32.9242 40.2465H31.3915V44.2268H30.6578V40.2465H29.1186V39.6016H32.9242V40.2465Z" fill="#080804"/>
<path d="M33.7698 44.2268V39.6016H34.4971V44.2268H33.7698Z" fill="#080804"/>
<path d="M35.4742 41.8816C35.4742 41.5993 35.524 41.3213 35.6235 41.0477C35.7232 40.7741 35.8682 40.5266 36.0587 40.3051C36.2535 40.0836 36.4872 39.9077 36.76 39.7774C37.0371 39.6428 37.3531 39.5755 37.7081 39.5755C38.1237 39.5755 38.4831 39.6688 38.7861 39.8556C39.0892 40.0423 39.3143 40.2855 39.4616 40.5852L38.8901 40.9695C38.8034 40.7828 38.6931 40.6373 38.5589 40.5331C38.4289 40.4245 38.2861 40.3485 38.1302 40.3051C37.9787 40.2573 37.8294 40.2334 37.6822 40.2334C37.4397 40.2334 37.2276 40.2834 37.0457 40.3832C36.8639 40.4788 36.7102 40.6069 36.5847 40.7676C36.4634 40.9283 36.3704 41.1085 36.3054 41.3083C36.2448 41.5081 36.2145 41.7079 36.2145 41.9076C36.2145 42.2073 36.2773 42.4874 36.4028 42.748C36.5327 43.0042 36.708 43.2127 36.9289 43.3734C37.154 43.5297 37.4116 43.6079 37.7017 43.6079C37.8489 43.6079 38.0026 43.5819 38.1627 43.5297C38.3229 43.4776 38.4701 43.3973 38.6043 43.2887C38.7386 43.1758 38.8468 43.0281 38.9291 42.8457L39.533 43.191C39.4377 43.4211 39.2884 43.6165 39.0849 43.7772C38.8857 43.938 38.6606 44.0596 38.4095 44.142C38.1627 44.2246 37.9181 44.2659 37.6757 44.2659C37.3509 44.2659 37.0544 44.1985 36.786 44.0639C36.5175 43.925 36.2859 43.7425 36.0912 43.5167C35.8963 43.2865 35.7447 43.0303 35.6365 42.748C35.5283 42.4614 35.4742 42.1725 35.4742 41.8816Z" fill="#080804"/>
<path d="M42.335 39.6016L43.7247 43.3343L45.108 39.6016H45.8808L44.0689 44.2268H43.3806L41.5623 39.6016H42.335Z" fill="#080804"/>
<path d="M49.834 43.5819V44.2268H46.6714V39.6016H49.7755V40.2465H47.3986V41.5624H49.4573V42.1682H47.3986V43.5819H49.834Z" fill="#080804"/>
<path d="M51.5388 40.9565V44.2268H50.8116V39.6016H51.409L54.0196 42.9434V39.6081H54.7534V44.2268H54.117L51.5388 40.9565Z" fill="#080804"/>
<path d="M59.4006 40.2465H57.868V44.2268H57.1342V40.2465H55.5951V39.6016H59.4006V40.2465Z" fill="#080804"/>
<path d="M62.1684 44.2594C61.8048 44.2594 61.4952 44.1964 61.2398 44.0705C60.9844 43.9445 60.7787 43.7729 60.6229 43.5558C60.467 43.3343 60.3544 43.0867 60.2852 42.8132C60.2159 42.5352 60.1812 42.2464 60.1812 41.9468V39.6016H60.9086V41.9468C60.9086 42.1596 60.9302 42.3658 60.9736 42.5656C61.0169 42.761 61.0861 42.9369 61.1814 43.0933C61.2766 43.2496 61.4043 43.3734 61.5645 43.4646C61.7291 43.5558 61.9303 43.6014 62.1684 43.6014C62.4109 43.6014 62.6122 43.5558 62.7724 43.4646C62.9369 43.3691 63.0668 43.2431 63.1621 43.0867C63.2573 42.9261 63.3244 42.748 63.3633 42.5526C63.4066 42.3571 63.4283 42.1552 63.4283 41.9468V39.6016H64.1621V41.9468C64.1621 42.2638 64.1232 42.5612 64.0453 42.8392C63.9716 43.1172 63.8548 43.3626 63.6946 43.5754C63.5387 43.7881 63.3331 43.9553 63.0776 44.077C62.8265 44.1985 62.5235 44.2594 62.1684 44.2594Z" fill="#080804"/>
<path d="M65.3567 44.2268V39.6016H67.3634C67.5712 39.6016 67.7617 39.645 67.9349 39.7318C68.108 39.8187 68.2574 39.9338 68.3829 40.0771C68.5129 40.2204 68.6124 40.3811 68.6817 40.5591C68.7553 40.7372 68.7921 40.9196 68.7921 41.1063C68.7921 41.3148 68.7531 41.5124 68.6752 41.6992C68.6016 41.8816 68.4977 42.0401 68.3634 42.1747C68.2292 42.3094 68.0712 42.4071 67.8894 42.4679L68.9739 44.2268H68.1557L67.1556 42.6177H66.084V44.2268H65.3567ZM66.084 41.9728H67.3569C67.4911 41.9728 67.6102 41.9337 67.7141 41.8555C67.8179 41.773 67.9002 41.6666 67.9609 41.5363C68.0214 41.4061 68.0517 41.2628 68.0517 41.1063C68.0517 40.9457 68.0171 40.8024 67.9479 40.6764C67.8786 40.5462 67.7877 40.4419 67.6751 40.3638C67.5625 40.2856 67.4435 40.2465 67.3179 40.2465H66.084V41.9728Z" fill="#080804"/>
<path d="M73.04 43.5819V44.2268H69.8775V39.6016H72.9817V40.2465H70.6048V41.5624H72.6634V42.1682H70.6048V43.5819H73.04Z" fill="#080804"/>
<path d="M77.7328 44.2594C77.425 44.2594 77.1396 44.1964 76.8755 44.0704C76.6157 43.9445 76.3863 43.7708 76.1872 43.5493C75.9923 43.3278 75.8386 43.0759 75.726 42.7936C75.6178 42.5114 75.5637 42.2116 75.5637 41.8946C75.5637 41.5819 75.6178 41.2866 75.726 41.0087C75.8343 40.7264 75.988 40.4788 76.1872 40.266C76.3863 40.0488 76.6179 39.8795 76.882 39.7579C77.1504 39.632 77.4428 39.569 77.7591 39.569C78.1961 39.569 78.5642 39.6623 78.8628 39.8491C79.1613 40.0315 79.3887 40.2747 79.545 40.5787L78.9858 40.9826C78.8605 40.7307 78.6872 40.5418 78.4668 40.4158C78.2456 40.2899 78.0035 40.2269 77.739 40.2269C77.4489 40.2269 77.1959 40.3073 76.9794 40.468C76.763 40.6243 76.5963 40.8306 76.4794 41.0869C76.3625 41.3431 76.304 41.6189 76.304 41.9142C76.304 42.2268 76.369 42.5114 76.4989 42.7675C76.6287 43.0195 76.8041 43.2214 77.0249 43.3734C77.25 43.5254 77.5054 43.6014 77.7908 43.6014C78.2672 43.6014 78.6957 43.3734 79.077 42.9174V42.4288H78.1095V41.8881H79.6873V44.2268H79.077V43.6535C78.6919 44.0574 78.2433 44.2594 77.7328 44.2594Z" fill="#080804"/>
<path d="M80.7446 44.2268V39.6016H82.7509C82.9589 39.6016 83.1492 39.645 83.3224 39.7318C83.4957 39.8187 83.645 39.9338 83.7703 40.0771C83.9002 40.2204 84 40.3811 84.0696 40.5591C84.1431 40.7372 84.1794 40.9196 84.1794 41.1063C84.1794 41.3148 84.1407 41.5124 84.0626 41.6992C83.9891 41.8816 83.8855 42.0401 83.7509 42.1747C83.6171 42.3094 83.4586 42.4071 83.2768 42.4679L84.3619 44.2268H83.5436L82.5436 42.6177H81.4716V44.2268H80.7446ZM81.4716 41.9728H82.7447C82.8785 41.9728 82.9976 41.9337 83.102 41.8555C83.2056 41.773 83.2876 41.6666 83.3487 41.5363C83.4091 41.4061 83.4392 41.2628 83.4392 41.1063C83.4392 40.9457 83.4044 40.8024 83.3356 40.6764C83.266 40.5462 83.1755 40.4419 83.0626 40.3638C82.9504 40.2856 82.8313 40.2465 82.7052 40.2465H81.4716V41.9728Z" fill="#080804"/>
<path d="M87.1679 44.2594C86.8392 44.2594 86.5384 44.1942 86.2653 44.0639C85.997 43.9337 85.7657 43.7578 85.5708 43.5363C85.3759 43.3104 85.2243 43.0585 85.116 42.7806C85.0124 42.4983 84.9598 42.2095 84.9598 41.9142C84.9598 41.6058 85.0162 41.3126 85.1292 41.0347C85.2413 40.7524 85.3975 40.5027 85.5963 40.2856C85.7959 40.064 86.0294 39.8903 86.2978 39.7644C86.5708 39.6341 86.8648 39.569 87.1811 39.569C87.5098 39.569 87.8091 39.6363 88.0775 39.7709C88.3497 39.9055 88.5818 40.0858 88.772 40.3116C88.9669 40.5375 89.1162 40.7893 89.2199 41.0673C89.3281 41.3452 89.3823 41.6297 89.3823 41.9207C89.3823 42.229 89.3266 42.5243 89.2137 42.8066C89.1054 43.0846 88.9515 43.3343 88.7527 43.5558C88.5532 43.7729 88.3173 43.9445 88.045 44.0704C87.7766 44.1964 87.4843 44.2594 87.1679 44.2594ZM85.7007 41.9142C85.7007 42.2051 85.7611 42.4809 85.8825 42.7415C86.0031 42.9977 86.1725 43.2062 86.3891 43.3669C86.6095 43.5232 86.8717 43.6014 87.1749 43.6014C87.4038 43.6014 87.6096 43.5536 87.7913 43.4581C87.9731 43.3626 88.127 43.2345 88.2523 43.0737C88.3784 42.9087 88.4735 42.7263 88.5385 42.5265C88.6034 42.3268 88.6359 42.1226 88.6359 41.9142C88.6359 41.6232 88.5748 41.3496 88.4542 41.0933C88.3374 40.8371 88.168 40.6308 87.9476 40.4745C87.7264 40.3138 87.4688 40.2334 87.1749 40.2334C86.9405 40.2334 86.7333 40.2812 86.5515 40.3767C86.369 40.4723 86.2158 40.6004 86.0898 40.7611C85.9645 40.9218 85.867 41.102 85.7982 41.3018C85.7332 41.5016 85.7007 41.7057 85.7007 41.9142Z" fill="#080804"/>
<path d="M92.285 44.2594C91.9215 44.2594 91.6121 44.1964 91.3561 44.0705C91.1009 43.9445 90.8951 43.7729 90.7397 43.5558C90.5834 43.3343 90.4713 43.0867 90.4017 42.8132C90.3328 42.5352 90.298 42.2464 90.298 41.9468V39.6016H91.0251V41.9468C91.0251 42.1596 91.0467 42.3658 91.09 42.5656C91.1334 42.761 91.203 42.9369 91.2981 43.0933C91.3932 43.2496 91.5208 43.3734 91.6809 43.4646C91.8457 43.5558 92.0468 43.6014 92.285 43.6014C92.5279 43.6014 92.729 43.5558 92.8891 43.4646C93.0538 43.3691 93.1837 43.2431 93.2789 43.0867C93.374 42.9261 93.4413 42.748 93.48 42.5526C93.5233 42.3571 93.5449 42.1552 93.5449 41.9468V39.6016H94.2789V41.9468C94.2789 42.2638 94.2395 42.5612 94.1621 42.8392C94.0887 43.1172 93.9711 43.3626 93.811 43.5754C93.6555 43.7881 93.4498 43.9553 93.1946 44.077C92.9432 44.1985 92.64 44.2594 92.285 44.2594Z" fill="#080804"/>
<path d="M95.4731 44.2268V39.6016H97.4083C97.6163 39.6016 97.8066 39.645 97.9798 39.7318C98.1577 39.8187 98.3093 39.9338 98.4346 40.0771C98.5646 40.2204 98.6643 40.3811 98.7332 40.5591C98.8028 40.7372 98.8376 40.9196 98.8376 41.1063C98.8376 41.367 98.7788 41.6124 98.662 41.8425C98.5452 42.0727 98.3828 42.2594 98.1747 42.4027C97.9675 42.546 97.7246 42.6177 97.4477 42.6177H96.2009V44.2268H95.4731ZM96.2009 41.9728H97.4021C97.6055 41.9728 97.7726 41.8903 97.9025 41.7253C98.0324 41.5602 98.0974 41.3539 98.0974 41.1063C98.0974 40.937 98.0626 40.7893 97.993 40.6634C97.9241 40.5331 97.8329 40.431 97.7207 40.3573C97.6124 40.2834 97.4933 40.2465 97.3634 40.2465H96.2009V41.9728Z" fill="#080804"/>
</svg>
