<svg width="205" height="60" viewBox="0 0 205 60" fill="none" xmlns="http://www.w3.org/2000/svg">
<g clip-path="url(#clip0_102:4756)">
<path d="M60.8082 0L36.805 59.3936H51.2069L56.0076 48.157H84.8114V59.3936H97.6132V0H60.8082ZM60.8082 35.3151L69.6094 12.8419H84.8114V35.3151H60.8082Z" fill="#080804"/>
<path d="M49.6067 0L25.6034 59.3936H18.4025L42.4057 0H49.6067Z" fill="#080804"/>
<path d="M34.4046 0L10.4014 59.3936H0L24.0032 0H34.4046Z" fill="#080804"/>
<path d="M160.022 0L136.018 59.3936H104.014V0H116.816V46.5517H127.217L145.62 0H160.022Z" fill="#080804"/>
<path d="M204.828 0V19.2628H192.026V12.8419H176.024L163.222 46.5517H192.666V38.5256H179.224L184.825 25.6837H204.828V59.3936H144.019L168.023 0H204.828Z" fill="#080804"/>
</g>
<defs>
<clipPath id="clip0_102:4756">
<rect width="204.828" height="60" fill="white"/>
</clipPath>
</defs>
</svg>
