<svg width="1015" height="708" viewBox="0 0 1015 708"
	xmlns="http://www.w3.org/2000/svg">
	<g style="fill: none; stroke: #BDBDBD; stroke-width: 2px" opacity="1" clip-path="url(#clip0_46:2585)">
		<g opacity="0.05">
			<path opacity="0.05" d="M688.189 356.859L791.932 357.448C792.394 357.448 792.772 357.826 792.772 358.288C792.772 358.751 792.394 359.129 791.932 359.129L688.189 356.859Z" fill="#BDBDBD"/>
		</g>
		<g opacity="0.05">
			<path opacity="0.05" d="M791.89 362.282C793.36 362.324 794.536 360.559 794.578 358.33C794.62 356.102 793.444 354.294 792.016 354.294C790.588 354.294 789.412 356.06 789.37 358.246C789.328 360.433 790.462 362.24 791.89 362.282Z" fill="#BDBDBD"/>
		</g>
		<g opacity="0.1">
			<path opacity="0.1" d="M689.533 370.313L788.991 378.133C789.453 378.175 789.789 378.595 789.747 379.057C789.705 379.52 789.285 379.856 788.823 379.814L689.533 370.313Z" fill="#BDBDBD"/>
		</g>
		<g opacity="0.1">
			<path opacity="0.1" d="M788.529 382.925C789.957 383.094 791.301 381.412 791.469 379.184C791.553 378.091 791.343 377.039 790.965 376.325C790.545 375.568 789.915 375.063 789.201 375.021C788.487 374.979 787.815 375.358 787.269 376.03C786.723 376.703 786.345 377.67 786.261 378.721C786.135 380.907 787.101 382.757 788.529 382.925Z" fill="#BDBDBD"/>
		</g>
		<g opacity="0.15">
			<path opacity="0.15" d="M689.785 383.976L784.539 398.481C785.001 398.565 785.337 398.986 785.253 399.448C785.169 399.911 784.749 400.247 784.287 400.163L689.785 383.976Z" fill="#BDBDBD"/>
		</g>
		<g opacity="0.15">
			<path opacity="0.15" d="M783.783 403.232C785.211 403.484 786.64 401.929 787.018 399.743C787.186 398.649 787.059 397.64 786.723 396.842C786.345 396.043 785.757 395.538 785.043 395.412C784.329 395.328 783.615 395.664 783.069 396.295C782.481 396.926 782.061 397.851 781.893 398.902C781.473 401.046 782.355 402.98 783.783 403.232Z" fill="#BDBDBD"/>
		</g>
		<g opacity="0.2">
			<path opacity="0.2" d="M688.945 397.766L778.659 418.452C779.121 418.536 779.415 418.998 779.289 419.461C779.205 419.923 778.743 420.217 778.281 420.091L688.945 397.766Z" fill="#BDBDBD"/>
		</g>
		<g opacity="0.2">
			<path opacity="0.2" d="M777.567 423.076C778.953 423.455 780.507 421.983 781.011 419.881C781.557 417.737 780.759 415.761 779.373 415.467C777.987 415.172 776.475 416.602 775.929 418.662C775.467 420.722 776.181 422.698 777.567 423.076Z" fill="#BDBDBD"/>
		</g>
		<g opacity="0.25">
			<path opacity="0.25" d="M687.013 411.599L771.435 437.833C771.897 437.959 772.149 438.464 771.981 438.884C771.855 439.347 771.351 439.599 770.931 439.431L687.013 411.599Z" fill="#BDBDBD"/>
		</g>
		<g opacity="0.25">
			<path opacity="0.25" d="M769.965 442.332C771.309 442.794 772.989 441.491 773.661 439.431C773.997 438.38 774.039 437.371 773.787 436.572C773.535 435.731 773.031 435.142 772.359 434.932C771.687 434.722 770.931 434.932 770.259 435.479C769.587 436.025 769.041 436.824 768.705 437.833C768.033 439.851 768.579 441.869 769.965 442.332Z" fill="#BDBDBD"/>
		</g>
		<g opacity="0.3">
			<path opacity="0.3" d="M683.863 425.431L762.783 456.584C763.203 456.752 763.413 457.257 763.245 457.677C763.077 458.098 762.573 458.308 762.153 458.14L683.863 425.431Z" fill="#BDBDBD"/>
		</g>
		<g opacity="0.3">
			<path opacity="0.3" d="M761.019 460.957C762.363 461.503 764.085 460.368 764.883 458.35C765.303 457.341 765.387 456.332 765.219 455.491C765.051 454.65 764.589 454.02 763.917 453.768C763.245 453.515 762.489 453.683 761.817 454.146C761.103 454.608 760.473 455.407 760.095 456.374C759.255 458.35 759.675 460.368 761.019 460.957Z" fill="#BDBDBD"/>
		</g>
		<g opacity="0.35">
			<path opacity="0.35" d="M679.621 439.095L752.87 474.621C753.291 474.831 753.459 475.335 753.249 475.756C753.039 476.176 752.534 476.345 752.114 476.134L679.621 439.095Z" fill="#BDBDBD"/>
		</g>
		<g opacity="0.35">
			<path opacity="0.35" d="M750.77 478.783C752.072 479.456 753.879 478.447 754.845 476.513C755.811 474.579 755.517 472.519 754.215 471.888C752.912 471.257 751.106 472.308 750.182 474.158C749.216 476.05 749.51 478.11 750.77 478.783Z" fill="#BDBDBD"/>
		</g>
		<g opacity="0.4">
			<path opacity="0.4" d="M674.16 452.548L741.698 491.774C742.118 492.026 742.244 492.531 741.992 492.909C741.74 493.33 741.236 493.456 740.858 493.204L674.16 452.548Z" fill="#BDBDBD"/>
		</g>
		<g opacity="0.4">
			<path opacity="0.4" d="M739.304 495.768C739.934 496.147 740.69 496.105 741.488 495.768C742.244 495.432 743 494.717 743.546 493.834C744.638 491.984 744.512 489.924 743.252 489.21C741.992 488.495 740.144 489.378 739.094 491.186C738.548 492.069 738.338 493.035 738.38 493.876C738.38 494.675 738.716 495.39 739.304 495.768Z" fill="#BDBDBD"/>
		</g>
		<g opacity="0.45">
			<path opacity="0.45" d="M667.608 465.624L729.392 508.003C729.77 508.255 729.854 508.801 729.602 509.18C729.35 509.558 728.804 509.642 728.426 509.39L667.608 465.624Z" fill="#BDBDBD"/>
		</g>
		<g opacity="0.45">
			<path opacity="0.45" d="M726.704 511.786C727.88 512.627 729.854 511.955 731.03 510.189C732.248 508.465 732.248 506.363 731.072 505.564C729.896 504.765 727.964 505.48 726.788 507.204C725.612 508.928 725.528 510.946 726.704 511.786Z" fill="#BDBDBD"/>
		</g>
		<g opacity="0.5">
			<path opacity="0.5" d="M659.88 478.32L715.952 523.306C716.33 523.601 716.372 524.147 716.078 524.483C715.784 524.862 715.238 524.904 714.902 524.61L659.88 478.32Z" fill="#BDBDBD"/>
		</g>
		<g opacity="0.5">
			<path opacity="0.5" d="M713.012 526.838C714.104 527.763 716.12 527.216 717.464 525.619C718.766 523.979 718.934 521.919 717.8 521.036C716.666 520.153 714.734 520.7 713.432 522.297C712.13 523.895 711.92 525.913 713.012 526.838Z" fill="#BDBDBD"/>
		</g>
		<g opacity="0.55">
			<path opacity="0.55" d="M651.102 490.429L701.545 537.517C701.881 537.853 701.923 538.358 701.587 538.694C701.251 539.03 700.747 539.072 700.411 538.736L651.102 490.429Z" fill="#BDBDBD"/>
		</g>
		<g opacity="0.55">
			<path opacity="0.55" d="M698.353 540.796C699.361 541.805 701.377 541.427 702.847 539.913C704.275 538.4 704.569 536.34 703.519 535.373C702.469 534.406 700.495 534.826 699.067 536.297C697.639 537.769 697.303 539.787 698.353 540.796Z" fill="#BDBDBD"/>
		</g>
		<g opacity="0.6">
			<path opacity="0.6" d="M641.274 501.864L686.173 550.592C686.509 550.928 686.467 551.475 686.131 551.769C685.795 552.106 685.249 552.064 684.955 551.727L641.274 501.864Z" fill="#BDBDBD"/>
		</g>
		<g opacity="0.6">
			<path opacity="0.6" d="M682.729 553.661C683.653 554.754 685.711 554.502 687.265 553.114C687.643 552.778 687.979 552.4 688.231 551.979C688.483 551.559 688.651 551.139 688.735 550.76C688.903 549.961 688.777 549.205 688.273 548.658C687.769 548.111 687.055 547.943 686.215 548.027C685.795 548.069 685.375 548.196 684.997 548.406C684.577 548.616 684.157 548.868 683.779 549.205C682.267 550.592 681.805 552.568 682.729 553.661Z" fill="#BDBDBD"/>
		</g>
		<g opacity="0.65">
			<path opacity="0.65" d="M630.438 512.585L669.918 562.532C670.212 562.91 670.128 563.415 669.792 563.709C669.414 564.004 668.91 563.919 668.616 563.583L630.438 512.585Z" fill="#BDBDBD"/>
		</g>
		<g opacity="0.65">
			<path opacity="0.65" d="M666.306 565.307C667.146 566.442 669.204 566.358 670.842 565.097C671.683 564.466 672.229 563.667 672.481 562.868C672.733 562.07 672.649 561.313 672.187 560.724C671.725 560.178 671.01 559.926 670.212 559.968C669.414 560.01 668.49 560.346 667.692 560.935C666.054 562.196 665.466 564.13 666.306 565.307Z" fill="#BDBDBD"/>
		</g>
		<g opacity="0.7">
			<path opacity="0.7" d="M618.677 522.465L652.908 573.211C653.16 573.589 653.076 574.136 652.698 574.388C652.32 574.64 651.774 574.556 651.522 574.178L618.677 522.465Z" fill="#BDBDBD"/>
		</g>
		<g opacity="0.7">
			<path opacity="0.7" d="M649.128 575.692C649.506 576.28 650.22 576.616 651.06 576.659C651.858 576.701 652.824 576.406 653.664 575.86C655.386 574.725 656.142 572.833 655.302 571.655C654.504 570.478 652.488 570.394 650.808 571.529C649.968 572.076 649.38 572.833 649.044 573.589C648.708 574.304 648.708 575.103 649.128 575.692Z" fill="#BDBDBD"/>
		</g>
		<g opacity="0.75">
			<path opacity="0.75" d="M606.035 531.42L635.183 582.671C635.393 583.091 635.267 583.596 634.847 583.806C634.427 584.016 633.923 583.89 633.713 583.47C633.713 583.47 633.713 583.469 633.713 583.427L606.035 531.42Z" fill="#BDBDBD"/>
		</g>
		<g opacity="0.75">
			<path opacity="0.75" d="M631.235 584.815C631.571 585.445 632.243 585.824 633.041 585.95C633.461 585.992 633.881 585.992 634.343 585.908C634.805 585.824 635.267 585.614 635.687 585.403C637.494 584.394 638.376 582.587 637.661 581.325C636.947 580.064 634.931 579.854 633.209 580.821C632.789 581.073 632.369 581.367 632.075 581.704C631.739 582.04 631.487 582.376 631.319 582.755C630.941 583.385 630.899 584.184 631.235 584.815Z" fill="#BDBDBD"/>
		</g>
		<g opacity="0.8">
			<path opacity="0.8" d="M592.636 539.324L616.913 590.743C617.123 591.163 616.913 591.668 616.493 591.878C616.073 592.088 615.569 591.878 615.359 591.457C615.359 591.457 615.359 591.457 615.359 591.415L592.636 539.324Z" fill="#BDBDBD"/>
		</g>
		<g opacity="0.8">
			<path opacity="0.8" d="M612.797 592.593C613.385 593.896 615.359 594.316 617.249 593.476C619.097 592.593 620.105 590.869 619.475 589.566C618.845 588.262 616.871 587.884 615.065 588.725C613.217 589.524 612.209 591.247 612.797 592.593Z" fill="#BDBDBD"/>
		</g>
		<g opacity="0.85">
			<path opacity="0.85" d="M578.524 546.135L598.096 597.47C598.264 597.89 598.054 598.395 597.592 598.563C597.172 598.731 596.668 598.521 596.5 598.058C596.5 598.058 596.5 598.058 596.5 598.016L578.524 546.135Z" fill="#BDBDBD"/>
		</g>
		<g opacity="0.85">
			<path opacity="0.85" d="M593.854 598.983C594.316 600.329 596.248 600.917 598.18 600.202C600.112 599.488 601.204 597.806 600.7 596.46C600.196 595.115 598.264 594.611 596.374 595.283C594.526 595.956 593.392 597.596 593.854 598.983Z" fill="#BDBDBD"/>
		</g>
		<g opacity="0.9">
			<path opacity="0.9" d="M563.823 551.769L578.86 602.767C578.986 603.229 578.734 603.692 578.272 603.818C577.81 603.944 577.348 603.692 577.222 603.229C577.222 603.229 577.222 603.229 577.222 603.187L563.823 551.769Z" fill="#BDBDBD"/>
		</g>
		<g opacity="0.9">
			<path opacity="0.9" d="M574.534 603.944C574.912 605.332 576.802 606.046 578.734 605.5C579.238 605.374 579.658 605.163 580.078 604.911C580.456 604.659 580.792 604.365 581.044 604.028C581.548 603.398 581.758 602.641 581.548 601.968C581.338 601.296 580.792 600.749 579.994 600.497C579.616 600.371 579.196 600.286 578.734 600.286C578.272 600.286 577.81 600.329 577.306 600.455C575.416 601.001 574.156 602.557 574.534 603.944Z" fill="#BDBDBD"/>
		</g>
		<g opacity="0.95">
			<path opacity="0.95" d="M548.577 556.184L559.329 606.677C559.413 607.139 559.119 607.602 558.699 607.686C558.237 607.77 557.775 607.476 557.691 607.055C557.691 607.055 557.691 607.055 557.691 607.013L548.577 556.184Z" fill="#BDBDBD"/>
		</g>
		<g opacity="0.95">
			<path opacity="0.95" d="M554.919 607.518C555.171 608.947 556.977 609.788 558.993 609.41C560.967 609.031 562.353 607.56 562.059 606.13C561.765 604.743 559.959 603.944 557.985 604.281C556.053 604.617 554.667 606.088 554.919 607.518Z" fill="#BDBDBD"/>
		</g>
		<path d="M532.953 559.295L539.589 609.073C539.631 609.536 539.337 609.956 538.875 610.04C538.413 610.124 537.993 609.788 537.909 609.326C537.909 609.326 537.909 609.326 537.909 609.284L532.953 559.295Z" fill="#BDBDBD"/>
		<path d="M535.137 609.62C535.263 611.05 537.027 612.016 539.043 611.806C540.051 611.68 540.933 611.302 541.521 610.755C542.109 610.209 542.445 609.494 542.319 608.779C542.235 608.064 541.731 607.476 541.017 607.097C540.303 606.719 539.379 606.509 538.413 606.635C536.481 606.845 535.011 608.191 535.137 609.62Z" fill="#BDBDBD"/>
		<path d="M516.992 561.145L519.722 610.082C519.764 610.545 519.386 610.965 518.924 610.965C518.462 611.007 518.042 610.629 518.042 610.167C518.042 610.167 518.042 610.167 518.042 610.125L516.992 561.145Z" fill="#BDBDBD"/>
		<path d="M515.312 610.251C515.354 611.68 516.992 612.815 519.008 612.731C521.024 612.647 522.578 611.428 522.494 609.956C522.41 608.527 520.772 607.434 518.798 607.518C516.824 607.602 515.27 608.821 515.312 610.251Z" fill="#BDBDBD"/>
		<path d="M500.906 561.649L499.94 609.704C499.94 610.167 499.562 610.545 499.1 610.545C498.638 610.545 498.26 610.167 498.26 609.704V609.662L500.906 561.649Z" fill="#BDBDBD"/>
		<path d="M495.488 609.494C495.404 610.923 496.958 612.185 498.974 612.227C500.99 612.311 502.628 611.218 502.67 609.746C502.712 608.317 501.116 607.098 499.184 607.013C497.21 606.971 495.572 608.064 495.488 609.494Z" fill="#BDBDBD"/>
		<path d="M484.735 560.808L480.157 607.854C480.115 608.317 479.695 608.653 479.233 608.611C478.771 608.569 478.435 608.148 478.477 607.686V607.644L484.735 560.808Z" fill="#BDBDBD"/>
		<path d="M475.789 607.308C475.579 608.737 477.049 610.082 479.065 610.335C481.081 610.545 482.803 609.578 482.929 608.148C483.055 606.719 481.585 605.374 479.653 605.163C477.679 604.953 475.957 605.92 475.789 607.308Z" fill="#BDBDBD"/>
		<path d="M468.691 558.622L460.584 604.575C460.5 605.037 460.08 605.332 459.618 605.247C459.156 605.163 458.862 604.743 458.946 604.281V604.238L468.691 558.622Z" fill="#BDBDBD"/>
		<path d="M456.216 603.734C456.048 604.449 456.342 605.163 456.888 605.752C457.434 606.341 458.274 606.803 459.24 606.971C461.215 607.35 463.021 606.509 463.273 605.079C463.525 603.65 462.181 602.22 460.249 601.842C459.282 601.674 458.358 601.8 457.644 602.094C456.93 602.473 456.384 603.019 456.216 603.734Z" fill="#BDBDBD"/>
		<path d="M452.856 555.048L441.264 599.908C441.138 600.371 440.676 600.623 440.256 600.497C439.836 600.371 439.542 599.908 439.668 599.488C439.668 599.488 439.668 599.488 439.668 599.446L452.856 555.048Z" fill="#BDBDBD"/>
		<path d="M437.022 598.689C436.812 599.362 437.022 600.118 437.526 600.749C437.778 601.085 438.114 601.38 438.492 601.632C438.87 601.884 439.332 602.052 439.794 602.22C441.726 602.767 443.616 602.052 443.952 600.665C444.33 599.277 443.07 597.722 441.18 597.217C440.718 597.091 440.214 597.049 439.794 597.049C439.332 597.049 438.912 597.133 438.534 597.259C437.778 597.47 437.19 597.974 437.022 598.689Z" fill="#BDBDBD"/>
		<path d="M437.358 550.172L422.322 593.812C422.154 594.232 421.692 594.485 421.229 594.316C420.809 594.148 420.557 593.686 420.725 593.223C420.725 593.223 420.725 593.223 420.725 593.181L437.358 550.172Z" fill="#BDBDBD"/>
		<path d="M418.163 592.256C417.659 593.602 418.752 595.283 420.642 595.998C422.532 596.671 424.464 596.124 424.926 594.737C425.388 593.391 424.296 591.752 422.448 591.079C420.6 590.406 418.71 590.911 418.163 592.256Z" fill="#BDBDBD"/>
		<path d="M422.322 543.907L403.883 586.328C403.715 586.749 403.211 586.959 402.791 586.749C402.371 586.581 402.161 586.076 402.371 585.656C402.371 585.656 402.371 585.656 402.371 585.614L422.322 543.907Z" fill="#BDBDBD"/>
		<path d="M399.851 584.478C399.221 585.782 400.187 587.506 402.035 588.388C402.959 588.809 403.883 588.935 404.681 588.725C405.479 588.557 406.109 588.136 406.403 587.464C406.697 586.791 406.571 586.034 406.193 585.361C405.773 584.689 405.101 584.058 404.219 583.638C402.413 582.797 400.481 583.175 399.851 584.478Z" fill="#BDBDBD"/>
		<path d="M407.831 536.423L385.949 577.499C385.739 577.92 385.235 578.088 384.815 577.836C384.395 577.625 384.227 577.121 384.479 576.7C384.479 576.7 384.479 576.7 384.479 576.658L407.831 536.423Z" fill="#BDBDBD"/>
		<path d="M382.084 575.355C381.37 576.616 382.21 578.424 383.932 579.391C384.815 579.896 385.739 580.064 386.537 579.98C387.335 579.854 388.007 579.475 388.343 578.845C388.679 578.214 388.637 577.457 388.301 576.743C387.965 576.028 387.335 575.313 386.453 574.851C384.773 573.842 382.798 574.094 382.084 575.355Z" fill="#BDBDBD"/>
		<path d="M394.055 527.679L368.728 567.367C368.476 567.745 367.972 567.871 367.552 567.619C367.174 567.367 367.048 566.862 367.3 566.442C367.3 566.442 367.3 566.442 367.3 566.4L394.055 527.679Z" fill="#BDBDBD"/>
		<path d="M365.032 564.929C364.234 566.106 364.906 567.998 366.586 569.091C368.266 570.184 370.24 570.1 371.038 568.881C371.794 567.661 371.122 565.811 369.484 564.718C367.804 563.709 365.872 563.751 365.032 564.929Z" fill="#BDBDBD"/>
		<path d="M381.077 517.841L352.222 556.057C351.928 556.436 351.424 556.52 351.046 556.226C350.668 555.931 350.584 555.427 350.878 555.048C350.878 555.048 350.878 555.048 350.878 555.006L381.077 517.841Z" fill="#BDBDBD"/>
		<path d="M348.736 553.283C347.811 554.418 348.358 556.352 349.954 557.571C351.55 558.79 353.566 558.874 354.406 557.697C355.288 556.562 354.7 554.628 353.146 553.451C351.634 552.274 349.66 552.147 348.736 553.283Z" fill="#BDBDBD"/>
		<path d="M368.98 506.868L336.555 543.487C336.261 543.823 335.715 543.865 335.379 543.571C335.043 543.276 335.001 542.73 335.295 542.394C335.295 542.394 335.295 542.394 335.295 542.352L368.98 506.868Z" fill="#BDBDBD"/>
		<path d="M333.279 540.46C332.271 541.511 332.691 543.487 334.161 544.832C334.875 545.505 335.757 545.925 336.597 546.009C337.395 546.093 338.151 545.883 338.613 545.337C339.075 544.79 339.243 544.033 339.075 543.277C338.907 542.478 338.445 541.679 337.731 541.006C336.261 539.661 334.287 539.409 333.279 540.46Z" fill="#BDBDBD"/>
		<path d="M357.892 494.969L321.771 529.781C321.435 530.117 320.889 530.075 320.595 529.739C320.259 529.402 320.301 528.856 320.637 528.562L357.892 494.969Z" fill="#BDBDBD"/>
		<path d="M318.747 526.501C317.655 527.468 317.907 529.444 319.293 530.916C320.679 532.387 322.611 532.766 323.661 531.757C324.669 530.748 324.417 528.772 323.073 527.342C321.771 525.955 319.797 525.534 318.747 526.501Z" fill="#BDBDBD"/>
		<path d="M347.895 482.146L307.952 514.982C307.574 515.276 307.07 515.234 306.776 514.856C306.482 514.477 306.524 513.973 306.902 513.678C306.902 513.678 306.902 513.678 306.944 513.678L347.895 482.146Z" fill="#BDBDBD"/>
		<path d="M305.18 511.492C304.592 511.913 304.34 512.669 304.382 513.468C304.382 513.889 304.508 514.309 304.634 514.73C304.802 515.15 305.054 515.57 305.348 515.949C306.608 517.546 308.54 518.051 309.674 517.168C310.766 516.243 310.682 514.267 309.422 512.711C309.128 512.333 308.75 511.997 308.372 511.744C307.994 511.492 307.616 511.282 307.238 511.198C306.524 510.946 305.768 511.03 305.18 511.492Z" fill="#BDBDBD"/>
		<path d="M339.075 468.567L295.184 499.174C294.806 499.426 294.26 499.342 294.008 498.963C293.756 498.585 293.84 498.039 294.218 497.786C294.218 497.786 294.218 497.786 294.26 497.786L339.075 468.567Z" fill="#BDBDBD"/>
		<path d="M292.706 495.432C291.488 496.231 291.446 498.249 292.538 499.93C293.672 501.612 295.604 502.285 296.78 501.486C297.956 500.645 297.998 498.669 296.864 497.03C295.772 495.39 293.924 494.675 292.706 495.432Z" fill="#BDBDBD"/>
		<path d="M331.473 454.356L283.55 482.441C283.13 482.693 282.626 482.525 282.416 482.146C282.206 481.768 282.332 481.221 282.71 480.969C282.71 480.969 282.71 480.969 282.752 480.969L331.473 454.356Z" fill="#BDBDBD"/>
		<path d="M281.366 478.489C280.106 479.161 279.896 481.179 280.862 482.987C281.828 484.795 283.718 485.594 284.936 484.879C286.196 484.164 286.364 482.188 285.398 480.423C284.432 478.657 282.626 477.774 281.366 478.489Z" fill="#BDBDBD"/>
		<path d="M325.215 439.557L273.091 464.741C272.671 464.951 272.167 464.783 271.957 464.362C271.747 463.942 271.915 463.437 272.335 463.227C272.335 463.227 272.335 463.227 272.377 463.227L325.215 439.557Z" fill="#BDBDBD"/>
		<path d="M271.201 460.621C270.529 460.915 270.109 461.545 269.941 462.386C269.773 463.185 269.941 464.152 270.361 465.077C271.243 466.927 272.965 467.936 274.267 467.305C275.569 466.675 275.906 464.699 275.065 462.891C274.645 461.966 273.973 461.293 273.301 460.873C272.629 460.452 271.873 460.326 271.201 460.621Z" fill="#BDBDBD"/>
		<path d="M320.301 424.38L263.935 446.242C263.515 446.41 263.011 446.2 262.843 445.779C262.675 445.359 262.885 444.854 263.305 444.686C263.305 444.686 263.305 444.686 263.347 444.686L320.301 424.38Z" fill="#BDBDBD"/>
		<path d="M262.339 441.953C261.667 442.206 261.205 442.794 260.953 443.593C260.743 444.392 260.785 445.359 261.121 446.326C261.835 448.26 263.515 449.395 264.859 448.89C266.203 448.386 266.707 446.41 265.993 444.518C265.615 443.593 265.069 442.794 264.397 442.332C263.767 441.911 263.011 441.701 262.339 441.953Z" fill="#BDBDBD"/>
		<path d="M316.731 408.908L255.997 426.986C255.535 427.112 255.073 426.86 254.947 426.398C254.821 425.935 255.073 425.473 255.535 425.347C255.535 425.347 255.535 425.347 255.577 425.347L316.731 408.908Z" fill="#BDBDBD"/>
		<path d="M254.821 422.572C253.435 422.95 252.721 424.884 253.267 426.86C253.855 428.836 255.451 430.139 256.837 429.719C258.223 429.299 258.853 427.407 258.307 425.431C257.761 423.497 256.207 422.235 254.821 422.572Z" fill="#BDBDBD"/>
		<path d="M314.631 393.268L249.571 407.1C249.109 407.184 248.647 406.89 248.563 406.469C248.479 406.007 248.773 405.544 249.193 405.46L314.631 393.268Z" fill="#BDBDBD"/>
		<path d="M248.689 402.601C247.261 402.854 246.421 404.746 246.841 406.764C246.925 407.268 247.093 407.731 247.303 408.151C247.513 408.571 247.807 408.908 248.101 409.202C248.689 409.791 249.445 410.043 250.117 409.875C250.831 409.707 251.377 409.16 251.671 408.445C251.839 408.067 251.923 407.647 251.965 407.184C252.007 406.722 252.007 406.217 251.881 405.713C251.545 403.737 250.075 402.307 248.689 402.601Z" fill="#BDBDBD"/>
		<path d="M313.875 377.586L244.489 386.625C244.027 386.667 243.607 386.373 243.523 385.91C243.481 385.448 243.775 385.028 244.237 384.943L313.875 377.586Z" fill="#BDBDBD"/>
		<path d="M243.985 382.043C242.557 382.169 241.591 383.976 241.843 386.079C241.969 387.13 242.347 388.013 242.893 388.643C243.439 389.274 244.153 389.61 244.867 389.484C245.581 389.4 246.169 388.895 246.547 388.139C246.925 387.424 247.135 386.457 247.009 385.406C246.757 383.43 245.413 381.916 243.985 382.043Z" fill="#BDBDBD"/>
		<path d="M314.547 362.03L240.919 365.73C240.457 365.772 240.037 365.394 240.037 364.931C239.995 364.469 240.373 364.048 240.835 364.048L314.547 362.03Z" fill="#BDBDBD"/>
		<path d="M240.751 361.105C239.322 361.147 238.188 362.871 238.272 364.973C238.356 367.075 239.575 368.715 241.045 368.631C242.473 368.547 243.565 366.823 243.481 364.763C243.439 362.745 242.179 361.105 240.751 361.105Z" fill="#BDBDBD"/>
		<path d="M316.605 346.685L238.861 344.498C238.399 344.498 238.021 344.078 238.021 343.615C238.021 343.153 238.441 342.775 238.903 342.775L316.605 346.685Z" fill="#BDBDBD"/>
		<path d="M239.028 339.874C237.6 339.79 236.34 341.471 236.256 343.573C236.172 345.718 237.264 347.441 238.734 347.483C240.162 347.525 241.381 345.844 241.465 343.784C241.549 341.681 240.456 339.916 239.028 339.874Z" fill="#BDBDBD"/>
		<path d="M319.923 331.759L238.272 322.972C237.81 322.93 237.474 322.51 237.516 322.048C237.558 321.585 237.979 321.249 238.441 321.291L319.923 331.759Z" fill="#BDBDBD"/>
		<path d="M238.818 318.306C238.104 318.222 237.39 318.558 236.844 319.189C236.298 319.819 235.878 320.744 235.752 321.837C235.5 323.981 236.466 325.831 237.894 325.957C239.322 326.084 240.666 324.528 240.918 322.426C241.044 321.375 240.834 320.408 240.456 319.651C240.12 318.936 239.532 318.39 238.818 318.306Z" fill="#BDBDBD"/>
		<path d="M324.585 317.339L239.28 301.194C238.818 301.11 238.524 300.648 238.608 300.227C238.692 299.807 239.154 299.471 239.574 299.555L324.585 317.339Z" fill="#BDBDBD"/>
		<path d="M240.205 296.612C239.49 296.443 238.776 296.738 238.146 297.326C237.852 297.621 237.558 297.999 237.348 298.419C237.138 298.84 236.97 299.344 236.844 299.891C236.424 302.035 237.264 303.969 238.65 304.221C240.078 304.474 241.549 303.002 241.927 300.9C242.011 300.395 242.053 299.849 242.011 299.386C241.969 298.924 241.885 298.462 241.717 298.083C241.465 297.326 240.919 296.738 240.205 296.612Z" fill="#BDBDBD"/>
		<path d="M330.423 303.633L241.885 279.416C241.423 279.29 241.171 278.828 241.297 278.365C241.423 277.903 241.885 277.65 242.347 277.776L330.423 303.633Z" fill="#BDBDBD"/>
		<path d="M243.229 274.834C241.843 274.413 240.205 275.8 239.617 277.903C239.029 280.005 239.701 282.023 241.087 282.401C242.473 282.78 244.069 281.392 244.615 279.332C245.203 277.23 244.573 275.254 243.229 274.834Z" fill="#BDBDBD"/>
		<path d="M337.437 290.642L246.127 257.596C245.707 257.428 245.455 256.965 245.623 256.503C245.791 256.082 246.253 255.83 246.715 255.998L337.437 290.642Z" fill="#BDBDBD"/>
		<path d="M247.849 253.097C246.505 252.593 244.783 253.812 243.985 255.872C243.607 256.881 243.523 257.932 243.733 258.773C243.943 259.614 244.405 260.245 245.077 260.497C245.749 260.749 246.505 260.539 247.177 260.034C247.849 259.53 248.437 258.689 248.857 257.68C249.655 255.704 249.193 253.644 247.849 253.097Z" fill="#BDBDBD"/>
		<path d="M345.543 278.533L252.049 235.986C251.629 235.776 251.419 235.271 251.629 234.851C251.839 234.43 252.343 234.22 252.763 234.43L345.543 278.533Z" fill="#BDBDBD"/>
		<path d="M254.065 231.572C252.763 230.941 250.957 232.076 249.991 234.094C249.529 235.103 249.361 236.154 249.487 236.995C249.613 237.836 250.033 238.551 250.705 238.845C251.377 239.139 252.133 239.013 252.847 238.551C253.561 238.088 254.275 237.331 254.737 236.322C255.661 234.346 255.367 232.202 254.065 231.572Z" fill="#BDBDBD"/>
		<path d="M354.615 267.392L259.567 214.628C259.147 214.418 259.021 213.871 259.231 213.493C259.441 213.073 259.987 212.947 260.365 213.157L354.615 267.392Z" fill="#BDBDBD"/>
		<path d="M262.003 210.382C260.785 209.667 258.811 210.634 257.719 212.61C256.627 214.586 256.753 216.73 258.013 217.403C259.273 218.076 261.163 217.067 262.255 215.175C263.305 213.241 263.221 211.097 262.003 210.382Z" fill="#BDBDBD"/>
		<path d="M364.57 257.26L268.723 193.649C268.345 193.397 268.219 192.85 268.471 192.472C268.723 192.093 269.269 191.967 269.647 192.219L364.57 257.26Z" fill="#BDBDBD"/>
		<path d="M271.495 189.571C270.319 188.73 268.303 189.571 267.043 191.463C265.783 193.355 265.741 195.541 266.959 196.34C268.177 197.138 270.151 196.256 271.369 194.406C272.629 192.556 272.713 190.412 271.495 189.571Z" fill="#BDBDBD"/>
		<path d="M375.28 248.262L279.518 173.174C279.14 172.88 279.098 172.375 279.392 171.997C279.686 171.619 280.19 171.576 280.568 171.871L375.28 248.262Z" fill="#BDBDBD"/>
		<path d="M282.626 169.306C281.534 168.381 279.434 169.096 278.006 170.904C277.628 171.366 277.376 171.829 277.166 172.291C276.956 172.754 276.83 173.258 276.788 173.679C276.704 174.562 276.956 175.318 277.502 175.781C278.09 176.201 278.888 176.243 279.686 175.949C280.106 175.781 280.526 175.571 280.904 175.276C281.324 174.982 281.702 174.604 282.08 174.183C283.508 172.375 283.76 170.231 282.626 169.306Z" fill="#BDBDBD"/>
		<path d="M386.621 240.443L291.908 153.33C291.572 152.994 291.53 152.489 291.866 152.153C292.202 151.816 292.706 151.774 293.042 152.111L386.621 240.443Z" fill="#BDBDBD"/>
		<path d="M295.352 149.672C294.302 148.663 292.16 149.21 290.606 150.933C289.01 152.615 288.59 154.801 289.682 155.768C290.732 156.735 292.874 156.147 294.428 154.465C295.94 152.825 296.36 150.639 295.352 149.672Z" fill="#BDBDBD"/>
		<path d="M398.423 233.884L305.852 134.2C305.516 133.864 305.558 133.318 305.894 133.023C306.23 132.687 306.776 132.729 307.07 133.065L398.423 233.884Z" fill="#BDBDBD"/>
		<path d="M309.59 130.795C309.128 130.248 308.33 130.08 307.448 130.248C306.566 130.417 305.558 130.921 304.718 131.72C302.996 133.318 302.408 135.462 303.374 136.513C304.382 137.564 306.524 137.143 308.204 135.546C309.044 134.747 309.632 133.822 309.884 132.981C310.178 132.098 310.094 131.3 309.59 130.795Z" fill="#BDBDBD"/>
		<path d="M410.603 228.544L321.351 115.87C321.057 115.491 321.141 114.987 321.477 114.693C321.855 114.398 322.359 114.482 322.653 114.819L410.603 228.544Z" fill="#BDBDBD"/>
		<path d="M325.425 112.759C324.543 111.624 322.317 111.834 320.427 113.305C318.537 114.777 317.781 116.921 318.705 118.014C319.629 119.149 321.813 118.855 323.661 117.383C325.467 115.996 326.265 113.894 325.425 112.759Z" fill="#BDBDBD"/>
		<path d="M422.994 224.592L338.361 98.5482C338.109 98.1698 338.193 97.6233 338.571 97.371C338.949 97.1188 339.495 97.2029 339.747 97.5812L422.994 224.592Z" fill="#BDBDBD"/>
		<path d="M342.687 95.6893C341.931 94.4701 339.621 94.5542 337.605 95.8995C335.589 97.2028 334.623 99.305 335.463 100.482C336.261 101.659 338.529 101.533 340.503 100.23C342.477 98.9266 343.485 96.9085 342.687 95.6893Z" fill="#BDBDBD"/>
		<path d="M435.468 221.902L356.884 82.2356C356.674 81.8152 356.8 81.3107 357.22 81.1005C357.64 80.8903 358.144 81.0164 358.354 81.4368L435.468 221.902Z" fill="#BDBDBD"/>
		<path d="M361.462 79.7131C361.126 79.0824 360.37 78.7461 359.446 78.704C358.522 78.662 357.43 78.9563 356.338 79.5449C354.196 80.7221 353.062 82.7401 353.776 83.9594C354.49 85.2207 356.758 85.2627 358.858 84.0855C359.908 83.4969 360.706 82.6981 361.168 81.8993C361.672 81.1425 361.798 80.3437 361.462 79.7131Z" fill="#BDBDBD"/>
		<path d="M447.858 220.556L376.792 67.1423C376.582 66.7219 376.792 66.2173 377.212 66.0071C377.632 65.7969 378.136 66.0071 378.346 66.4276L447.858 220.556Z" fill="#BDBDBD"/>
		<path d="M381.623 64.9561C381.328 64.2834 380.614 63.905 379.69 63.7789C378.766 63.6948 377.59 63.8629 376.498 64.4095C374.23 65.4606 372.928 67.3525 373.558 68.6558C374.188 69.9591 376.456 70.1694 378.682 69.1183C379.774 68.6138 380.698 67.899 381.245 67.1423C381.749 66.4276 381.917 65.6287 381.623 64.9561Z" fill="#BDBDBD"/>
		<path d="M459.997 220.514L396.911 53.7727C396.491 52.6796 397.037 51.4603 398.129 51.0399C399.221 50.6195 400.439 51.166 400.859 52.2591V52.3012L459.997 220.514Z" fill="#BDBDBD"/>
		<path d="M403.169 51.5444C402.707 50.199 400.397 49.7786 398.003 50.6195C395.651 51.5024 394.139 53.3102 394.643 54.6556C395.147 56.001 397.457 56.3793 399.767 55.4964C402.119 54.6976 403.631 52.9318 403.169 51.5444Z" fill="#BDBDBD"/>
		<path d="M471.841 221.733L419.466 41.3701C419.13 40.2349 419.802 39.0577 420.894 38.7634C422.028 38.4271 423.204 39.0998 423.498 40.1929V40.2349L471.841 221.733Z" fill="#BDBDBD"/>
		<path d="M425.934 39.6043C425.556 38.2169 423.288 37.6283 420.81 38.3009C420.18 38.4691 419.634 38.6793 419.13 38.9736C418.626 39.2679 418.206 39.5622 417.87 39.9406C417.197 40.6133 416.903 41.4121 417.071 42.0848C417.281 42.7575 417.954 43.262 418.878 43.4722C419.34 43.5983 419.844 43.6404 420.432 43.5983C420.978 43.5563 421.608 43.4722 422.196 43.304C424.632 42.6314 426.312 40.9917 425.934 39.6043Z" fill="#BDBDBD"/>
		<path d="M483.181 224.172L443.238 30.4389C442.986 29.3038 443.742 28.1686 444.876 27.9584C446.01 27.7062 447.144 28.4629 447.354 29.5981V29.6401L483.181 224.172Z" fill="#BDBDBD"/>
		<path d="M449.874 29.1777C449.622 27.7482 447.354 26.9914 444.792 27.496C443.532 27.7482 442.44 28.2527 441.684 28.8834C440.928 29.514 440.55 30.2708 440.718 30.9855C440.886 31.7002 441.516 32.2047 442.44 32.499C443.364 32.7933 444.54 32.8774 445.8 32.6252C448.278 32.1207 450.126 30.6071 449.874 29.1777Z" fill="#BDBDBD"/>
		<path d="M493.934 227.746L468.019 21.2316C467.893 20.0544 468.691 19.0033 469.867 18.8772C471.043 18.7511 472.093 19.5499 472.219 20.7271V20.7691L493.934 227.746Z" fill="#BDBDBD"/>
		<path d="M474.823 20.4328C474.697 19.0033 472.429 18.0784 469.825 18.3727C467.221 18.667 465.247 20.0964 465.415 21.5259C465.583 22.9553 467.851 23.8382 470.413 23.5439C473.017 23.2496 474.991 21.8622 474.823 20.4328Z" fill="#BDBDBD"/>
		<path d="M504.098 232.328L493.766 13.6639C493.724 12.4867 494.606 11.5197 495.782 11.4356C496.958 11.3936 497.924 12.2765 498.008 13.4537V13.4957L504.098 232.328Z" fill="#BDBDBD"/>
		<path d="M500.654 13.4537C500.612 11.9822 498.428 10.8891 495.782 11.0152C493.136 11.0993 491.036 12.3606 491.078 13.8321C491.162 15.2615 493.346 16.3546 495.95 16.2285C498.596 16.1444 500.696 14.8831 500.654 13.4537Z" fill="#BDBDBD"/>
		<path d="M513.506 237.92L520.31 7.98811C520.352 6.81091 521.318 5.88597 522.494 5.92801C523.67 5.97006 524.594 6.93704 524.552 8.11424V8.15628L513.506 237.92Z" fill="#BDBDBD"/>
		<path d="M527.283 8.28242C527.367 6.85297 525.224 5.54964 522.536 5.46556C519.848 5.38147 517.622 6.47458 517.58 7.90404C517.538 9.33349 519.68 10.5948 522.326 10.6789C524.972 10.7629 527.199 9.71188 527.283 8.28242Z" fill="#BDBDBD"/>
		<path d="M521.906 244.352L547.695 4.16224C547.821 2.98504 548.871 2.14419 550.005 2.27032C551.181 2.39644 552.021 3.44751 551.895 4.58267V4.62471L521.906 244.352Z" fill="#BDBDBD"/>
		<path d="M554.709 5.00309C554.793 4.28836 554.331 3.57364 553.491 2.98504C552.651 2.39644 551.433 1.97601 550.089 1.80784C547.359 1.4715 545.007 2.39644 544.839 3.82589C544.713 5.25535 546.771 6.64276 549.459 6.9791C550.803 7.14727 552.063 6.9791 553.029 6.64276C553.995 6.30642 554.625 5.71782 554.709 5.00309Z" fill="#BDBDBD"/>
		<g opacity="0.95">
			<path opacity="0.95" d="M529.172 251.542L575.794 2.31236C576.004 1.17721 577.096 0.420437 578.272 0.630651C579.406 0.840865 580.162 1.93398 579.952 3.11117V3.15322L529.172 251.542Z" fill="#BDBDBD"/>
		</g>
		<g opacity="0.95">
			<path opacity="0.95" d="M582.85 3.7418C583.144 2.31235 581.17 0.714725 578.398 0.168169C575.626 -0.378386 573.19 0.378383 572.938 1.76579C572.686 3.19525 574.702 4.75083 577.39 5.25534C580.12 5.8019 582.556 5.12921 582.85 3.7418Z" fill="#BDBDBD"/>
		</g>
		<g opacity="0.9">
			<path opacity="0.9" d="M535.347 259.362L604.48 2.60666C604.774 1.4715 605.951 0.798818 607.085 1.13516C608.219 1.42946 608.891 2.60666 608.555 3.74181V3.78385L535.347 259.362Z" fill="#BDBDBD"/>
		</g>
		<g opacity="0.9">
			<path opacity="0.9" d="M611.453 4.58267C611.663 3.90999 611.285 3.11118 610.529 2.39645C610.151 2.01806 609.647 1.68172 609.101 1.38742C608.555 1.09312 607.883 0.840867 607.211 0.672696C604.438 -0.0840738 601.918 0.462482 601.54 1.84989C601.162 3.2373 603.094 4.96106 605.825 5.71783C606.497 5.886 607.169 6.01213 607.799 6.05417C608.429 6.09621 609.017 6.05417 609.521 5.97008C610.529 5.71783 611.243 5.25536 611.453 4.58267Z" fill="#BDBDBD"/>
		</g>
		<g opacity="0.85">
			<path opacity="0.85" d="M540.303 267.644L633.545 5.0031C633.923 3.90999 635.141 3.32139 636.233 3.69977C637.325 4.07816 637.913 5.2974 637.535 6.39051V6.43255L540.303 267.644Z" fill="#BDBDBD"/>
		</g>
		<g opacity="0.85">
			<path opacity="0.85" d="M640.433 7.5677C640.937 6.22233 639.173 4.28837 636.401 3.27934C633.671 2.31236 631.025 2.60666 630.563 3.99407C630.101 5.33944 631.907 7.23136 634.595 8.19834C637.325 9.16533 639.929 8.91307 640.433 7.5677Z" fill="#BDBDBD"/>
		</g>
		<g opacity="0.8">
			<path opacity="0.8" d="M544.083 276.347L662.778 9.66984C663.24 8.61877 664.5 8.11425 665.55 8.61877C666.6 9.08124 667.104 10.3425 666.6 11.3936V11.4356L544.083 276.347Z" fill="#BDBDBD"/>
		</g>
		<g opacity="0.8">
			<path opacity="0.8" d="M669.54 12.781C670.17 11.4777 668.49 9.41758 665.802 8.15629C663.114 6.93705 660.426 7.06318 659.838 8.36651C659.25 9.71188 660.972 11.6879 663.618 12.9071C666.264 14.1264 668.91 14.0843 669.54 12.781Z" fill="#BDBDBD"/>
		</g>
		<g opacity="0.75">
			<path opacity="0.75" d="M546.603 285.26L692.095 16.5648C692.641 15.5558 693.943 15.1774 694.951 15.724C695.959 16.2705 696.337 17.5739 695.791 18.5829C695.791 18.5829 695.791 18.5829 695.791 18.6249L546.603 285.26Z" fill="#BDBDBD"/>
		</g>
		<g opacity="0.75">
			<path opacity="0.75" d="M698.647 20.2226C699.361 18.9613 697.807 16.7751 695.161 15.3036C694.489 14.9252 693.859 14.6729 693.187 14.4627C692.557 14.2525 691.927 14.1684 691.381 14.1264C690.289 14.0843 689.449 14.3786 689.113 15.0093C688.777 15.6399 688.987 16.5228 689.659 17.3636C689.995 17.7841 690.415 18.2465 690.919 18.667C691.423 19.0874 692.011 19.5078 692.641 19.8442C695.245 21.3157 697.933 21.4838 698.647 20.2226Z" fill="#BDBDBD"/>
		</g>
		<g opacity="0.7">
			<path opacity="0.7" d="M547.905 294.257L721.244 25.6881C721.874 24.7211 723.176 24.4268 724.142 25.0575C725.108 25.6881 725.402 26.9914 724.772 27.9584C724.772 27.9584 724.772 27.9584 724.772 28.0005L547.905 294.257Z" fill="#BDBDBD"/>
		</g>
		<g opacity="0.7">
			<path opacity="0.7" d="M727.586 29.8924C728.384 28.7152 726.998 26.3608 724.436 24.6791C723.134 23.8382 721.832 23.3337 720.74 23.1655C719.648 23.0394 718.766 23.2496 718.388 23.8382C718.01 24.4268 718.178 25.3097 718.766 26.2347C719.354 27.1596 720.32 28.1686 721.58 29.0095C724.1 30.6912 726.788 31.1116 727.586 29.8924Z" fill="#BDBDBD"/>
		</g>
		<g opacity="0.65">
			<path opacity="0.65" d="M547.947 303.212L750.057 37.1238C750.771 36.1988 752.073 36.0306 752.997 36.7033C753.921 37.4181 754.089 38.7214 753.417 39.6463C753.417 39.6463 753.417 39.6463 753.417 39.6884L547.947 303.212Z" fill="#BDBDBD"/>
		</g>
		<g opacity="0.65">
			<path opacity="0.65" d="M756.189 41.8746C756.651 41.328 756.567 40.4031 756.063 39.3941C755.559 38.385 754.593 37.2919 753.375 36.367C750.897 34.4751 748.167 33.8865 747.327 35.0216C746.487 36.1568 747.747 38.6373 750.183 40.4872C751.401 41.4121 752.703 42.0428 753.753 42.295C754.845 42.5473 755.727 42.4211 756.189 41.8746Z" fill="#BDBDBD"/>
		</g>
		<g opacity="0.6">
			<path opacity="0.6" d="M546.771 311.957L778.491 50.8297C779.247 49.9468 780.591 49.8627 781.473 50.6615C782.355 51.4183 782.439 52.7636 781.641 53.6465L546.771 311.957Z" fill="#BDBDBD"/>
		</g>
		<g opacity="0.6">
			<path opacity="0.6" d="M784.245 56.085C784.749 55.5385 784.707 54.6556 784.245 53.6045C784.035 53.058 783.699 52.5114 783.279 51.9648C782.859 51.4183 782.355 50.8297 781.767 50.3252C779.415 48.223 776.685 47.3822 775.761 48.4753C774.837 49.5684 775.971 52.133 778.281 54.1931C778.869 54.6976 779.457 55.1601 780.045 55.4964C780.633 55.8748 781.221 56.1271 781.767 56.2953C782.859 56.6736 783.783 56.6316 784.245 56.085Z" fill="#BDBDBD"/>
		</g>
		<g opacity="0.55">
			<path opacity="0.55" d="M544.335 320.366L806.254 66.848C807.094 66.0492 808.438 66.0492 809.236 66.89C810.034 67.7309 810.034 69.0762 809.194 69.875L544.335 320.366Z" fill="#BDBDBD"/>
		</g>
		<g opacity="0.55">
			<path opacity="0.55" d="M811.714 72.6078C812.764 71.6408 811.84 68.9081 809.614 66.5537C807.346 64.2413 804.7 63.1902 803.692 64.1993C802.684 65.2083 803.65 67.899 805.876 70.1693C808.018 72.4817 810.622 73.5748 811.714 72.6078Z" fill="#BDBDBD"/>
		</g>
		<g opacity="0.5">
			<path opacity="0.5" d="M540.723 328.27L833.261 85.1366C834.143 84.3798 835.487 84.5059 836.243 85.4309C836.999 86.3138 836.873 87.6592 835.949 88.4159L540.723 328.27Z" fill="#BDBDBD"/>
		</g>
		<g opacity="0.5">
			<path opacity="0.5" d="M838.343 91.3589C839.477 90.476 838.721 87.6592 836.621 85.0945C834.521 82.5299 831.875 81.2687 830.783 82.1936C829.691 83.1185 830.531 85.8934 832.589 88.4159C834.647 90.9385 837.209 92.2839 838.343 91.3589Z" fill="#BDBDBD"/>
		</g>
		<g opacity="0.45">
			<path opacity="0.45" d="M535.935 335.501L859.343 105.695C860.309 105.023 861.612 105.233 862.284 106.2C862.956 107.167 862.746 108.47 861.78 109.143L535.935 335.501Z" fill="#BDBDBD"/>
		</g>
		<g opacity="0.45">
			<path opacity="0.45" d="M864.006 112.38C865.182 111.581 864.636 108.681 862.704 105.906C860.772 103.131 858.21 101.617 857.076 102.458C855.9 103.299 856.572 106.158 858.462 108.891C860.31 111.624 862.788 113.221 864.006 112.38Z" fill="#BDBDBD"/>
		</g>
		<g opacity="0.4">
			<path opacity="0.4" d="M530.096 341.934L884.334 128.525C885.342 127.936 886.644 128.23 887.232 129.239C887.82 130.248 887.526 131.552 886.518 132.14L530.096 341.934Z" fill="#BDBDBD"/>
		</g>
		<g opacity="0.4">
			<path opacity="0.4" d="M888.492 135.672C889.752 134.957 889.333 131.972 887.61 128.987C886.728 127.516 885.678 126.338 884.712 125.624C883.704 124.909 882.78 124.657 882.192 125.035C881.562 125.414 881.394 126.338 881.562 127.516C881.73 128.693 882.276 130.206 883.158 131.636C884.88 134.579 887.274 136.387 888.492 135.672Z" fill="#BDBDBD"/>
		</g>
		<g opacity="0.35">
			<path opacity="0.35" d="M523.208 347.357L907.981 153.582C909.031 153.078 910.291 153.498 910.795 154.507C911.299 155.558 910.879 156.819 909.871 157.324L523.208 347.357Z" fill="#BDBDBD"/>
		</g>
		<g opacity="0.35">
			<path opacity="0.35" d="M911.677 161.15C912.979 160.519 912.811 157.45 911.215 154.297C909.661 151.144 907.309 149.126 906.049 149.798C904.789 150.471 904.999 153.498 906.553 156.609C908.107 159.72 910.375 161.738 911.677 161.15Z" fill="#BDBDBD"/>
		</g>
		<g opacity="0.3">
			<path opacity="0.3" d="M515.438 351.73L930.157 180.826C931.249 180.363 932.467 180.91 932.929 181.961C933.391 183.054 932.845 184.273 931.795 184.736L515.438 351.73Z" fill="#BDBDBD"/>
		</g>
		<g opacity="0.3">
			<path opacity="0.3" d="M933.308 188.772C933.98 188.52 934.316 187.595 934.358 186.333C934.358 185.072 934.022 183.475 933.35 181.793C932.006 178.471 929.822 176.243 928.478 176.79C927.134 177.336 927.175 180.448 928.519 183.727C929.191 185.367 930.073 186.754 930.914 187.637C931.796 188.604 932.636 189.024 933.308 188.772Z" fill="#BDBDBD"/>
		</g>
		<g opacity="0.25">
			<path opacity="0.25" d="M510.608 353.706L950.654 210.13C951.746 209.751 952.964 210.382 953.3 211.475C953.678 212.568 953.048 213.787 951.956 214.124L510.608 353.706Z" fill="#BDBDBD"/>
		</g>
		<g opacity="0.25">
			<path opacity="0.25" d="M953.258 218.412C953.93 218.202 954.35 217.319 954.476 216.016C954.56 214.712 954.35 213.073 953.804 211.307C952.67 207.817 950.654 205.379 949.268 205.841C947.924 206.304 947.714 209.457 948.848 212.905C949.394 214.628 950.192 216.1 950.99 217.109C951.746 218.118 952.586 218.622 953.258 218.412Z" fill="#BDBDBD"/>
		</g>
		<g opacity="0.2">
			<path opacity="0.2" d="M510.356 353.748L969.261 241.41C970.395 241.115 971.529 241.83 971.823 242.965C972.117 244.1 971.403 245.235 970.269 245.53L510.356 353.748Z" fill="#BDBDBD"/>
		</g>
		<g opacity="0.2">
			<path opacity="0.2" d="M971.319 249.986C972.705 249.692 973.209 246.455 972.327 242.839C971.445 239.223 969.597 236.575 968.211 236.911C966.825 237.289 966.405 240.443 967.287 244.058C968.127 247.632 969.891 250.323 971.319 249.986Z" fill="#BDBDBD"/>
		</g>
		<g opacity="0.15">
			<path opacity="0.15" d="M509.39 353.958L985.893 274.497C987.027 274.287 988.119 275.086 988.329 276.221C988.539 277.356 987.741 278.449 986.607 278.659L509.39 353.958Z" fill="#BDBDBD"/>
		</g>
		<g opacity="0.15">
			<path opacity="0.15" d="M987.279 283.326C987.993 283.242 988.539 282.359 988.833 281.056C989.127 279.752 989.127 278.029 988.833 276.137C988.203 272.395 986.565 269.536 985.137 269.788C983.709 270.041 983.079 273.236 983.709 276.936C984.003 278.786 984.591 280.425 985.221 281.56C985.809 282.78 986.565 283.41 987.279 283.326Z" fill="#BDBDBD"/>
		</g>
		<g opacity="0.1">
			<path opacity="0.1" d="M507.458 354.168L1000.3 309.14C1001.48 309.014 1002.48 309.897 1002.61 311.032C1002.74 312.21 1001.85 313.219 1000.72 313.345L507.458 354.168Z" fill="#BDBDBD"/>
		</g>
		<g opacity="0.1">
			<path opacity="0.1" d="M1001.01 318.18C1001.73 318.138 1002.32 317.297 1002.69 315.993C1003.07 314.69 1003.2 312.924 1003.03 311.032C1002.69 307.164 1001.22 304.179 999.795 304.348C998.367 304.516 997.485 307.711 997.821 311.495C997.989 313.387 998.409 315.11 998.997 316.288C999.627 317.507 1000.3 318.222 1001.01 318.18Z" fill="#BDBDBD"/>
		</g>
		<g opacity="0.05">
			<path opacity="0.05" d="M504.392 354.336L1012.35 345.171C1013.53 345.171 1014.5 346.096 1014.5 347.231C1014.5 348.408 1013.57 349.375 1012.44 349.375L504.392 354.336Z" fill="#BDBDBD"/>
		</g>
		<g opacity="0.05">
			<path opacity="0.05" d="M1012.48 354.336C1013.91 354.336 1015.08 351.183 1015 347.273C1014.96 343.363 1013.7 340.21 1012.27 340.252C1010.84 340.294 1009.75 343.447 1009.79 347.315C1009.83 351.183 1011.05 354.294 1012.48 354.336Z" fill="#BDBDBD"/>
		</g>
		<g opacity="0.05">
			<path opacity="0.05" d="M326.811 351.141L223.068 350.552C222.606 350.552 222.228 350.174 222.228 349.712C222.228 349.249 222.606 348.871 223.068 348.871L326.811 351.141Z" fill="#BDBDBD"/>
		</g>
		<g opacity="0.05">
			<path opacity="0.05" d="M223.152 345.717C221.682 345.675 220.506 347.441 220.464 349.67C220.422 351.898 221.598 353.706 223.026 353.706C224.454 353.706 225.63 351.94 225.672 349.754C225.714 347.567 224.58 345.76 223.152 345.717Z" fill="#BDBDBD"/>
		</g>
		<g opacity="0.1">
			<path opacity="0.1" d="M325.467 337.687L226.008 329.867C225.546 329.825 225.21 329.405 225.252 328.943C225.294 328.48 225.714 328.144 226.176 328.186L325.467 337.687Z" fill="#BDBDBD"/>
		</g>
		<g opacity="0.1">
			<path opacity="0.1" d="M226.47 325.075C225.042 324.906 223.698 326.588 223.53 328.816C223.446 329.909 223.656 330.961 224.034 331.675C224.454 332.432 225.084 332.937 225.798 332.979C226.512 333.021 227.184 332.642 227.73 331.97C228.276 331.297 228.654 330.33 228.738 329.279C228.906 327.093 227.898 325.243 226.47 325.075Z" fill="#BDBDBD"/>
		</g>
		<g opacity="0.15">
			<path opacity="0.15" d="M325.215 324.024L230.46 309.519C229.998 309.435 229.662 309.014 229.746 308.552C229.83 308.089 230.25 307.753 230.712 307.837L325.215 324.024Z" fill="#BDBDBD"/>
		</g>
		<g opacity="0.15">
			<path opacity="0.15" d="M231.258 304.768C229.83 304.516 228.402 306.071 228.024 308.257C227.856 309.351 227.982 310.36 228.318 311.158C228.696 311.957 229.284 312.462 229.998 312.588C230.712 312.672 231.426 312.336 231.972 311.705C232.56 311.074 232.98 310.149 233.148 309.098C233.526 306.954 232.644 305.062 231.258 304.768Z" fill="#BDBDBD"/>
		</g>
		<g opacity="0.2">
			<path opacity="0.2" d="M326.055 310.233L236.34 289.548C235.878 289.464 235.584 289.002 235.71 288.539C235.794 288.077 236.256 287.783 236.718 287.909L326.055 310.233Z" fill="#BDBDBD"/>
		</g>
		<g opacity="0.2">
			<path opacity="0.2" d="M237.432 284.924C236.046 284.545 234.492 286.017 233.988 288.119C233.442 290.263 234.24 292.239 235.626 292.533C237.012 292.828 238.525 291.398 239.071 289.338C239.575 287.278 238.861 285.302 237.432 284.924Z" fill="#BDBDBD"/>
		</g>
		<g opacity="0.25">
			<path opacity="0.25" d="M328.029 296.401L243.607 270.167C243.145 270.041 242.893 269.536 243.061 269.116C243.187 268.653 243.691 268.401 244.111 268.569L328.029 296.401Z" fill="#BDBDBD"/>
		</g>
		<g opacity="0.25">
			<path opacity="0.25" d="M245.035 265.668C243.691 265.206 242.011 266.509 241.339 268.569C241.003 269.62 240.961 270.629 241.213 271.428C241.465 272.269 241.969 272.857 242.641 273.068C243.313 273.278 244.069 273.068 244.741 272.521C245.413 271.975 245.959 271.176 246.295 270.167C246.967 268.149 246.421 266.131 245.035 265.668Z" fill="#BDBDBD"/>
		</g>
		<g opacity="0.3">
			<path opacity="0.3" d="M331.137 282.611L252.217 251.416C251.797 251.248 251.587 250.743 251.755 250.323C251.923 249.902 252.427 249.692 252.847 249.86L331.137 282.611Z" fill="#BDBDBD"/>
		</g>
		<g opacity="0.3">
			<path opacity="0.3" d="M253.981 247.043C252.637 246.497 250.915 247.632 250.117 249.65C249.697 250.659 249.613 251.668 249.781 252.509C249.949 253.35 250.411 253.98 251.083 254.233C251.755 254.485 252.511 254.317 253.183 253.854C253.897 253.392 254.527 252.593 254.905 251.626C255.745 249.65 255.325 247.632 253.981 247.043Z" fill="#BDBDBD"/>
		</g>
		<g opacity="0.35">
			<path opacity="0.35" d="M335.421 268.905L262.171 233.379C261.751 233.169 261.583 232.665 261.793 232.244C262.003 231.824 262.507 231.656 262.927 231.866L335.421 268.905Z" fill="#BDBDBD"/>
		</g>
		<g opacity="0.35">
			<path opacity="0.35" d="M264.229 229.217C262.927 228.544 261.121 229.553 260.155 231.487C259.189 233.421 259.483 235.481 260.785 236.112C262.087 236.743 263.893 235.692 264.817 233.842C265.783 231.95 265.489 229.89 264.229 229.217Z" fill="#BDBDBD"/>
		</g>
		<g opacity="0.4">
			<path opacity="0.4" d="M340.839 255.494L273.301 216.268C272.881 216.016 272.755 215.511 273.007 215.133C273.259 214.712 273.764 214.586 274.142 214.838L340.839 255.494Z" fill="#BDBDBD"/>
		</g>
		<g opacity="0.4">
			<path opacity="0.4" d="M275.696 212.232C275.066 211.853 274.31 211.895 273.512 212.232C272.756 212.568 271.999 213.283 271.453 214.166C270.361 216.016 270.487 218.076 271.747 218.791C273.008 219.505 274.856 218.622 275.906 216.814C276.452 215.932 276.662 214.965 276.62 214.124C276.662 213.325 276.326 212.61 275.696 212.232Z" fill="#BDBDBD"/>
		</g>
		<g opacity="0.45">
			<path opacity="0.45" d="M347.434 242.376L285.608 199.997C285.23 199.745 285.146 199.199 285.398 198.82C285.65 198.442 286.196 198.358 286.574 198.61L347.434 242.376Z" fill="#BDBDBD"/>
		</g>
		<g opacity="0.45">
			<path opacity="0.45" d="M288.296 196.214C287.12 195.373 285.146 196.045 283.97 197.811C282.752 199.535 282.752 201.637 283.928 202.436C285.104 203.235 287.036 202.52 288.212 200.796C289.388 199.072 289.472 197.054 288.296 196.214Z" fill="#BDBDBD"/>
		</g>
		<g opacity="0.5">
			<path opacity="0.5" d="M355.12 229.722L299.048 184.694C298.67 184.4 298.628 183.853 298.922 183.517C299.216 183.138 299.762 183.096 300.098 183.391L355.12 229.722Z" fill="#BDBDBD"/>
		</g>
		<g opacity="0.5">
			<path opacity="0.5" d="M301.988 181.162C300.896 180.237 298.88 180.784 297.536 182.381C296.234 184.021 296.066 186.081 297.2 186.964C298.334 187.847 300.266 187.3 301.568 185.703C302.87 184.105 303.08 182.087 301.988 181.162Z" fill="#BDBDBD"/>
		</g>
		<g opacity="0.55">
			<path opacity="0.55" d="M363.898 217.571L313.454 170.483C313.118 170.147 313.076 169.643 313.412 169.306C313.748 168.97 314.252 168.928 314.588 169.264L363.898 217.571Z" fill="#BDBDBD"/>
		</g>
		<g opacity="0.55">
			<path opacity="0.55" d="M316.647 167.204C315.639 166.195 313.623 166.573 312.152 168.087C310.724 169.6 310.43 171.661 311.48 172.628C312.53 173.595 314.505 173.174 315.933 171.703C317.361 170.231 317.697 168.213 316.647 167.204Z" fill="#BDBDBD"/>
		</g>
		<g opacity="0.6">
			<path opacity="0.6" d="M373.768 206.136L328.827 157.408C328.491 157.072 328.533 156.525 328.869 156.231C329.205 155.937 329.751 155.937 330.045 156.273L373.768 206.136Z" fill="#BDBDBD"/>
		</g>
		<g opacity="0.6">
			<path opacity="0.6" d="M332.271 154.381C331.347 153.288 329.289 153.54 327.735 154.928C327.357 155.264 327.021 155.642 326.769 156.063C326.517 156.483 326.349 156.904 326.265 157.282C326.097 158.081 326.223 158.838 326.727 159.384C327.231 159.931 327.945 160.099 328.785 160.015C329.205 159.973 329.625 159.847 330.003 159.636C330.423 159.426 330.843 159.174 331.221 158.838C332.733 157.408 333.195 155.432 332.271 154.381Z" fill="#BDBDBD"/>
		</g>
		<g opacity="0.65">
			<path opacity="0.65" d="M384.563 195.415L345.082 145.468C344.788 145.09 344.872 144.585 345.208 144.291C345.586 143.996 346.09 144.081 346.384 144.417L384.563 195.415Z" fill="#BDBDBD"/>
		</g>
		<g opacity="0.65">
			<path opacity="0.65" d="M348.694 142.693C347.854 141.558 345.796 141.642 344.158 142.903C343.318 143.534 342.772 144.333 342.519 145.132C342.267 145.93 342.351 146.687 342.814 147.276C343.276 147.822 343.99 148.075 344.788 148.033C345.586 147.99 346.51 147.654 347.308 147.066C348.946 145.804 349.576 143.87 348.694 142.693Z" fill="#BDBDBD"/>
		</g>
		<g opacity="0.7">
			<path opacity="0.7" d="M396.323 185.535L362.092 134.789C361.84 134.411 361.924 133.864 362.302 133.612C362.68 133.36 363.226 133.444 363.478 133.822L396.323 185.535Z" fill="#BDBDBD"/>
		</g>
		<g opacity="0.7">
			<path opacity="0.7" d="M365.914 132.309C365.536 131.72 364.822 131.384 363.982 131.342C363.184 131.3 362.218 131.594 361.378 132.14C359.656 133.276 358.9 135.167 359.74 136.345C360.538 137.522 362.554 137.606 364.234 136.471C365.074 135.924 365.662 135.167 365.998 134.411C366.292 133.696 366.292 132.897 365.914 132.309Z" fill="#BDBDBD"/>
		</g>
		<g opacity="0.75">
			<path opacity="0.75" d="M408.965 176.622L379.816 125.372C379.606 124.951 379.732 124.447 380.152 124.236C380.572 124.026 381.076 124.152 381.286 124.573C381.286 124.573 381.286 124.573 381.286 124.615L408.965 176.622Z" fill="#BDBDBD"/>
		</g>
		<g opacity="0.75">
			<path opacity="0.75" d="M383.764 123.185C383.428 122.555 382.756 122.176 381.958 122.05C381.538 122.008 381.118 122.008 380.656 122.092C380.194 122.176 379.732 122.386 379.312 122.597C377.506 123.606 376.624 125.414 377.338 126.675C378.052 127.936 380.068 128.146 381.79 127.179C382.21 126.927 382.63 126.633 382.924 126.296C383.26 125.96 383.512 125.624 383.68 125.245C384.058 124.615 384.1 123.858 383.764 123.185Z" fill="#BDBDBD"/>
		</g>
		<g opacity="0.8">
			<path opacity="0.8" d="M422.364 168.676L398.087 117.257C397.877 116.837 398.087 116.332 398.507 116.122C398.927 115.912 399.431 116.122 399.641 116.543C399.641 116.543 399.641 116.543 399.641 116.585L422.364 168.676Z" fill="#BDBDBD"/>
		</g>
		<g opacity="0.8">
			<path opacity="0.8" d="M402.245 115.449C401.657 114.146 399.683 113.726 397.793 114.567C395.945 115.449 394.937 117.173 395.567 118.476C396.197 119.78 398.171 120.158 399.977 119.317C401.783 118.476 402.791 116.753 402.245 115.449Z" fill="#BDBDBD"/>
		</g>
		<g opacity="0.85">
			<path opacity="0.85" d="M436.476 161.865L416.903 110.53C416.735 110.11 416.945 109.605 417.407 109.437C417.827 109.269 418.331 109.479 418.499 109.942C418.499 109.942 418.499 109.942 418.499 109.984L436.476 161.865Z" fill="#BDBDBD"/>
		</g>
		<g opacity="0.85">
			<path opacity="0.85" d="M421.145 109.059C420.683 107.714 418.751 107.125 416.819 107.84C414.887 108.554 413.795 110.236 414.299 111.581C414.803 112.927 416.735 113.431 418.625 112.759C420.473 112.044 421.649 110.404 421.145 109.059Z" fill="#BDBDBD"/>
		</g>
		<g opacity="0.9">
			<path opacity="0.9" d="M451.219 156.231L436.182 105.233C436.056 104.771 436.308 104.308 436.77 104.182C437.232 104.056 437.694 104.308 437.82 104.771C437.82 104.771 437.82 104.771 437.82 104.813L451.219 156.231Z" fill="#BDBDBD"/>
		</g>
		<g opacity="0.9">
			<path opacity="0.9" d="M440.466 104.056C440.088 102.668 438.198 101.954 436.266 102.5C435.762 102.626 435.342 102.837 434.922 103.089C434.544 103.341 434.208 103.635 433.956 103.972C433.452 104.602 433.242 105.359 433.452 106.032C433.662 106.705 434.208 107.251 435.006 107.503C435.384 107.629 435.804 107.714 436.266 107.714C436.728 107.714 437.19 107.671 437.694 107.545C439.584 106.999 440.844 105.443 440.466 104.056Z" fill="#BDBDBD"/>
		</g>
		<g opacity="0.95">
			<path opacity="0.95" d="M466.423 151.816L455.713 101.365C455.629 100.903 455.923 100.44 456.343 100.356C456.805 100.272 457.267 100.566 457.351 100.987C457.351 100.987 457.351 100.987 457.351 101.029L466.423 151.816Z" fill="#BDBDBD"/>
		</g>
		<g opacity="0.95">
			<path opacity="0.95" d="M460.081 100.524C459.829 99.0948 458.023 98.2539 456.007 98.6323C454.032 99.0107 452.646 100.482 452.94 101.912C453.234 103.299 455.041 104.098 457.015 103.762C458.947 103.383 460.333 101.912 460.081 100.524Z" fill="#BDBDBD"/>
		</g>
		<path d="M482.047 148.705L475.411 98.9266C475.369 98.4641 475.663 98.0437 476.125 97.9596C476.587 97.9176 477.007 98.2119 477.091 98.6743C477.091 98.6743 477.091 98.6743 477.091 98.7164L482.047 148.705Z" fill="#BDBDBD"/>
		<path d="M479.863 98.4221C479.737 96.9926 477.973 96.0256 475.957 96.2358C474.949 96.362 474.067 96.7404 473.479 97.2869C472.891 97.8335 472.555 98.5482 472.681 99.2629C472.765 99.9777 473.269 100.566 473.983 100.945C474.697 101.323 475.621 101.533 476.587 101.407C478.519 101.197 479.989 99.8515 479.863 98.4221Z" fill="#BDBDBD"/>
		<path d="M498.008 146.855L495.278 97.9176C495.236 97.4551 495.614 97.0347 496.076 97.0347C496.538 96.9926 496.958 97.371 496.958 97.8335C496.958 97.8335 496.958 97.8335 496.958 97.8755L498.008 146.855Z" fill="#BDBDBD"/>
		<path d="M499.688 97.7494C499.646 96.32 498.008 95.1848 495.992 95.2689C493.976 95.353 492.422 96.5722 492.506 98.0437C492.59 99.4732 494.228 100.566 496.202 100.482C498.176 100.398 499.73 99.1789 499.688 97.7494Z" fill="#BDBDBD"/>
		<path d="M514.136 146.351L515.102 98.296C515.102 97.8335 515.48 97.4551 515.942 97.4551C516.404 97.4551 516.782 97.8335 516.782 98.296C516.782 98.296 516.782 98.296 516.782 98.338L514.136 146.351Z" fill="#BDBDBD"/>
		<path d="M519.512 98.5062C519.596 97.0767 518.042 95.8154 516.026 95.7734C514.01 95.6893 512.372 96.7824 512.33 98.2539C512.288 99.6834 513.884 100.903 515.816 100.987C517.79 101.029 519.428 99.9356 519.512 98.5062Z" fill="#BDBDBD"/>
		<path d="M530.265 147.192L534.843 100.146C534.885 99.6834 535.305 99.347 535.767 99.3891C536.229 99.4311 536.565 99.8516 536.523 100.314V100.356L530.265 147.192Z" fill="#BDBDBD"/>
		<path d="M539.253 100.692C539.463 99.263 537.993 97.9176 535.977 97.6653C533.961 97.4551 532.239 98.4221 532.113 99.8515C531.987 101.281 533.457 102.626 535.389 102.837C537.321 103.047 539.043 102.08 539.253 100.692Z" fill="#BDBDBD"/>
		<path d="M546.309 149.378L554.415 103.425C554.499 102.963 554.919 102.668 555.381 102.752C555.843 102.837 556.137 103.257 556.053 103.719V103.762L546.309 149.378Z" fill="#BDBDBD"/>
		<path d="M558.783 104.308C558.951 103.593 558.657 102.879 558.111 102.29C557.565 101.701 556.725 101.239 555.759 101.071C553.785 100.692 551.979 101.533 551.727 102.963C551.475 104.392 552.819 105.822 554.751 106.2C555.717 106.368 556.641 106.242 557.355 105.948C558.111 105.569 558.615 104.981 558.783 104.308Z" fill="#BDBDBD"/>
		<path d="M562.144 152.952L573.736 108.092C573.862 107.629 574.324 107.377 574.744 107.503C575.206 107.629 575.458 108.092 575.332 108.512C575.332 108.512 575.332 108.512 575.332 108.554L562.144 152.952Z" fill="#BDBDBD"/>
		<path d="M578.02 109.311C578.23 108.638 578.02 107.882 577.516 107.251C577.264 106.915 576.928 106.62 576.55 106.368C576.172 106.116 575.71 105.948 575.248 105.78C573.316 105.233 571.426 105.948 571.09 107.335C570.712 108.723 571.972 110.278 573.862 110.783C574.324 110.909 574.828 110.951 575.248 110.951C575.71 110.951 576.13 110.867 576.508 110.741C577.222 110.53 577.81 110.026 578.02 109.311Z" fill="#BDBDBD"/>
		<path d="M577.642 157.828L592.678 114.188C592.846 113.768 593.308 113.515 593.77 113.684C594.19 113.852 594.442 114.314 594.274 114.777C594.274 114.777 594.274 114.777 594.274 114.819L577.642 157.828Z" fill="#BDBDBD"/>
		<path d="M596.837 115.744C597.341 114.398 596.248 112.717 594.358 112.002C592.468 111.329 590.536 111.876 590.074 113.263C589.612 114.609 590.704 116.248 592.552 116.921C594.4 117.636 596.332 117.089 596.837 115.744Z" fill="#BDBDBD"/>
		<path d="M592.678 164.093L611.117 121.672C611.285 121.251 611.789 121.041 612.209 121.251C612.629 121.419 612.839 121.924 612.629 122.344C612.629 122.344 612.629 122.344 612.629 122.386L592.678 164.093Z" fill="#BDBDBD"/>
		<path d="M615.149 123.564C615.779 122.26 614.813 120.537 612.965 119.654C612.041 119.233 611.117 119.107 610.319 119.317C609.521 119.485 608.891 119.906 608.597 120.579C608.303 121.251 608.429 122.008 608.807 122.681C609.227 123.353 609.899 123.984 610.781 124.404C612.587 125.245 614.561 124.867 615.149 123.564Z" fill="#BDBDBD"/>
		<path d="M607.169 171.576L629.051 130.501C629.261 130.08 629.765 129.912 630.185 130.164C630.605 130.375 630.773 130.879 630.521 131.3C630.521 131.3 630.521 131.3 630.521 131.342L607.169 171.576Z" fill="#BDBDBD"/>
		<path d="M632.915 132.687C633.629 131.426 632.789 129.618 631.067 128.651C630.185 128.146 629.261 127.978 628.463 128.062C627.665 128.188 626.993 128.567 626.657 129.197C626.321 129.828 626.363 130.585 626.699 131.3C627.035 132.014 627.665 132.729 628.547 133.191C630.227 134.158 632.201 133.906 632.915 132.687Z" fill="#BDBDBD"/>
		<path d="M620.945 180.321L646.272 140.633C646.524 140.255 647.028 140.128 647.448 140.381C647.826 140.633 647.952 141.138 647.7 141.558C647.7 141.558 647.7 141.558 647.7 141.6L620.945 180.321Z" fill="#BDBDBD"/>
		<path d="M649.968 143.071C650.766 141.894 650.094 140.002 648.414 138.909C646.734 137.816 644.76 137.9 643.962 139.119C643.206 140.339 643.878 142.189 645.516 143.282C647.196 144.333 649.128 144.291 649.968 143.071Z" fill="#BDBDBD"/>
		<path d="M633.966 190.201L662.82 151.985C663.114 151.606 663.618 151.522 663.996 151.816C664.374 152.111 664.458 152.615 664.164 152.994C664.164 152.994 664.164 152.994 664.164 153.036L633.966 190.201Z" fill="#BDBDBD"/>
		<path d="M666.264 154.717C667.188 153.582 666.642 151.648 665.046 150.429C663.45 149.21 661.434 149.126 660.594 150.303C659.712 151.438 660.3 153.372 661.854 154.549C663.366 155.768 665.34 155.853 666.264 154.717Z" fill="#BDBDBD"/>
		<path d="M646.02 201.133L678.445 164.513C678.739 164.177 679.285 164.135 679.621 164.429C679.957 164.724 679.999 165.27 679.705 165.606C679.705 165.606 679.705 165.606 679.705 165.648L646.02 201.133Z" fill="#BDBDBD"/>
		<path d="M681.721 167.54C682.729 166.489 682.309 164.513 680.839 163.168C680.125 162.495 679.243 162.075 678.403 161.991C677.605 161.907 676.849 162.117 676.387 162.663C675.925 163.21 675.757 163.967 675.925 164.724C676.093 165.522 676.555 166.321 677.269 166.994C678.739 168.339 680.713 168.591 681.721 167.54Z" fill="#BDBDBD"/>
		<path d="M657.108 213.073L693.229 178.261C693.565 177.925 694.111 177.967 694.405 178.303C694.741 178.64 694.699 179.186 694.363 179.481L657.108 213.073Z" fill="#BDBDBD"/>
		<path d="M696.253 181.499C697.345 180.532 697.093 178.556 695.707 177.084C694.321 175.613 692.389 175.234 691.339 176.243C690.331 177.252 690.583 179.228 691.927 180.658C693.229 182.045 695.203 182.466 696.253 181.499Z" fill="#BDBDBD"/>
		<path d="M667.104 225.854L707.048 193.018C707.426 192.724 707.93 192.766 708.224 193.144C708.518 193.523 708.476 194.027 708.098 194.322C708.098 194.322 708.098 194.322 708.056 194.322L667.104 225.854Z" fill="#BDBDBD"/>
		<path d="M709.82 196.508C710.408 196.087 710.66 195.331 710.618 194.532C710.618 194.111 710.492 193.691 710.366 193.271C710.198 192.85 709.946 192.43 709.652 192.051C708.392 190.454 706.46 189.949 705.326 190.832C704.234 191.757 704.318 193.733 705.578 195.289C705.872 195.667 706.25 196.003 706.628 196.256C707.006 196.508 707.384 196.718 707.762 196.802C708.476 197.054 709.232 196.97 709.82 196.508Z" fill="#BDBDBD"/>
		<path d="M675.967 239.433L719.858 208.826C720.236 208.574 720.782 208.658 721.034 209.037C721.286 209.415 721.202 209.962 720.824 210.214C720.824 210.214 720.824 210.214 720.782 210.214L675.967 239.433Z" fill="#BDBDBD"/>
		<path d="M722.294 212.568C723.512 211.769 723.554 209.751 722.462 208.07C721.328 206.388 719.396 205.715 718.22 206.514C717.044 207.355 717.002 209.331 718.136 210.971C719.228 212.61 721.076 213.325 722.294 212.568Z" fill="#BDBDBD"/>
		<path d="M683.527 253.686L731.45 225.601C731.87 225.349 732.374 225.517 732.584 225.896C732.836 226.316 732.668 226.821 732.29 227.031C732.29 227.031 732.29 227.031 732.248 227.031L683.527 253.686Z" fill="#BDBDBD"/>
		<path d="M733.676 229.511C734.936 228.839 735.146 226.821 734.18 225.013C733.214 223.205 731.324 222.406 730.106 223.121C728.846 223.836 728.678 225.812 729.644 227.577C730.568 229.343 732.374 230.226 733.676 229.511Z" fill="#BDBDBD"/>
		<path d="M689.785 268.443L741.909 243.259C742.329 243.049 742.833 243.217 743.043 243.638C743.253 244.058 743.085 244.563 742.665 244.773C742.665 244.773 742.665 244.773 742.623 244.773L689.785 268.443Z" fill="#BDBDBD"/>
		<path d="M743.799 247.38C744.471 247.085 744.891 246.455 745.059 245.614C745.227 244.815 745.059 243.848 744.639 242.923C743.757 241.073 742.034 240.064 740.732 240.695C739.43 241.325 739.094 243.301 739.934 245.109C740.354 246.034 741.026 246.707 741.699 247.127C742.371 247.548 743.127 247.674 743.799 247.38Z" fill="#BDBDBD"/>
		<path d="M694.741 283.62L751.107 261.758C751.527 261.59 752.031 261.8 752.199 262.221C752.367 262.641 752.157 263.146 751.737 263.314C751.737 263.314 751.737 263.314 751.695 263.314L694.741 283.62Z" fill="#BDBDBD"/>
		<path d="M752.661 266.047C753.333 265.794 753.795 265.206 754.047 264.407C754.257 263.608 754.215 262.641 753.879 261.674C753.165 259.74 751.485 258.605 750.141 259.109C748.797 259.614 748.293 261.59 749.007 263.482C749.385 264.407 749.931 265.206 750.603 265.668C751.233 266.131 751.989 266.299 752.661 266.047Z" fill="#BDBDBD"/>
		<path d="M698.269 299.092L759.003 281.014C759.465 280.888 759.927 281.14 760.053 281.602C760.179 282.065 759.927 282.527 759.465 282.653C759.465 282.653 759.465 282.653 759.423 282.653L698.269 299.092Z" fill="#BDBDBD"/>
		<path d="M760.179 285.428C761.565 285.05 762.279 283.116 761.733 281.14C761.145 279.164 759.549 277.861 758.163 278.281C756.777 278.701 756.147 280.593 756.693 282.569C757.239 284.503 758.793 285.807 760.179 285.428Z" fill="#BDBDBD"/>
		<path d="M700.411 314.732L765.471 300.9C765.933 300.816 766.395 301.11 766.479 301.531C766.563 301.993 766.269 302.456 765.849 302.54C765.849 302.54 765.849 302.54 765.807 302.54L700.411 314.732Z" fill="#BDBDBD"/>
		<path d="M766.311 305.441C767.739 305.188 768.579 303.296 768.159 301.278C768.075 300.774 767.907 300.311 767.697 299.891C767.487 299.471 767.193 299.134 766.899 298.84C766.311 298.251 765.555 297.999 764.883 298.167C764.169 298.335 763.623 298.882 763.329 299.597C763.161 299.975 763.077 300.395 763.035 300.858C762.993 301.32 762.993 301.825 763.119 302.329C763.455 304.263 764.925 305.693 766.311 305.441Z" fill="#BDBDBD"/>
		<path d="M701.125 330.414L770.511 321.375C770.973 321.333 771.393 321.627 771.477 322.09C771.519 322.552 771.225 322.972 770.763 323.057L701.125 330.414Z" fill="#BDBDBD"/>
		<path d="M771.015 325.957C772.443 325.831 773.409 324.024 773.157 321.921C773.031 320.87 772.653 319.987 772.107 319.357C771.561 318.726 770.847 318.39 770.133 318.516C769.419 318.6 768.831 319.105 768.453 319.861C768.075 320.576 767.865 321.543 767.991 322.594C768.243 324.57 769.587 326.084 771.015 325.957Z" fill="#BDBDBD"/>
		<path d="M700.453 345.97L774.081 342.27C774.543 342.228 774.963 342.606 774.963 343.069C775.005 343.531 774.627 343.952 774.165 343.952L700.453 345.97Z" fill="#BDBDBD"/>
		<path d="M774.249 346.895C775.677 346.853 776.811 345.129 776.727 343.027C776.643 340.925 775.425 339.285 773.955 339.369C772.527 339.453 771.435 341.177 771.519 343.237C771.603 345.255 772.821 346.937 774.249 346.895Z" fill="#BDBDBD"/>
		<path d="M698.437 361.315L776.181 363.502C776.643 363.502 777.021 363.922 777.021 364.385C777.021 364.847 776.601 365.225 776.139 365.225L698.437 361.315Z" fill="#BDBDBD"/>
		<path d="M775.971 368.168C777.399 368.253 778.659 366.571 778.743 364.469C778.827 362.324 777.735 360.601 776.265 360.559C774.837 360.517 773.619 362.198 773.535 364.258C773.451 366.319 774.543 368.084 775.971 368.168Z" fill="#BDBDBD"/>
		<path d="M695.077 376.241L776.727 385.027C777.189 385.07 777.525 385.49 777.483 385.952C777.441 386.415 777.021 386.751 776.559 386.709L695.077 376.241Z" fill="#BDBDBD"/>
		<path d="M776.181 389.694C776.895 389.778 777.609 389.442 778.155 388.811C778.701 388.181 779.121 387.256 779.247 386.163C779.5 384.019 778.533 382.169 777.105 382.042C775.677 381.916 774.333 383.472 774.081 385.574C773.955 386.625 774.165 387.592 774.543 388.349C774.879 389.106 775.467 389.61 776.181 389.694Z" fill="#BDBDBD"/>
		<path d="M690.457 390.661L775.761 406.806C776.223 406.89 776.517 407.352 776.433 407.773C776.349 408.235 775.887 408.529 775.467 408.445L690.457 390.661Z" fill="#BDBDBD"/>
		<path d="M774.795 411.43C775.509 411.599 776.223 411.304 776.853 410.716C777.147 410.421 777.441 410.043 777.651 409.623C777.861 409.202 778.029 408.698 778.155 408.151C778.575 406.007 777.735 404.073 776.349 403.821C774.921 403.568 773.451 405.04 773.073 407.142C772.989 407.647 772.947 408.193 772.989 408.656C773.031 409.118 773.115 409.581 773.283 409.959C773.535 410.716 774.081 411.262 774.795 411.43Z" fill="#BDBDBD"/>
		<path d="M684.577 404.367L773.115 428.584C773.577 428.71 773.829 429.172 773.703 429.635C773.577 430.097 773.115 430.35 772.653 430.224L684.577 404.367Z" fill="#BDBDBD"/>
		<path d="M771.813 433.167C773.199 433.587 774.837 432.2 775.425 430.097C776.013 427.995 775.341 425.977 773.955 425.599C772.569 425.22 770.973 426.608 770.427 428.668C769.797 430.77 770.427 432.788 771.813 433.167Z" fill="#BDBDBD"/>
		<path d="M677.562 417.358L768.873 450.404C769.293 450.572 769.545 451.035 769.377 451.497C769.209 451.918 768.747 452.17 768.285 452.002L677.562 417.358Z" fill="#BDBDBD"/>
		<path d="M767.193 454.903C768.537 455.407 770.259 454.188 771.057 452.128C771.435 451.119 771.519 450.068 771.309 449.227C771.099 448.386 770.637 447.755 769.965 447.503C769.293 447.251 768.537 447.461 767.865 447.966C767.193 448.47 766.605 449.311 766.185 450.32C765.387 452.296 765.849 454.356 767.193 454.903Z" fill="#BDBDBD"/>
		<path d="M669.457 429.467L762.993 472.056C763.413 472.266 763.623 472.771 763.413 473.191C763.203 473.612 762.699 473.822 762.279 473.612L669.457 429.467Z" fill="#BDBDBD"/>
		<path d="M760.935 476.428C762.237 477.059 764.043 475.924 765.009 473.906C765.471 472.897 765.639 471.846 765.513 471.005C765.387 470.164 764.967 469.449 764.295 469.155C763.623 468.861 762.867 468.987 762.153 469.449C761.439 469.912 760.725 470.669 760.263 471.678C759.339 473.696 759.633 475.798 760.935 476.428Z" fill="#BDBDBD"/>
		<path d="M660.384 440.608L755.433 493.372C755.853 493.582 755.979 494.128 755.769 494.507C755.559 494.927 755.013 495.053 754.635 494.843L660.384 440.608Z" fill="#BDBDBD"/>
		<path d="M752.997 497.618C754.215 498.333 756.189 497.366 757.281 495.39C758.373 493.414 758.247 491.27 756.987 490.597C755.727 489.924 753.837 490.933 752.745 492.825C751.695 494.801 751.779 496.903 752.997 497.618Z" fill="#BDBDBD"/>
		<path d="M650.43 450.74L746.276 514.351C746.655 514.603 746.781 515.15 746.528 515.528C746.276 515.907 745.73 516.033 745.352 515.78L650.43 450.74Z" fill="#BDBDBD"/>
		<path d="M743.504 518.429C744.681 519.27 746.697 518.429 747.957 516.537C749.217 514.645 749.259 512.459 748.041 511.66C746.823 510.862 744.849 511.744 743.63 513.594C742.412 515.444 742.328 517.588 743.504 518.429Z" fill="#BDBDBD"/>
		<path d="M639.72 459.737L735.482 534.826C735.861 535.12 735.903 535.625 735.609 536.003C735.315 536.381 734.81 536.423 734.432 536.129L639.72 459.737Z" fill="#BDBDBD"/>
		<path d="M732.374 538.694C733.466 539.619 735.566 538.904 736.994 537.096C737.372 536.634 737.624 536.171 737.834 535.709C738.044 535.246 738.17 534.742 738.212 534.321C738.296 533.438 738.044 532.682 737.498 532.219C736.91 531.799 736.112 531.757 735.314 532.051C734.894 532.219 734.474 532.429 734.096 532.724C733.676 533.018 733.298 533.396 732.92 533.817C731.492 535.625 731.282 537.811 732.374 538.694Z" fill="#BDBDBD"/>
		<path d="M628.421 467.557L723.134 554.67C723.47 555.006 723.512 555.511 723.176 555.847C722.84 556.184 722.336 556.226 722 555.889L628.421 467.557Z" fill="#BDBDBD"/>
		<path d="M719.69 558.328C720.74 559.337 722.882 558.79 724.436 557.066C726.032 555.385 726.452 553.199 725.36 552.232C724.31 551.265 722.168 551.853 720.614 553.535C719.06 555.217 718.64 557.361 719.69 558.328Z" fill="#BDBDBD"/>
		<path d="M616.577 474.158L709.148 573.842C709.484 574.178 709.442 574.724 709.106 575.019C708.77 575.355 708.224 575.313 707.93 574.977L616.577 474.158Z" fill="#BDBDBD"/>
		<path d="M705.409 577.205C705.871 577.752 706.669 577.92 707.551 577.752C708.433 577.583 709.442 577.079 710.282 576.28C712.004 574.682 712.592 572.538 711.626 571.487C710.618 570.436 708.476 570.857 706.795 572.454C705.955 573.253 705.367 574.178 705.115 575.019C704.821 575.902 704.905 576.7 705.409 577.205Z" fill="#BDBDBD"/>
		<path d="M604.396 479.456L693.649 592.13C693.943 592.509 693.859 593.013 693.523 593.307C693.145 593.602 692.641 593.518 692.347 593.181L604.396 479.456Z" fill="#BDBDBD"/>
		<path d="M689.617 595.241C690.499 596.376 692.725 596.166 694.615 594.695C696.505 593.223 697.261 591.079 696.337 589.986C695.413 588.851 693.229 589.145 691.381 590.617C689.533 592.004 688.735 594.106 689.617 595.241Z" fill="#BDBDBD"/>
		<path d="M592.006 483.408L676.639 609.452C676.891 609.83 676.807 610.377 676.429 610.629C676.051 610.881 675.505 610.797 675.253 610.419L592.006 483.408Z" fill="#BDBDBD"/>
		<path d="M672.313 612.311C673.069 613.53 675.379 613.446 677.395 612.1C679.411 610.797 680.377 608.695 679.537 607.518C678.739 606.34 676.471 606.467 674.497 607.77C672.523 609.073 671.515 611.091 672.313 612.311Z" fill="#BDBDBD"/>
		<path d="M579.532 486.098L658.116 625.764C658.326 626.185 658.2 626.689 657.78 626.899C657.36 627.11 656.856 626.984 656.646 626.563L579.532 486.098Z" fill="#BDBDBD"/>
		<path d="M653.538 628.287C653.874 628.917 654.63 629.254 655.554 629.296C656.478 629.338 657.57 629.044 658.662 628.455C660.804 627.278 661.938 625.26 661.224 624.041C660.51 622.779 658.242 622.737 656.142 623.914C655.092 624.503 654.294 625.302 653.832 626.101C653.328 626.857 653.202 627.656 653.538 628.287Z" fill="#BDBDBD"/>
		<path d="M567.142 487.444L638.208 640.858C638.418 641.278 638.208 641.783 637.788 641.993C637.368 642.203 636.864 641.993 636.654 641.572L567.142 487.444Z" fill="#BDBDBD"/>
		<path d="M633.377 643.044C633.671 643.717 634.385 644.095 635.309 644.221C636.233 644.305 637.409 644.137 638.501 643.59C640.77 642.539 642.072 640.647 641.442 639.344C640.812 638.041 638.544 637.831 636.317 638.882C635.225 639.386 634.301 640.101 633.755 640.858C633.293 641.572 633.083 642.371 633.377 643.044Z" fill="#BDBDBD"/>
		<path d="M555.003 487.486L618.089 654.227C618.509 655.32 617.963 656.54 616.871 656.96C615.779 657.38 614.561 656.834 614.141 655.741V655.699L555.003 487.486Z" fill="#BDBDBD"/>
		<path d="M611.831 656.456C612.293 657.801 614.603 658.221 616.997 657.381C619.349 656.498 620.861 654.69 620.357 653.344C619.853 651.999 617.543 651.621 615.233 652.503C612.881 653.302 611.369 655.11 611.831 656.456Z" fill="#BDBDBD"/>
		<path d="M543.201 486.266L595.576 666.672C595.912 667.807 595.24 668.984 594.148 669.279C593.014 669.615 591.838 668.942 591.544 667.849V667.807L543.201 486.266Z" fill="#BDBDBD"/>
		<path d="M589.066 668.438C589.444 669.825 591.712 670.414 594.19 669.741C594.82 669.573 595.366 669.363 595.87 669.068C596.374 668.774 596.794 668.48 597.13 668.101C597.802 667.429 598.096 666.63 597.928 665.957C597.718 665.284 597.046 664.78 596.122 664.57C595.66 664.444 595.156 664.402 594.568 664.444C594.022 664.486 593.392 664.57 592.804 664.738C590.368 665.369 588.73 667.05 589.066 668.438Z" fill="#BDBDBD"/>
		<path d="M531.861 483.828L571.804 677.561C572.056 678.696 571.3 679.831 570.166 680.042C569.032 680.294 567.898 679.537 567.688 678.402V678.36L531.861 483.828Z" fill="#BDBDBD"/>
		<path d="M565.126 678.822C565.378 680.252 567.646 681.009 570.208 680.504C571.468 680.252 572.56 679.747 573.316 679.117C574.072 678.486 574.45 677.729 574.282 677.014C574.114 676.3 573.484 675.795 572.56 675.501C571.636 675.207 570.46 675.123 569.2 675.375C566.722 675.879 564.874 677.393 565.126 678.822Z" fill="#BDBDBD"/>
		<path d="M521.066 480.254L546.981 686.768C547.107 687.946 546.309 688.997 545.133 689.123C543.957 689.249 542.907 688.45 542.781 687.273V687.231L521.066 480.254Z" fill="#BDBDBD"/>
		<path d="M540.177 687.567C540.303 688.997 542.571 689.922 545.175 689.627C547.779 689.333 549.753 687.904 549.585 686.474C549.417 685.045 547.149 684.162 544.587 684.456C542.025 684.75 540.051 686.138 540.177 687.567Z" fill="#BDBDBD"/>
		<path d="M510.902 475.672L521.234 694.336C521.276 695.513 520.394 696.48 519.218 696.564C518.042 696.606 517.076 695.723 516.992 694.546V694.504L510.902 475.672Z" fill="#BDBDBD"/>
		<path d="M514.346 694.546C514.388 696.018 516.572 697.111 519.218 696.985C521.864 696.901 523.964 695.639 523.922 694.168C523.838 692.738 521.654 691.645 519.05 691.772C516.404 691.898 514.304 693.117 514.346 694.546Z" fill="#BDBDBD"/>
		<path d="M501.494 470.08L494.69 700.012C494.648 701.189 493.682 702.114 492.505 702.072C491.329 702.03 490.405 701.063 490.447 699.886V699.844L501.494 470.08Z" fill="#BDBDBD"/>
		<path d="M487.717 699.718C487.633 701.147 489.775 702.45 492.463 702.534C495.152 702.618 497.378 701.525 497.42 700.096C497.462 698.666 495.32 697.405 492.673 697.321C490.027 697.237 487.801 698.288 487.717 699.718Z" fill="#BDBDBD"/>
		<path d="M493.093 463.648L467.305 703.838C467.179 705.015 466.129 705.856 464.995 705.73C463.819 705.604 462.979 704.553 463.105 703.417V703.375L493.093 463.648Z" fill="#BDBDBD"/>
		<path d="M460.291 702.997C460.207 703.712 460.669 704.426 461.509 705.015C462.349 705.603 463.567 706.024 464.911 706.192C467.641 706.528 469.993 705.603 470.161 704.174C470.287 702.745 468.229 701.357 465.541 701.021C464.197 700.853 462.937 701.021 461.971 701.357C461.005 701.736 460.375 702.282 460.291 702.997Z" fill="#BDBDBD"/>
		<g opacity="0.95">
			<path opacity="0.95" d="M485.827 456.458L439.206 705.688C438.996 706.823 437.904 707.579 436.728 707.369C435.594 707.159 434.838 706.066 435.048 704.889V704.847L485.827 456.458Z" fill="#BDBDBD"/>
		</g>
		<g opacity="0.95">
			<path opacity="0.95" d="M432.192 704.258C431.898 705.688 433.872 707.285 436.644 707.832C439.416 708.378 441.852 707.622 442.104 706.234C442.356 704.805 440.34 703.249 437.652 702.745C434.922 702.198 432.486 702.871 432.192 704.258Z" fill="#BDBDBD"/>
		</g>
		<g opacity="0.9">
			<path opacity="0.9" d="M479.653 448.638L410.519 705.393C410.225 706.529 409.049 707.201 407.915 706.865C406.781 706.571 406.109 705.393 406.445 704.258V704.216L479.653 448.638Z" fill="#BDBDBD"/>
		</g>
		<g opacity="0.9">
			<path opacity="0.9" d="M403.547 703.417C403.337 704.09 403.715 704.889 404.471 705.604C404.849 705.982 405.353 706.318 405.899 706.613C406.445 706.907 407.117 707.159 407.789 707.327C410.561 708.084 413.081 707.538 413.459 706.15C413.837 704.763 411.905 703.039 409.175 702.282C408.503 702.114 407.831 701.988 407.201 701.946C406.571 701.904 405.983 701.946 405.479 702.03C404.471 702.282 403.757 702.745 403.547 703.417Z" fill="#BDBDBD"/>
		</g>
		<g opacity="0.85">
			<path opacity="0.85" d="M474.697 440.356L381.455 702.997C381.077 704.09 379.859 704.679 378.767 704.3C377.675 703.922 377.087 702.703 377.465 701.609V701.567L474.697 440.356Z" fill="#BDBDBD"/>
		</g>
		<g opacity="0.85">
			<path opacity="0.85" d="M374.566 700.432C374.062 701.778 375.826 703.712 378.598 704.721C381.328 705.688 383.975 705.393 384.437 704.006C384.899 702.661 383.093 700.769 380.404 699.802C377.674 698.835 375.112 699.087 374.566 700.432Z" fill="#BDBDBD"/>
		</g>
		<g opacity="0.8">
			<path opacity="0.8" d="M470.959 431.695L352.222 698.372C351.76 699.423 350.5 699.928 349.45 699.423C348.4 698.961 347.896 697.699 348.4 696.648V696.606L470.959 431.695Z" fill="#BDBDBD"/>
		</g>
		<g opacity="0.8">
			<path opacity="0.8" d="M345.46 695.219C344.83 696.522 346.51 698.582 349.198 699.844C351.886 701.063 354.574 700.937 355.162 699.633C355.75 698.288 354.028 696.312 351.382 695.093C348.736 693.874 346.09 693.916 345.46 695.219Z" fill="#BDBDBD"/>
		</g>
		<g opacity="0.75">
			<path opacity="0.75" d="M468.397 422.74L322.905 691.435C322.359 692.444 321.057 692.823 320.049 692.276C319.041 691.73 318.663 690.426 319.209 689.417C319.209 689.417 319.209 689.417 319.209 689.375L468.397 422.74Z" fill="#BDBDBD"/>
		</g>
		<g opacity="0.75">
			<path opacity="0.75" d="M316.353 687.777C315.639 689.039 317.193 691.225 319.839 692.696C320.511 693.075 321.141 693.327 321.813 693.537C322.443 693.747 323.073 693.832 323.619 693.874C324.711 693.916 325.551 693.621 325.887 692.991C326.223 692.36 326.013 691.477 325.341 690.636C325.005 690.216 324.585 689.753 324.081 689.333C323.577 688.913 322.989 688.492 322.359 688.156C319.755 686.726 317.067 686.558 316.353 687.777Z" fill="#BDBDBD"/>
		</g>
		<g opacity="0.7">
			<path opacity="0.7" d="M467.137 413.743L293.798 682.312C293.168 683.279 291.866 683.573 290.9 682.943C289.934 682.312 289.64 681.009 290.27 680.042C290.27 680.042 290.27 680.042 290.27 680L467.137 413.743Z" fill="#BDBDBD"/>
		</g>
		<g opacity="0.7">
			<path opacity="0.7" d="M287.414 678.108C286.616 679.285 288.002 681.639 290.564 683.321C291.866 684.162 293.168 684.666 294.26 684.834C295.352 684.961 296.234 684.75 296.612 684.162C296.99 683.573 296.822 682.69 296.234 681.765C295.646 680.84 294.68 679.831 293.42 678.991C290.942 677.309 288.212 676.93 287.414 678.108Z" fill="#BDBDBD"/>
		</g>
		<g opacity="0.65">
			<path opacity="0.65" d="M467.053 404.788L264.943 670.876C264.229 671.801 262.927 671.969 262.003 671.297C261.079 670.624 260.911 669.279 261.583 668.354C261.583 668.354 261.583 668.354 261.583 668.312L467.053 404.788Z" fill="#BDBDBD"/>
		</g>
		<g opacity="0.65">
			<path opacity="0.65" d="M258.853 666.125C258.391 666.672 258.475 667.597 258.979 668.606C259.483 669.615 260.449 670.708 261.667 671.633C264.145 673.525 266.875 674.114 267.715 672.978C268.555 671.843 267.295 669.363 264.859 667.513C263.641 666.588 262.339 665.957 261.289 665.705C260.197 665.453 259.273 665.579 258.853 666.125Z" fill="#BDBDBD"/>
		</g>
		<g opacity="0.6">
			<path opacity="0.6" d="M468.271 396.043L236.55 657.17C235.794 658.053 234.45 658.137 233.568 657.338C232.686 656.582 232.602 655.236 233.4 654.353L468.271 396.043Z" fill="#BDBDBD"/>
		</g>
		<g opacity="0.6">
			<path opacity="0.6" d="M230.754 651.915C230.25 652.461 230.292 653.344 230.754 654.395C230.964 654.942 231.3 655.489 231.72 656.035C232.14 656.582 232.644 657.17 233.232 657.675C235.584 659.777 238.314 660.618 239.238 659.525C240.163 658.432 239.028 655.867 236.718 653.807C236.13 653.302 235.542 652.84 234.954 652.503C234.366 652.125 233.778 651.873 233.232 651.705C232.14 651.326 231.258 651.368 230.754 651.915Z" fill="#BDBDBD"/>
		</g>
		<g opacity="0.55">
			<path opacity="0.55" d="M470.665 387.634L208.746 641.194C207.906 641.993 206.562 641.993 205.764 641.152C204.966 640.311 204.966 638.966 205.806 638.167L470.665 387.634Z" fill="#BDBDBD"/>
		</g>
		<g opacity="0.55">
			<path opacity="0.55" d="M203.328 635.392C202.277 636.359 203.201 639.092 205.428 641.446C207.696 643.759 210.342 644.81 211.35 643.801C212.358 642.792 211.392 640.101 209.166 637.831C206.982 635.518 204.378 634.425 203.328 635.392Z" fill="#BDBDBD"/>
		</g>
		<g opacity="0.5">
			<path opacity="0.5" d="M474.277 379.73L181.739 622.863C180.857 623.62 179.513 623.494 178.757 622.569C178.001 621.686 178.127 620.341 179.051 619.584L474.277 379.73Z" fill="#BDBDBD"/>
		</g>
		<g opacity="0.5">
			<path opacity="0.5" d="M176.657 616.641C175.523 617.524 176.279 620.341 178.379 622.906C180.479 625.47 183.125 626.731 184.217 625.807C185.309 624.882 184.469 622.107 182.411 619.584C180.353 617.062 177.791 615.758 176.657 616.641Z" fill="#BDBDBD"/>
		</g>
		<g opacity="0.45">
			<path opacity="0.45" d="M479.065 372.499L155.656 602.304C154.69 602.977 153.388 602.767 152.716 601.8C152.044 600.833 152.254 599.53 153.22 598.857L479.065 372.499Z" fill="#BDBDBD"/>
		</g>
		<g opacity="0.45">
			<path opacity="0.45" d="M150.994 595.62C149.818 596.419 150.364 599.319 152.296 602.094C154.228 604.869 156.79 606.383 157.924 605.542C159.1 604.701 158.428 601.842 156.538 599.109C154.69 596.377 152.212 594.779 150.994 595.62Z" fill="#BDBDBD"/>
		</g>
		<g opacity="0.4">
			<path opacity="0.4" d="M484.945 366.108L130.708 579.517C129.7 580.106 128.397 579.812 127.809 578.803C127.221 577.794 127.515 576.49 128.523 575.902L484.945 366.108Z" fill="#BDBDBD"/>
		</g>
		<g opacity="0.4">
			<path opacity="0.4" d="M126.507 572.328C125.247 573.043 125.667 576.028 127.389 579.013C128.271 580.484 129.322 581.662 130.288 582.376C131.296 583.091 132.22 583.343 132.808 582.965C133.438 582.586 133.606 581.662 133.438 580.484C133.27 579.307 132.724 577.794 131.842 576.364C130.162 573.421 127.767 571.613 126.507 572.328Z" fill="#BDBDBD"/>
		</g>
		<g opacity="0.35">
			<path opacity="0.35" d="M491.792 360.643L107.019 554.418C105.969 554.922 104.709 554.502 104.205 553.493C103.701 552.442 104.121 551.18 105.129 550.676L491.792 360.643Z" fill="#BDBDBD"/>
		</g>
		<g opacity="0.35">
			<path opacity="0.35" d="M103.323 546.85C102.021 547.481 102.189 550.55 103.785 553.703C105.339 556.856 107.691 558.874 108.951 558.202C110.211 557.529 110.001 554.502 108.447 551.391C106.893 548.28 104.625 546.262 103.323 546.85Z" fill="#BDBDBD"/>
		</g>
		<g opacity="0.3">
			<path opacity="0.3" d="M499.604 356.27L84.8843 527.216C83.7923 527.679 82.5743 527.132 82.1123 526.081C81.6502 524.988 82.1963 523.769 83.2463 523.306L499.604 356.27Z" fill="#BDBDBD"/>
		</g>
		<g opacity="0.3">
			<path opacity="0.3" d="M81.6922 519.228C81.0202 519.48 80.6842 520.405 80.6422 521.667C80.6422 522.928 80.9782 524.525 81.6502 526.207C82.9943 529.529 85.1783 531.757 86.5224 531.21C87.8664 530.664 87.8244 527.553 86.4804 524.273C85.8084 522.633 84.9263 521.246 84.0863 520.363C83.2043 519.438 82.3643 518.976 81.6922 519.228Z" fill="#BDBDBD"/>
		</g>
		<g opacity="0.25">
			<path opacity="0.25" d="M504.392 354.336L64.3458 497.87C63.2537 498.249 62.0357 497.618 61.6997 496.525C61.3217 495.432 61.9517 494.213 63.0437 493.876L504.392 354.336Z" fill="#BDBDBD"/>
		</g>
		<g opacity="0.25">
			<path opacity="0.25" d="M61.7416 489.588C61.0696 489.798 60.6496 490.681 60.5236 491.984C60.4396 493.288 60.6496 494.927 61.1956 496.693C62.3297 500.183 64.3457 502.621 65.7318 502.159C67.0758 501.696 67.2858 498.543 66.1518 495.096C65.6058 493.372 64.8077 491.9 64.0097 490.891C63.2537 489.882 62.4557 489.378 61.7416 489.588Z" fill="#BDBDBD"/>
		</g>
		<g opacity="0.2">
			<path opacity="0.2" d="M504.644 354.252L45.7393 466.591C44.6053 466.885 43.4712 466.17 43.1772 465.035C42.8832 463.9 43.5972 462.765 44.7313 462.47L504.644 354.252Z" fill="#BDBDBD"/>
		</g>
		<g opacity="0.2">
			<path opacity="0.2" d="M43.7232 458.014C42.3372 458.308 41.8331 461.545 42.7152 465.161C43.5972 468.777 45.4452 471.425 46.8313 471.089C48.2173 470.711 48.6373 467.557 47.7553 463.942C46.8733 460.368 45.1092 457.719 43.7232 458.014Z" fill="#BDBDBD"/>
		</g>
		<g opacity="0.15">
			<path opacity="0.15" d="M505.61 354.084L29.1068 433.545C27.9727 433.755 26.8807 432.956 26.6707 431.821C26.4607 430.686 27.2587 429.593 28.3927 429.383L505.61 354.084Z" fill="#BDBDBD"/>
		</g>
		<g opacity="0.15">
			<path opacity="0.15" d="M27.7207 424.674C27.0067 424.758 26.4607 425.641 26.1667 426.944C25.8727 428.248 25.8727 429.971 26.1667 431.863C26.7967 435.605 28.4347 438.464 29.8628 438.212C31.2908 437.959 31.9208 434.764 31.2908 431.064C30.9968 429.215 30.4088 427.575 29.7788 426.44C29.1908 425.262 28.4347 424.59 27.7207 424.674Z" fill="#BDBDBD"/>
		</g>
		<g opacity="0.1">
			<path opacity="0.1" d="M507.542 353.832L14.7425 398.86C13.5664 398.986 12.5584 398.103 12.4324 396.968C12.3064 395.791 13.1884 394.781 14.3225 394.655L507.542 353.832Z" fill="#BDBDBD"/>
		</g>
		<g opacity="0.1">
			<path opacity="0.1" d="M13.9864 389.82C13.2724 389.862 12.6844 390.703 12.3064 392.007C11.9284 393.31 11.8023 395.076 11.9704 396.968C12.3064 400.836 13.7764 403.821 15.2044 403.652C16.6325 403.484 17.5145 400.289 17.1785 396.505C17.0105 394.613 16.5905 392.89 16.0025 391.712C15.4144 390.493 14.7004 389.778 13.9864 389.82Z" fill="#BDBDBD"/>
		</g>
		<g opacity="0.05">
			<path opacity="0.05" d="M510.608 353.706L2.64609 362.829C1.47006 362.829 0.504028 361.904 0.504028 360.769C0.504028 359.592 1.42805 358.625 2.56209 358.625L510.608 353.706Z" fill="#BDBDBD"/>
		</g>
		<g opacity="0.05">
			<path opacity="0.05" d="M2.52004 353.706C1.092 353.706 -0.0840366 356.859 -3.42429e-05 360.769C0.0419669 364.679 1.302 367.832 2.73004 367.79C4.15808 367.748 5.25011 364.595 5.20811 360.727C5.16611 356.817 3.99008 353.706 2.52004 353.706Z" fill="#BDBDBD"/>
		</g>
	</g>
	<defs>
		<clipPath id="clip0_46:2585">
			<rect width="1015" height="708" fill="white"/>
		</clipPath>
	</defs>
</svg>
