<svg width="150" height="150" viewBox="0 0 150 150" fill="none" xmlns="http://www.w3.org/2000/svg">
<rect width="150" height="150" rx="75" fill="black"/>
<path d="M110.787 41.3535C111.178 36.4981 108.145 34.4907 104.533 32.6652C99.7024 30.2412 95.059 27.4688 90.3374 24.8403L81.6915 20C81.4961 20.2727 81.2929 20.5378 81.0896 20.8105C87.4371 31.1654 93.7378 41.543 100.14 51.8676C103.861 57.8668 107.41 63.9872 111.678 69.6078C113.851 72.4636 115.415 78.3568 113.304 81.5989C110.521 85.8408 107.965 90.2267 105.37 94.5823C99.9394 103.717 94.5247 112.86 89.1256 122.011C84.576 129.707 80.0421 137.41 74.8828 146.159L34.6946 77.9857L33.3734 76.145L41.0967 79.2886C42.9808 76.1602 44.5989 73.1605 46.5688 70.3578C48.3121 67.7519 48.9688 65.2902 47.7962 62.2603C46.2327 58.2606 45.0601 54.1323 43.8015 50.0419C42.8478 46.9591 42.027 43.8382 41.1437 40.7324C42.2771 40.8233 42.6447 41.134 42.879 41.5278C49.3309 52.4154 55.7645 63.3107 62.1798 74.2133C65.1895 79.3415 65.0721 79.2886 60.1865 82.7655C58.537 83.9395 56.2778 85.5227 56.0668 87.1437C55.4883 91.4614 55.8712 95.8927 55.8712 100.407C64.8689 94.4232 71.584 99.9679 74.7186 107.02C76.282 96.4986 87.742 96.3699 91.549 98.3849C92.6824 88.9011 93.6518 88.0147 89.6573 80.8717C86.9056 75.9405 84.584 70.7895 81.7385 65.9189C74.3277 53.2309 66.6746 40.6718 59.2641 27.9839C58.0211 25.8554 56.9892 25.7114 54.9958 26.9007C51.3452 29.0596 47.4913 30.9002 43.8719 33.1045C42.0974 34.1802 39.4004 35.6573 39.2754 37.1268C38.8923 41.5657 36.3673 41.5657 32.9435 41.4747C26.4396 41.2929 19.92 41.4066 13.4005 41.4293C12.4468 41.4293 11.4853 41.5959 10 41.7323L74.8828 150L140 41.3535H110.787ZM70.9195 86.1363C70.8131 85.8311 70.7577 85.5114 70.7553 85.1893C70.7553 84.3335 71.1061 83.5127 71.7307 82.9076C72.3552 82.3024 73.2021 81.9624 74.0854 81.9624C74.9686 81.9624 75.8157 82.3024 76.4402 82.9076C77.0646 83.5127 77.4156 84.3335 77.4156 85.1893C77.4093 85.5136 77.3539 85.8351 77.2514 86.1438C77.7852 86.2337 78.2883 86.4487 78.7171 86.7696C79.1457 87.0908 79.487 87.5083 79.7116 87.9862C79.9361 88.464 80.0368 88.9877 80.005 89.5119C79.9732 90.0361 79.81 90.5448 79.5296 90.9939C79.249 91.4431 78.8595 91.8191 78.395 92.0894C77.9304 92.3596 77.4048 92.516 76.8638 92.5449C76.3228 92.5739 75.7828 92.4745 75.2905 92.2553C74.7979 92.0359 74.3684 91.7038 74.0386 91.2872C73.7065 91.7038 73.2742 92.035 72.7792 92.2522C72.2845 92.4691 71.7422 92.5653 71.2001 92.5321C70.658 92.499 70.1324 92.3377 69.6698 92.0621C69.207 91.7865 68.8209 91.4052 68.5455 90.9514C68.2701 90.4979 68.1137 89.9856 68.0899 89.4597C68.0664 88.9341 68.1759 88.4106 68.4096 87.9353C68.643 87.4601 68.9933 87.0476 69.4295 86.7339C69.8656 86.4203 70.3746 86.215 70.9117 86.1363H70.9195ZM30.6609 71.5091L14.0493 43.8836H37.9543C35.875 53.0718 31.3722 72.5317 31.3722 72.5317L30.6609 71.5091ZM116.509 73.062C116.509 73.062 112.773 54.9429 111.084 45.853C110.631 43.8003 112.335 43.7169 113.039 43.7017C120.293 43.5426 127.547 43.6032 135.88 43.6032C129.533 54.0642 116.846 75.7055 116.846 75.7055L116.509 73.062Z" fill="white"/>
</svg>
