<svg width="237" height="38" viewBox="0 0 237 38" fill="none" xmlns="http://www.w3.org/2000/svg">
<g clip-path="url(#clip0_132:387)">
<path d="M33.035 3.39402C30.2821 2.01517 26.4703 0.954522 22.5792 0.424194L21.6262 3.97738C25.0674 4.42816 28.2174 5.30319 30.388 6.20474V17.3681C30.388 26.1715 23.9027 30.3081 17.0204 33.6756C16.041 33.1984 15.0351 32.6945 14.0822 32.1642L13.1028 35.8234C14.241 36.4068 15.2998 36.9372 16.2263 37.3879L17.0204 37.7591L17.8145 37.3879C23.4792 34.6567 34.0408 29.5656 34.0408 17.3681V3.89783L33.035 3.39402Z" fill="#1ED760"/>
<path d="M23.3469 18.5614C24.6969 17.5803 25.4645 16.0424 25.4381 14.3718C25.3852 11.6141 23.0557 9.38672 20.2234 9.38672H20.1704L19.244 12.8869H19.9587C20.8322 12.8869 21.5469 13.6028 21.5469 14.4778C21.5469 15.3529 20.8322 16.0688 19.9587 16.0688H18.3969L17.4705 19.5425H19.7469L22.2881 24.2624H26.4704L23.3469 18.5614Z" fill="#1ED760"/>
<path d="M13.3146 19.5425H15.4852L16.4117 16.0423H13.3146V12.8869H17.2852L18.2117 9.38672H11.1176C10.1912 9.38672 9.44995 10.1292 9.44995 11.0573V22.5653C9.44995 23.4934 10.1912 24.2359 11.1176 24.2359H13.3146V19.5425Z" fill="#11915A"/>
<path d="M12.3617 31.1567C7.46464 28.1338 3.65291 24.1033 3.65291 17.3682V6.23133C6.74995 4.93203 11.8852 3.68577 17.0205 3.68577C17.9204 3.68577 18.8205 3.71228 19.6939 3.79183L20.6469 0.185614C19.4293 0.0795489 18.2116 0 17.0205 0C11.5146 0 5.08231 1.35233 1.00587 3.39409L0 3.8979V17.3682C0 26.5693 6.00878 31.7135 11.3822 34.8689L12.3617 31.1567Z" fill="#11915A"/>
<path d="M204.28 9.06452L199.349 20.9678L194.416 9.06452C194.097 8.30059 193.352 7.8032 192.518 7.8032H189.201L196.652 24.9474C197.078 25.9246 198.035 26.5641 199.1 26.5641H199.597C200.661 26.5641 201.619 25.9246 202.045 24.9474L209.496 7.8032H206.178C205.345 7.78542 204.599 8.28281 204.28 9.06452Z" fill="white"/>
<path d="M107.169 7.66138H106.673C105.609 7.66138 104.65 8.30093 104.225 9.27807L96.7739 26.4223H100.091C100.925 26.4223 101.67 25.9249 101.99 25.1609L106.921 13.2577L111.853 25.1609C112.173 25.9249 112.917 26.4223 113.751 26.4223H117.069L109.618 9.27807C109.21 8.28315 108.234 7.66138 107.169 7.66138Z" fill="white"/>
<path d="M79.7079 18.9428H87.6904C88.0635 18.9428 88.3825 18.6408 88.3825 18.2499V15.7982C88.3825 15.4251 88.081 15.1053 87.6904 15.1053H79.7079V11.5876H89.5537V9.82877C89.5537 8.69175 88.6312 7.76794 87.4958 7.76794H77.5255C76.3901 7.76794 75.4675 8.69175 75.4675 9.82877V24.3437C75.4675 25.4807 76.3901 26.4045 77.5255 26.4045H87.6377C88.7731 26.4045 89.6957 25.4807 89.6957 24.3437V22.5848H79.7254V18.9428H79.7079Z" fill="white"/>
<path d="M172.507 18.9428H180.49C180.863 18.9428 181.183 18.6408 181.183 18.2499V15.7982C181.183 15.4251 180.881 15.1053 180.49 15.1053H172.507V11.5876H182.353V9.82877C182.353 8.69175 181.431 7.76794 180.295 7.76794H170.326C169.19 7.76794 168.268 8.69175 168.268 9.82877V24.3437C168.268 25.4807 169.19 26.4045 170.326 26.4045H180.437C181.573 26.4045 182.495 25.4807 182.495 24.3437V22.5848H172.525V18.9428H172.507Z" fill="white"/>
<path d="M128.564 7.78589H126.347C125.211 7.78589 124.289 8.7097 124.289 9.84671V24.3616C124.289 25.4986 125.211 26.4224 126.347 26.4224H135.678C136.814 26.4224 137.736 25.4986 137.736 24.3616V22.5139H128.583V7.78589H128.564Z" fill="white"/>
<path d="M157.96 7.78589H147.849C146.713 7.78589 145.791 8.7097 145.791 9.84671V24.3616C145.791 25.4986 146.713 26.4224 147.849 26.4224H150.066V19.5647H157.463C157.836 19.5647 158.155 19.2627 158.155 18.8719V16.3491C158.155 15.976 157.854 15.6562 157.463 15.6562H150.066V11.6766H160.018V9.82893C160.018 8.7097 159.095 7.78589 157.96 7.78589Z" fill="white"/>
<path d="M66.7927 14.0218V13.9684C66.7927 10.0955 64.1671 7.78589 59.7498 7.78589H53.2923C52.1569 7.78589 51.2344 8.7097 51.2344 9.84671V24.3616C51.2344 25.4986 52.1569 26.4224 53.2923 26.4224H55.4921V11.6766H59.3949C61.3641 11.6766 62.464 12.5649 62.464 14.1994V14.2527C62.464 15.7984 61.3109 16.74 59.4837 16.74H58.3305C57.958 16.74 57.6387 17.042 57.6387 17.4328V19.8668C57.6387 20.2398 57.9402 20.5597 58.3305 20.5597H58.5434C59.3595 20.5597 60.2997 20.7551 60.9916 22.0698L63.2801 26.4402H67.8568L63.9365 19.316C65.5332 18.3567 66.7927 16.7578 66.7927 14.0218Z" fill="white"/>
<path d="M228.762 19.2985C230.358 18.3746 231.601 16.7757 231.601 14.0397V13.9864C231.601 10.1134 228.975 7.80383 224.558 7.80383H218.1C216.965 7.80383 216.042 8.72771 216.042 9.86472V24.3796C216.042 25.5166 216.965 26.4404 218.1 26.4404H220.318V11.6946H224.22C226.19 11.6946 227.289 12.5829 227.289 14.2174V14.2707C227.289 15.8163 226.136 16.7579 224.309 16.7579H223.156C222.783 16.7579 222.464 17.06 222.464 17.4508V19.8848C222.464 20.2579 222.766 20.5776 223.156 20.5776H223.369C224.185 20.5776 225.125 20.773 225.817 22.0878L228.106 26.4582H232.683L228.762 19.2985Z" fill="white"/>
<path d="M236.178 8.01668C236.426 8.26537 236.55 8.56741 236.55 8.94048C236.55 9.31363 236.426 9.61566 236.178 9.84658C235.929 10.0953 235.628 10.2019 235.273 10.2019C234.918 10.2019 234.616 10.0776 234.368 9.84658C234.12 9.59789 233.995 9.29585 233.995 8.94048C233.995 8.56741 234.12 8.26537 234.368 8.01668C234.616 7.76798 234.918 7.66138 235.273 7.66138C235.628 7.66138 235.929 7.78569 236.178 8.01668ZM235.982 9.66893C236.178 9.4735 236.266 9.24252 236.266 8.95826C236.266 8.67401 236.178 8.42531 235.982 8.22988C235.787 8.03446 235.557 7.92785 235.273 7.92785C234.989 7.92785 234.758 8.03446 234.563 8.22988C234.368 8.42531 234.279 8.67401 234.279 8.95826C234.279 9.24252 234.386 9.49128 234.581 9.66893C234.776 9.86436 235.006 9.95318 235.29 9.95318C235.557 9.95318 235.787 9.84658 235.982 9.66893ZM235.557 9.10042L235.876 9.49128H235.539L235.238 9.13598H235.077V9.49128H234.776V8.33649H235.344C235.486 8.33649 235.61 8.37198 235.681 8.44309C235.769 8.51414 235.805 8.60296 235.805 8.72735C235.823 8.905 235.734 9.02938 235.557 9.10042ZM235.344 8.86944C235.468 8.86944 235.539 8.81617 235.539 8.70957C235.539 8.60296 235.468 8.56741 235.344 8.56741H235.077V8.86944H235.344Z" fill="white"/>
</g>
<defs>
<clipPath id="clip0_132:387">
<rect width="236.55" height="38" fill="white"/>
</clipPath>
</defs>
</svg>
