<svg width="138" height="27" viewBox="0 0 138 27" fill="none" xmlns="http://www.w3.org/2000/svg">
<path d="M1.53664 1.99299L0 0.451172H6.6543L5.11766 1.99299H1.53664Z" fill="#FFFF8B"/>
<path d="M14.9079 1.99299L13.3713 0.451172H20.0256L18.489 1.99299H14.9079Z" fill="#FFFF8B"/>
<path d="M14.9436 15.654C14.9436 15.5732 14.9436 15.4879 14.9436 15.4004V15.2836C14.9436 15.1557 14.9301 15.0255 14.919 14.8864V1.99299L13.3824 0.451172V14.8774V15.3263C13.3824 16.0848 13.407 16.8973 13.1878 17.6289L13.1744 17.667C13.1587 17.7187 13.1431 17.7681 13.1251 17.8174C12.9194 18.4083 12.5463 18.9263 12.0515 19.3076L12.9462 20.5577C13.6946 19.9912 14.2588 19.2149 14.5679 18.3269C14.5947 18.2573 14.6171 18.1922 14.6417 18.1249C14.6417 18.1091 14.6417 18.0913 14.6595 18.0733C14.682 18.0082 14.7043 17.9409 14.7244 17.8735C14.799 17.6319 14.8558 17.3851 14.8944 17.1351C14.8944 17.097 14.8944 17.1217 14.8944 17.1351C14.9543 16.6438 14.9708 16.1482 14.9436 15.654Z" fill="#00A69B"/>
<path d="M18.4887 1.99299V13.854C18.4887 18.2798 18.086 19.9136 16.829 21.5273C16.2803 22.1871 15.6038 22.7285 14.8405 23.1185C14.7578 23.1633 14.6683 23.2014 14.5833 23.2441L15.5272 24.6221C15.6256 24.566 15.7286 24.5121 15.8246 24.4538C16.669 23.927 17.4173 23.259 18.0368 22.4788C19.578 20.4814 20.0231 18.5513 20.0253 13.881V0.451172L18.4887 1.99299Z" fill="#FFAD8D"/>
<path d="M18.4884 1.99268V13.8874C18.4884 18.3154 18.0858 19.9469 16.8287 21.5606C15.3413 23.43 12.3552 24.2986 10.0111 24.4601C6.75668 24.4601 4.24929 23.2303 2.83567 21.0668C2.28096 20.2297 1.979 18.7305 1.66809 17.6825C1.58533 17.0855 1.59876 15.7501 1.53613 13.8874V1.99268H5.11491V14.8951C5.11491 16.8857 5.14175 17.5881 5.52199 18.5891C5.90131 19.4666 6.52825 20.2137 7.32553 20.7381C8.12281 21.2625 9.05559 21.5414 10.0089 21.5403C11.0088 21.5513 11.9869 21.2461 12.8042 20.668C13.6217 20.09 14.2369 19.2685 14.5629 18.3198C14.8738 17.4804 15.0461 16.861 14.9051 14.8951V2.00167L18.4884 1.99268Z" fill="url(#paint0_linear_132:862)"/>
<path d="M2.84507 21.0335C2.29036 20.1941 1.98842 18.6972 1.67751 17.6491C1.59475 17.0521 1.60815 15.7168 1.54552 13.854V1.99299L0.0088836 0.451172V13.881C-0.0181328 15.2098 0.0311648 16.5392 0.156516 17.8623C0.329771 19.2882 0.809003 20.6595 1.56119 21.8818C1.94863 22.4715 2.40855 23.0099 2.93007 23.4842L4.01713 22.3935C3.56832 21.9941 3.17421 21.5367 2.84507 21.0335Z" fill="#00A69B"/>
<path d="M15.5271 24.6221L14.5832 23.2441C13.1467 23.9226 11.5958 24.3237 10.0114 24.4267C7.51965 24.4267 5.46854 23.6996 4.00795 22.3934L2.9209 23.4842C4.68345 25.0979 7.13045 25.9687 10.0114 25.9687C12.1228 25.9687 13.9815 25.5063 15.5271 24.6221Z" fill="#FF4E70"/>
<path d="M6.95578 18.0195C6.6829 17.3171 6.65383 16.7649 6.65383 14.8775V0.442261L5.11719 1.98408V14.8954C5.11719 16.8861 5.14402 17.5886 5.52426 18.5896C5.77162 19.1609 6.12539 19.6796 6.56659 20.1179L7.67153 19.0564C7.36555 18.7628 7.12207 18.41 6.95578 18.0195Z" fill="#FFAD8D"/>
<path d="M12.9349 20.5624L12.0402 19.3124C11.4613 19.7531 10.7537 19.9898 10.0271 19.9857C9.15516 19.9842 8.31728 19.6458 7.68749 19.0408L6.58252 20.1023C7.49903 21.0134 8.73692 21.5249 10.0271 21.5252C11.0749 21.5301 12.0957 21.1921 12.9349 20.5624Z" fill="#FFFF8B"/>
<path d="M40.3108 1.99299L38.7742 0.451172H45.0347L43.4981 1.99299H40.3108Z" fill="#FFFF8B"/>
<path d="M43.4978 1.99299L45.0344 0.451172V25.6477L43.4978 24.1059V1.99299Z" fill="#FFAD8D"/>
<path d="M43.4981 24.1057L45.0347 25.6475H38.7742L40.3108 24.1057H43.4981Z" fill="#FF4E70"/>
<path d="M40.3108 24.1057L38.7742 25.6476V15.8109L40.3108 15.1646V24.1057Z" fill="#00A69B"/>
<path d="M40.3102 15.1641L38.7737 15.8104L30.019 7.18572L28.4824 3.51184L40.3102 15.1641Z" fill="#FF4E70"/>
<path d="M28.4824 3.51184L30.019 7.18573V25.6472L28.4824 24.1054V3.51184Z" fill="#FFAD8D"/>
<path d="M28.4828 24.1057L30.0195 25.6475H23.7969L25.3335 24.1057H28.4828Z" fill="#FF4E70"/>
<path d="M25.3335 24.1059L23.7969 25.6477V0.451172L25.3335 1.99299V24.1059Z" fill="#00A69B"/>
<path d="M25.3335 1.99299L23.7969 0.451172H31.3168L30.7106 1.99299H25.3335Z" fill="#FFFF8B"/>
<path d="M30.7104 1.99299L31.3167 0.451172L38.774 7.46007L40.3106 11.015L30.7104 1.99299Z" fill="#FFFF8B"/>
<path d="M40.3108 11.015L38.7742 7.46007V0.451172L40.3108 1.99299V11.015Z" fill="#00A69B"/>
<path d="M43.498 1.99268V24.1056H40.3107V15.1644L28.4827 3.51206V24.1056H25.3335V1.99268H30.7106L40.3107 11.0147V1.99268H43.498Z" fill="url(#paint1_linear_132:862)"/>
<path d="M55.0708 9.66797L59.8015 18.809L55.0708 9.66797Z" fill="#FFAD8D"/>
<path d="M59.8018 18.8089L64.6689 9.64099L59.8018 18.8089Z" fill="#00A69B"/>
<path d="M69.3948 11.2349L70.9314 11.6433L62.9395 25.7306L62.0493 24.1865L69.3948 11.2349Z" fill="#FFAD8D"/>
<path d="M62.0496 24.1866L62.9398 25.7306L56.6433 25.6991L57.547 24.1619L62.0496 24.1866Z" fill="#FF4E70"/>
<path d="M57.547 24.1616L56.6434 25.6989L48.8081 11.6429L50.3447 11.2412L57.547 24.1616Z" fill="#00A69B"/>
<path d="M50.3448 11.2417L48.8081 11.6434V0.451172L50.3448 1.99299V11.2417Z" fill="#00A69B"/>
<path d="M50.3447 1.99299L48.8081 0.451172H55.071L53.5344 1.99299H50.3447Z" fill="#FFFF8B"/>
<path d="M53.5339 10.045L55.0706 9.66797L59.8012 18.809L59.7834 22.1192L53.5339 10.045Z" fill="#FFAD8D"/>
<path d="M59.7832 22.1192L59.8011 18.8089L64.6682 9.64099L66.2026 10.0248L59.7832 22.1192Z" fill="#00A69B"/>
<path d="M66.2027 10.0253L64.6682 9.6415V0.451172L66.2027 1.99299V10.0253Z" fill="#00A69B"/>
<path d="M66.2026 1.99299L64.6682 0.451172H70.9312L69.3945 1.99299H66.2026Z" fill="#FFFF8B"/>
<path d="M53.5339 1.99299L55.0706 0.451172V9.66843L53.5339 10.0455V1.99299Z" fill="#FFAD8D"/>
<path d="M69.3945 1.99299L70.9314 0.451172V11.6434L69.3945 11.2349V1.99299Z" fill="#FFAD8D"/>
<path d="M69.3944 1.99268V11.2346L62.049 24.1864L57.5465 24.1617L50.3442 11.2414V1.99268H53.5338V10.0452L59.7832 22.1194L66.2026 10.025V1.99268H69.3944Z" fill="url(#paint2_linear_132:862)"/>
<path d="M80.5623 4.66821L82.0968 6.20779V9.74028L80.5623 11.2821V4.66821Z" fill="#FFAD8D"/>
<path d="M80.5623 11.2823L82.0967 9.74048H92.3656L90.8289 11.2823H80.5623Z" fill="#FFFF8B"/>
<path d="M90.8296 11.2823L92.3662 9.74048V15.3736L90.8296 13.834V11.2823Z" fill="#FFAD8D"/>
<path d="M90.8289 13.8336L92.3656 15.3731H82.0967L80.5623 13.8336H90.8289Z" fill="#FF4E70"/>
<path d="M80.5623 13.8336L82.0968 15.3731V19.8416L80.5623 21.3834V13.8336Z" fill="#FFAD8D"/>
<path d="M80.5623 21.3835L82.0967 19.8417H91.3031L89.7665 21.3835H80.5623Z" fill="#FFFF8B"/>
<path d="M89.7676 21.3835L91.3042 19.8417V25.56L89.7676 24.0183V21.3835Z" fill="#FFAD8D"/>
<path d="M77.3889 24.0181L75.8523 25.5599V15.3731L77.3889 13.8336V24.0181Z" fill="#00A69B"/>
<path d="M77.389 13.8336L75.8523 15.3731H74.2576L75.7942 13.8336H77.389Z" fill="#FF4E70"/>
<path d="M75.7942 13.8334L74.2576 15.3731V9.65686L75.7942 11.1986V13.8334Z" fill="#00A69B"/>
<path d="M75.7942 11.1986L74.2576 9.65686H75.8523L77.389 11.1986H75.7942Z" fill="#FFFF8B"/>
<path d="M77.3889 11.1991L75.8523 9.65722V0.451172L77.3889 1.99299V11.1991Z" fill="#00A69B"/>
<path d="M77.3889 1.99299L75.8523 0.451172H90.561L89.0244 1.99299H77.3889Z" fill="#FFFF8B"/>
<path d="M89.767 24.0184L91.3038 25.5603H75.8523L77.3889 24.0184H89.767Z" fill="#FF4E70"/>
<path d="M89.0249 1.99299L90.5616 0.451172V6.20776L89.0249 4.66818V1.99299Z" fill="#FFAD8D"/>
<path d="M89.024 4.66821L90.5605 6.20779H82.0967L80.5623 4.66821H89.024Z" fill="#FF4E70"/>
<path d="M89.0244 1.99268V4.66786H80.5629V11.2817H90.8294V13.8335H80.5629V21.3833H89.767V24.018H77.389V13.8335H75.7942V11.1987H77.389V1.99268H89.0244Z" fill="url(#paint3_linear_132:862)"/>
<path d="M108.332 4.97299L108.273 4.71265L108.316 4.96176" fill="#6B643F"/>
<path d="M112.047 17.7607C112.019 22.5343 108.245 25.9972 103.076 26.0039C108.256 26.0039 112.023 22.5343 112.047 17.7607Z" fill="#6B643F"/>
<path d="M105.205 17.961C105.205 16.895 104.59 16.39 103.628 15.6719C104.59 16.3855 105.212 16.895 105.205 17.961Z" fill="#6B643F"/>
<path d="M109.427 2.60733L111.427 2.16296L108.77 7.00388L108.273 4.71023L109.427 2.60733Z" fill="#FFAD8D"/>
<path d="M108.273 4.71265L108.332 4.97299L108.289 4.72388" fill="#6B643F"/>
<path d="M96.5935 22.4494L94.5715 22.7928L97.8729 17.4672L98.2621 19.7585L96.5935 22.4494Z" fill="#00A69B"/>
<path d="M108.273 4.71302L108.77 7.00442C107.723 6.22117 106.495 5.78129 105.607 5.77455C105.209 5.78059 104.82 5.90218 104.489 6.12468L103.594 4.87909C104.185 4.466 104.887 4.24151 105.607 4.23499C106.862 4.24845 108.404 4.80952 108.269 4.71302" fill="#FF4E70"/>
<path d="M103.593 4.87905L104.487 6.12464C104.276 6.25168 104.099 6.42846 103.972 6.63965C103.845 6.85085 103.77 7.09005 103.756 7.33653C103.756 8.33748 104.651 9.1903 105.982 10.0297C110.171 12.6487 112.045 14.5676 112.049 17.6894C112.074 19.0165 111.765 20.3284 111.152 21.5048C110.539 22.6812 109.642 23.6844 108.543 24.4222L107.648 23.1655C108.547 22.5706 109.281 21.7576 109.783 20.8017C110.285 19.846 110.537 18.7785 110.517 17.6984C110.529 15.3621 109.068 13.8001 105.167 11.3403C103.602 10.3573 102.26 9.16113 102.224 7.34101C102.238 6.84894 102.37 6.36748 102.609 5.93763C102.848 5.50779 103.187 5.1423 103.597 4.87231" fill="#FFAD8D"/>
<path d="M107.643 23.1629L108.538 24.4197C106.914 25.4837 105.01 26.0357 103.071 26.0041H102.924C100.016 25.9863 97.1082 24.8529 94.5674 22.7972L96.5804 22.4537C97.8128 23.4479 100.383 24.4489 102.924 24.4736H103.065C104.681 24.4989 106.268 24.047 107.63 23.1742" fill="#FF4E70"/>
<path d="M104.635 1.54379C106.556 1.54379 109.028 2.30909 109.429 2.60758L108.274 4.71273C108.408 4.80923 106.867 4.24815 105.613 4.23468C103.926 4.23468 102.257 5.5386 102.219 7.33852C102.255 9.15864 103.606 10.3549 105.163 11.3379C109.064 13.8066 110.532 15.3596 110.513 17.6959C110.513 21.5942 107.471 24.4422 103.078 24.4624C102.991 24.4624 102.964 24.4624 102.937 24.4624C100.405 24.4467 97.8264 23.4458 96.594 22.4426L98.2625 19.7494C98.8218 20.1983 100.79 21.2328 102.613 21.2553C102.697 21.2714 102.782 21.2714 102.866 21.2553C105.897 21.0735 106.583 20.1758 106.731 18.2569C106.87 16.1989 105.774 15.3394 104.546 14.4282C102.707 13.0592 100.743 11.9595 99.542 10.4379C98.7983 9.4782 98.3804 8.3047 98.3498 7.08941C98.3342 4.12247 101.126 1.55052 104.575 1.53931L104.635 1.54379Z" fill="url(#paint4_linear_132:862)"/>
<path d="M104.574 1.54415H104.635C106.556 1.54415 109.028 2.30945 109.429 2.60794L111.427 2.15909C109.656 0.861888 106.867 0.0135511 104.646 8.54331e-05H104.574C103.493 -0.00488126 102.422 0.206755 101.423 0.622578C100.425 1.0384 99.5189 1.65005 98.7589 2.42168C97.5276 3.65648 96.8261 5.32524 96.804 7.07182H98.3541C98.3731 5.73335 98.9123 4.45529 99.8571 3.51014C100.474 2.88402 101.208 2.3876 102.018 2.05002C102.828 1.71243 103.697 1.54046 104.574 1.54415Z" fill="#FFFF8B"/>
<path d="M104.545 14.4463C102.707 13.0751 100.743 11.9776 99.5416 10.4538C98.7978 9.49406 98.38 8.32059 98.3495 7.1053V7.08508H96.8127V7.10754C96.8445 8.67006 97.3797 10.1803 98.3382 11.412C99.7384 13.1806 101.832 14.3431 103.628 15.6763C104.552 16.363 105.16 16.8612 105.194 17.8464H106.733C106.71 16.0824 105.686 15.2723 104.545 14.4463Z" fill="#00A69B"/>
<path d="M105.2 17.8418C105.206 17.9451 105.206 18.0484 105.2 18.1516C105.181 18.4189 105.083 18.6745 104.918 18.8855C104.543 19.368 103.8 19.6755 102.796 19.7226H102.624C101.282 19.7226 99.6107 18.8675 97.875 17.4783L98.2641 19.7697C98.8233 20.2186 100.792 21.2533 102.615 21.2757C102.698 21.2906 102.784 21.2906 102.867 21.2757C104.657 21.1679 105.628 20.811 106.155 20.1535C106.52 19.6866 106.672 19.074 106.732 18.2862C106.732 18.1404 106.732 18.0012 106.732 17.8665L105.2 17.8418Z" fill="#FFFF8B"/>
<path d="M116.015 1.99299L114.478 0.451172H137.337L135.801 1.99299H116.015Z" fill="#FFFF8B"/>
<path d="M135.801 1.99299L137.339 0.451172V10.2362L135.801 8.69666V1.99299Z" fill="#FFAD8D"/>
<path d="M135.801 8.69629L137.337 10.2359H131.974L133.511 8.69629H135.801Z" fill="#FF4E70"/>
<path d="M133.511 8.69681L131.974 10.2364V6.73306L133.511 5.19348V8.69681Z" fill="#00A69B"/>
<path d="M133.511 5.19348L131.974 6.73306H129.015L127.478 5.19348H133.511Z" fill="#FF4E70"/>
<path d="M127.478 5.19348L129.015 6.73306V25.6501L127.478 24.1083V5.19348Z" fill="#FFAD8D"/>
<path d="M127.478 24.1079L129.015 25.6497H122.755L124.289 24.1079H127.478Z" fill="#FF4E70"/>
<path d="M124.289 24.1083L122.755 25.6501V6.73306L124.289 5.19348V24.1083Z" fill="#00A69B"/>
<path d="M124.289 5.19348L122.755 6.73306H119.764L118.228 5.19348H124.289Z" fill="#FF4E70"/>
<path d="M118.228 5.19348L119.764 6.73306V10.2364L118.228 8.69681V5.19348Z" fill="#FFAD8D"/>
<path d="M118.227 8.69629L119.764 10.2359H114.478L116.015 8.69629H118.227Z" fill="#FF4E70"/>
<path d="M116.015 8.69666L114.478 10.2362V0.451172L116.015 1.99299V8.69666Z" fill="#00A69B"/>
<path d="M135.801 1.99268V8.69635H133.511V5.19303H127.478V24.1078H124.289V5.19303H118.227V8.69635H116.015V1.99268H135.801Z" fill="url(#paint5_linear_132:862)"/>
<defs>
<linearGradient id="paint0_linear_132:862" x1="10.0111" y1="24.4534" x2="10.0111" y2="1.99268" gradientUnits="userSpaceOnUse">
<stop stop-color="#FFD871"/>
<stop offset="0.09" stop-color="#F3DA78"/>
<stop offset="0.25" stop-color="#D3DF8A"/>
<stop offset="0.46" stop-color="#9EE7A7"/>
<stop offset="0.72" stop-color="#56F2CF"/>
<stop offset="1" stop-color="#00FFFF"/>
</linearGradient>
<linearGradient id="paint1_linear_132:862" x1="34.4145" y1="24.099" x2="34.4145" y2="1.99268" gradientUnits="userSpaceOnUse">
<stop stop-color="#FFD871"/>
<stop offset="0.09" stop-color="#F3DA78"/>
<stop offset="0.25" stop-color="#D3DF8A"/>
<stop offset="0.46" stop-color="#9EE7A7"/>
<stop offset="0.72" stop-color="#56F2CF"/>
<stop offset="1" stop-color="#00FFFF"/>
</linearGradient>
<linearGradient id="paint2_linear_132:862" x1="59.868" y1="24.1798" x2="59.868" y2="1.99268" gradientUnits="userSpaceOnUse">
<stop stop-color="#FFD871"/>
<stop offset="0.09" stop-color="#F3DA78"/>
<stop offset="0.25" stop-color="#D3DF8A"/>
<stop offset="0.46" stop-color="#9EE7A7"/>
<stop offset="0.72" stop-color="#56F2CF"/>
<stop offset="1" stop-color="#00FFFF"/>
</linearGradient>
<linearGradient id="paint3_linear_132:862" x1="83.3108" y1="24.0114" x2="83.3108" y2="1.99268" gradientUnits="userSpaceOnUse">
<stop stop-color="#FFD871"/>
<stop offset="0.09" stop-color="#F3DA78"/>
<stop offset="0.25" stop-color="#D3DF8A"/>
<stop offset="0.46" stop-color="#9EE7A7"/>
<stop offset="0.72" stop-color="#56F2CF"/>
<stop offset="1" stop-color="#00FFFF"/>
</linearGradient>
<linearGradient id="paint4_linear_132:862" x1="103.553" y1="24.4555" x2="103.553" y2="1.53931" gradientUnits="userSpaceOnUse">
<stop stop-color="#FFD871"/>
<stop offset="0.09" stop-color="#F3DA78"/>
<stop offset="0.25" stop-color="#D3DF8A"/>
<stop offset="0.46" stop-color="#9EE7A7"/>
<stop offset="0.72" stop-color="#56F2CF"/>
<stop offset="1" stop-color="#00FFFF"/>
</linearGradient>
<linearGradient id="paint5_linear_132:862" x1="125.907" y1="24.1012" x2="125.907" y2="1.99268" gradientUnits="userSpaceOnUse">
<stop stop-color="#FFD871"/>
<stop offset="0.09" stop-color="#F3DA78"/>
<stop offset="0.25" stop-color="#D3DF8A"/>
<stop offset="0.46" stop-color="#9EE7A7"/>
<stop offset="0.72" stop-color="#56F2CF"/>
<stop offset="1" stop-color="#00FFFF"/>
</linearGradient>
</defs>
</svg>
