<svg width="22" height="22" viewBox="0 0 22 22" fill="none" xmlns="http://www.w3.org/2000/svg">
<g clip-path="url(#clip0_129:90)">
<path d="M21.5087 4.47643H15.8859C15.6675 1.96526 13.5385 0 10.9727 0C8.40695 0 6.33251 1.96526 6.05955 4.47643H0.545906C0.272953 4.47643 0 4.69479 0 5.02233V8.18859V20.7444C0 21.0174 0.218362 21.2903 0.545906 21.2903H21.5087C21.7816 21.2903 22.0546 21.072 22.0546 20.7444V8.18859V4.96774C22 4.69479 21.7816 4.47643 21.5087 4.47643ZM11.0273 1.03722C12.9926 1.03722 14.6303 2.51117 14.8486 4.42184H7.20596C7.42432 2.56576 9.06204 1.03722 11.0273 1.03722ZM20.9628 8.18859C20.9628 9.93548 19.5434 11.3548 17.7965 11.3548H14.8486C14.5757 11.3548 14.3027 11.5732 14.3027 11.9007C14.3027 12.2283 14.5211 12.4466 14.8486 12.4466H17.7965C19.0521 12.4466 20.1985 11.9007 20.9628 11.0273V20.1985H1.03722V11.0273C1.80149 11.9007 2.94789 12.4466 4.20347 12.4466H7.15136C7.42432 12.4466 7.69727 12.2283 7.69727 11.9007C7.69727 11.5732 7.47891 11.3548 7.15136 11.3548H4.25806C2.51117 11.3548 1.09181 9.93548 1.09181 8.18859V5.51365H6.66005H15.4491H21.0174V8.18859H20.9628Z" fill="white"/>
<path d="M12.6104 9.77148H9.38953C9.11658 9.77148 8.84363 9.98985 8.84363 10.3174V13.5382C8.84363 13.8112 9.06199 14.0841 9.38953 14.0841H12.6104C12.8833 14.0841 13.1563 13.8658 13.1563 13.5382V10.3174C13.1563 9.98985 12.9379 9.77148 12.6104 9.77148ZM12.1191 12.9923H9.93544V10.8087H12.1191V12.9923Z" fill="white"/>
</g>
<defs>
<clipPath id="clip0_129:90">
<rect width="22" height="21.2903" fill="white"/>
</clipPath>
</defs>
</svg>
