<svg width="328" height="112" viewBox="0 0 328 112" fill="none" xmlns="http://www.w3.org/2000/svg">
<path d="M0 0H328V112H0V0Z" fill="#080804"/>
<g clip-path="url(#clip0_129:386)">
<path d="M79.035 40.394C76.2821 39.0152 72.4703 37.9545 68.5792 37.4242L67.6262 40.9774C71.0674 41.4282 74.2174 42.3032 76.388 43.2047V54.3681C76.388 63.1715 69.9027 67.3081 63.0204 70.6756C62.041 70.1984 61.0351 69.6945 60.0822 69.1642L59.1028 72.8234C60.241 73.4068 61.2998 73.9372 62.2263 74.3879L63.0204 74.7591L63.8145 74.3879C69.4792 71.6567 80.0408 66.5656 80.0408 54.3681V40.8978L79.035 40.394Z" fill="#1ED760"/>
<path d="M69.3469 55.5614C70.6969 54.5803 71.4645 53.0424 71.4381 51.3718C71.3852 48.6141 69.0557 46.3867 66.2234 46.3867H66.1704L65.244 49.8869H65.9587C66.8322 49.8869 67.5469 50.6028 67.5469 51.4778C67.5469 52.3529 66.8322 53.0688 65.9587 53.0688H64.3969L63.4705 56.5425H65.7469L68.2881 61.2624H72.4704L69.3469 55.5614Z" fill="#1ED760"/>
<path d="M59.3146 56.5425H61.4852L62.4117 53.0423H59.3146V49.8869H63.2852L64.2117 46.3867H57.1176C56.1912 46.3867 55.45 47.1292 55.45 48.0573V59.5653C55.45 60.4934 56.1912 61.2359 57.1176 61.2359H59.3146V56.5425Z" fill="#11915A"/>
<path d="M58.3617 68.1567C53.4646 65.1338 49.6529 61.1033 49.6529 54.3682V43.2313C52.7499 41.932 57.8852 40.6858 63.0205 40.6858C63.9204 40.6858 64.8205 40.7123 65.6939 40.7918L66.6469 37.1856C65.4293 37.0795 64.2116 37 63.0205 37C57.5146 37 51.0823 38.3523 47.0059 40.3941L46 40.8979V54.3682C46 63.5693 52.0088 68.7135 57.3822 71.8689L58.3617 68.1567Z" fill="#11915A"/>
<path d="M250.28 46.0645L245.349 57.9678L240.416 46.0645C240.097 45.3006 239.352 44.8032 238.518 44.8032H235.201L242.652 61.9474C243.078 62.9246 244.035 63.5641 245.1 63.5641H245.597C246.661 63.5641 247.619 62.9246 248.045 61.9474L255.496 44.8032H252.178C251.345 44.7854 250.599 45.2828 250.28 46.0645Z" fill="white"/>
<path d="M153.169 44.6614H152.673C151.609 44.6614 150.65 45.3009 150.225 46.2781L142.774 63.4223H146.091C146.925 63.4223 147.67 62.9249 147.99 62.1609L152.921 50.2577L157.853 62.1609C158.173 62.9249 158.917 63.4223 159.751 63.4223H163.069L155.618 46.2781C155.21 45.2832 154.234 44.6614 153.169 44.6614Z" fill="white"/>
<path d="M125.708 55.9428H133.69C134.063 55.9428 134.382 55.6408 134.382 55.2499V52.7982C134.382 52.4251 134.081 52.1053 133.69 52.1053H125.708V48.5876H135.554V46.8288C135.554 45.6918 134.631 44.7679 133.496 44.7679H123.526C122.39 44.7679 121.468 45.6918 121.468 46.8288V61.3437C121.468 62.4807 122.39 63.4045 123.526 63.4045H133.638C134.773 63.4045 135.696 62.4807 135.696 61.3437V59.5848H125.725V55.9428H125.708Z" fill="white"/>
<path d="M218.507 55.9428H226.49C226.863 55.9428 227.183 55.6408 227.183 55.2499V52.7982C227.183 52.4251 226.881 52.1053 226.49 52.1053H218.507V48.5876H228.353V46.8288C228.353 45.6918 227.431 44.7679 226.295 44.7679H216.326C215.19 44.7679 214.268 45.6918 214.268 46.8288V61.3437C214.268 62.4807 215.19 63.4045 216.326 63.4045H226.437C227.573 63.4045 228.495 62.4807 228.495 61.3437V59.5848H218.525V55.9428H218.507Z" fill="white"/>
<path d="M174.564 44.7859H172.347C171.211 44.7859 170.289 45.7097 170.289 46.8467V61.3616C170.289 62.4986 171.211 63.4224 172.347 63.4224H181.678C182.814 63.4224 183.736 62.4986 183.736 61.3616V59.5139H174.583V44.7859H174.564Z" fill="white"/>
<path d="M203.96 44.7859H193.849C192.713 44.7859 191.791 45.7097 191.791 46.8467V61.3616C191.791 62.4986 192.713 63.4224 193.849 63.4224H196.066V56.5647H203.463C203.836 56.5647 204.155 56.2627 204.155 55.8719V53.3491C204.155 52.976 203.854 52.6562 203.463 52.6562H196.066V48.6766H206.018V46.8289C206.018 45.7097 205.095 44.7859 203.96 44.7859Z" fill="white"/>
<path d="M112.793 51.0218V50.9684C112.793 47.0955 110.167 44.7859 105.75 44.7859H99.2923C98.1569 44.7859 97.2344 45.7097 97.2344 46.8467V61.3616C97.2344 62.4986 98.1569 63.4224 99.2923 63.4224H101.492V48.6766H105.395C107.364 48.6766 108.464 49.5649 108.464 51.1994V51.2527C108.464 52.7984 107.311 53.74 105.484 53.74H104.331C103.958 53.74 103.639 54.042 103.639 54.4328V56.8668C103.639 57.2398 103.94 57.5597 104.331 57.5597H104.543C105.359 57.5597 106.3 57.7551 106.992 59.0698L109.28 63.4402H113.857L109.937 56.316C111.533 55.3567 112.793 53.7578 112.793 51.0218Z" fill="white"/>
<path d="M274.762 56.2985C276.358 55.3746 277.601 53.7757 277.601 51.0397V50.9864C277.601 47.1134 274.975 44.8038 270.558 44.8038H264.1C262.965 44.8038 262.042 45.7277 262.042 46.8647V61.3796C262.042 62.5166 262.965 63.4404 264.1 63.4404H266.318V48.6946H270.22C272.19 48.6946 273.289 49.5829 273.289 51.2174V51.2707C273.289 52.8163 272.136 53.7579 270.309 53.7579H269.156C268.783 53.7579 268.464 54.06 268.464 54.4508V56.8848C268.464 57.2579 268.766 57.5776 269.156 57.5776H269.369C270.185 57.5776 271.125 57.773 271.817 59.0878L274.106 63.4582H278.683L274.762 56.2985Z" fill="white"/>
<path d="M282.178 45.0167C282.426 45.2654 282.55 45.5674 282.55 45.9405C282.55 46.3136 282.426 46.6157 282.178 46.8466C281.929 47.0953 281.628 47.2019 281.273 47.2019C280.918 47.2019 280.616 47.0776 280.368 46.8466C280.12 46.5979 279.995 46.2959 279.995 45.9405C279.995 45.5674 280.12 45.2654 280.368 45.0167C280.616 44.768 280.918 44.6614 281.273 44.6614C281.628 44.6614 281.929 44.7857 282.178 45.0167ZM281.982 46.6689C282.178 46.4735 282.266 46.2425 282.266 45.9583C282.266 45.674 282.178 45.4253 281.982 45.2299C281.787 45.0345 281.557 44.9279 281.273 44.9279C280.989 44.9279 280.758 45.0345 280.563 45.2299C280.368 45.4253 280.279 45.674 280.279 45.9583C280.279 46.2425 280.386 46.4913 280.581 46.6689C280.776 46.8644 281.006 46.9532 281.29 46.9532C281.557 46.9532 281.787 46.8466 281.982 46.6689ZM281.557 46.1004L281.876 46.4913H281.539L281.238 46.136H281.077V46.4913H280.776V45.3365H281.344C281.486 45.3365 281.61 45.372 281.681 45.4431C281.769 45.5141 281.805 45.603 281.805 45.7273C281.823 45.905 281.734 46.0294 281.557 46.1004ZM281.344 45.8694C281.468 45.8694 281.539 45.8162 281.539 45.7096C281.539 45.603 281.468 45.5674 281.344 45.5674H281.077V45.8694H281.344Z" fill="white"/>
</g>
<path d="M0 0V-1H-1V0H0ZM328 0H329V-1H328V0ZM328 112V113H329V112H328ZM0 112H-1V113H0V112ZM0 1H328V-1H0V1ZM327 0V112H329V0H327ZM328 111H0V113H328V111ZM1 112V0H-1V112H1Z" fill="#CECECD" fill-opacity="0.1"/>
<defs>
<clipPath id="clip0_129:386">
<rect width="236.55" height="38" fill="white" transform="translate(46 37)"/>
</clipPath>
</defs>
</svg>
