<svg width="28" height="27" viewBox="0 0 28 27" fill="none" xmlns="http://www.w3.org/2000/svg">
<g clip-path="url(#clip0_129:284)">
<path d="M14 5.50711C15.3934 5.50711 16.455 4.37915 16.455 3.05213V2.45498C16.455 1.06161 15.327 0 14 0C12.6067 0 11.545 1.12796 11.545 2.45498V2.98578C11.545 4.37915 12.673 5.50711 14 5.50711ZM12.8057 2.45498C12.8057 1.79147 13.3365 1.26066 14 1.26066C14.6635 1.26066 15.1943 1.79147 15.1943 2.45498V2.98578C15.1943 3.64929 14.6635 4.18009 14 4.18009C13.3365 4.18009 12.8057 3.64929 12.8057 2.98578V2.45498Z" fill="white"/>
<path d="M9.48818 11.4786H18.5119C18.8436 11.4786 19.1754 11.2132 19.1754 10.8151V9.48805C19.1754 7.36482 17.4503 5.70605 15.3934 5.70605H12.7394C10.6161 5.70605 8.95738 7.43117 8.95738 9.48805V10.8151C8.89103 11.2132 9.15643 11.4786 9.48818 11.4786ZM10.1517 9.48805C10.1517 8.09468 11.2797 6.96672 12.673 6.96672H15.327C16.7204 6.96672 17.8484 8.09468 17.8484 9.48805V10.1516H10.1517V9.48805Z" fill="white"/>
<path d="M5.17541 20.0379C6.56878 20.0379 7.63039 18.91 7.63039 17.5829V17.0521C7.63039 15.6588 6.50243 14.5972 5.17541 14.5972C3.78205 14.5972 2.72044 15.7251 2.72044 17.0521V17.5829C2.65409 18.91 3.78205 20.0379 5.17541 20.0379ZM3.9811 16.9858C3.9811 16.3223 4.51191 15.7915 5.17541 15.7915C5.83892 15.7915 6.36973 16.3223 6.36973 16.9858V17.5166C6.36973 18.1801 5.83892 18.7109 5.17541 18.7109C4.51191 18.7109 3.9811 18.1801 3.9811 17.5166V16.9858Z" fill="white"/>
<path d="M6.50242 20.2368H3.8484C1.72517 20.2368 0.0664062 21.9619 0.0664062 24.0188V25.3458C0.0664062 25.6776 0.331809 26.0093 0.729913 26.0093H9.75361C10.0854 26.0093 10.4171 25.7439 10.4171 25.3458V24.0188C10.2844 21.9619 8.5593 20.2368 6.50242 20.2368ZM9.02375 24.7487H1.26072V24.0852C1.26072 22.6918 2.38868 21.5638 3.78205 21.5638H6.43607C7.82944 21.5638 8.9574 22.6918 8.9574 24.0852V24.7487H9.02375Z" fill="white"/>
<path d="M22.891 20.0379C24.2844 20.0379 25.346 18.91 25.346 17.5829V17.0521C25.346 15.6588 24.218 14.5972 22.891 14.5972C21.4976 14.5972 20.436 15.7251 20.436 17.0521V17.5829C20.436 18.91 21.4976 20.0379 22.891 20.0379ZM21.6967 16.9858C21.6967 16.3223 22.2275 15.7915 22.891 15.7915C23.5545 15.7915 24.0853 16.3223 24.0853 16.9858V17.5166C24.0853 18.1801 23.5545 18.7109 22.891 18.7109C22.2275 18.7109 21.6967 18.1801 21.6967 17.5166V16.9858Z" fill="white"/>
<path d="M24.2181 20.2368H21.5641C19.4409 20.2368 17.7821 21.9619 17.7821 24.0188V25.3458C17.7821 25.6776 18.0475 26.0093 18.4456 26.0093H27.4693C27.8011 26.0093 28.1328 25.7439 28.1328 25.3458V24.0188C28.0001 21.9619 26.3413 20.2368 24.2181 20.2368ZM26.7395 24.7487H19.0428V24.0852C19.0428 22.6918 20.1707 21.5638 21.5641 21.5638H24.2181C25.6115 21.5638 26.7395 22.6918 26.7395 24.0852V24.7487Z" fill="white"/>
<path d="M14.6636 16.2559V13.4692C14.6636 13.0711 14.3982 12.8057 14.0001 12.8057C13.602 12.8057 13.3366 13.0711 13.3366 13.4692V16.2559L10.3508 18.9763C10.0854 19.2417 10.0854 19.6398 10.2845 19.9052C10.5499 20.1706 10.948 20.1706 11.2134 19.9715L13.9338 17.4502L16.5214 19.9715C16.6541 20.1042 16.7868 20.1706 16.9859 20.1706C17.1849 20.1706 17.3176 20.1042 17.4503 19.9715C17.7157 19.7061 17.7157 19.308 17.4503 19.0426L14.6636 16.2559Z" fill="white"/>
</g>
<defs>
<clipPath id="clip0_129:284">
<rect width="28" height="26.0095" fill="white"/>
</clipPath>
</defs>
</svg>
