<svg width="328" height="112" viewBox="0 0 328 112" fill="none" xmlns="http://www.w3.org/2000/svg">
<path d="M0 0H328V112H0V0Z" fill="#081028"/>
<path d="M96.5366 44.993L95 43.4512H101.654L100.118 44.993H96.5366Z" fill="#FFFF8B"/>
<path d="M109.908 44.993L108.371 43.4512H115.026L113.489 44.993H109.908Z" fill="#FFFF8B"/>
<path d="M109.944 58.654C109.944 58.5732 109.944 58.4879 109.944 58.4004V58.2836C109.944 58.1557 109.93 58.0255 109.919 57.8864V44.993L108.382 43.4512V57.8774V58.3263C108.382 59.0848 108.407 59.8973 108.188 60.6289L108.174 60.667C108.159 60.7187 108.143 60.7681 108.125 60.8174C107.919 61.4083 107.546 61.9263 107.052 62.3076L107.946 63.5577C108.695 62.9912 109.259 62.2149 109.568 61.3269C109.595 61.2573 109.617 61.1922 109.642 61.1249C109.642 61.1091 109.642 61.0913 109.66 61.0733C109.682 61.0082 109.704 60.9409 109.724 60.8735C109.799 60.6319 109.856 60.3851 109.894 60.1351C109.894 60.097 109.894 60.1217 109.894 60.1351C109.954 59.6438 109.971 59.1482 109.944 58.654Z" fill="#00A69B"/>
<path d="M113.489 44.993V56.854C113.489 61.2798 113.086 62.9136 111.829 64.5273C111.28 65.1871 110.604 65.7285 109.841 66.1185C109.758 66.1633 109.668 66.2014 109.583 66.2441L110.527 67.6221C110.626 67.566 110.729 67.5121 110.825 67.4538C111.669 66.927 112.417 66.259 113.037 65.4788C114.578 63.4814 115.023 61.5513 115.025 56.881V43.4512L113.489 44.993Z" fill="#FFAD8D"/>
<path d="M113.488 44.9927V56.8874C113.488 61.3154 113.086 62.9469 111.829 64.5606C110.341 66.43 107.355 67.2986 105.011 67.4601C101.757 67.4601 99.2493 66.2303 97.8357 64.0668C97.281 63.2297 96.979 61.7305 96.6681 60.6825C96.5853 60.0855 96.5988 58.7501 96.5361 56.8874V44.9927H100.115V57.8951C100.115 59.8857 100.142 60.5881 100.522 61.5891C100.901 62.4666 101.528 63.2137 102.326 63.7381C103.123 64.2625 104.056 64.5414 105.009 64.5403C106.009 64.5513 106.987 64.2461 107.804 63.668C108.622 63.09 109.237 62.2685 109.563 61.3198C109.874 60.4804 110.046 59.861 109.905 57.8951V45.0017L113.488 44.9927Z" fill="url(#paint0_linear_129:861)"/>
<path d="M97.8451 64.0335C97.2904 63.1941 96.9884 61.6972 96.6775 60.6491C96.5947 60.0521 96.6081 58.7168 96.5455 56.854V44.993L95.0089 43.4512V56.881C94.9819 58.2098 95.0312 59.5392 95.1565 60.8623C95.3298 62.2882 95.809 63.6595 96.5612 64.8818C96.9486 65.4715 97.4085 66.0099 97.9301 66.4842L99.0171 65.3935C98.5683 64.9941 98.1742 64.5367 97.8451 64.0335Z" fill="#00A69B"/>
<path d="M110.527 67.6221L109.583 66.2441C108.147 66.9226 106.596 67.3237 105.011 67.4267C102.52 67.4267 100.469 66.6996 99.0079 65.3934L97.9209 66.4842C99.6834 68.0979 102.13 68.9687 105.011 68.9687C107.123 68.9687 108.982 68.5063 110.527 67.6221Z" fill="#FF4E70"/>
<path d="M101.956 61.0195C101.683 60.3171 101.654 59.7649 101.654 57.8775V43.4423L100.117 44.9841V57.8954C100.117 59.8861 100.144 60.5886 100.524 61.5896C100.772 62.1609 101.125 62.6796 101.567 63.1179L102.672 62.0564C102.366 61.7628 102.122 61.41 101.956 61.0195Z" fill="#FFAD8D"/>
<path d="M107.935 63.5624L107.04 62.3124C106.461 62.7531 105.754 62.9898 105.027 62.9857C104.155 62.9842 103.317 62.6458 102.687 62.0408L101.583 63.1023C102.499 64.0134 103.737 64.5249 105.027 64.5252C106.075 64.5301 107.096 64.1921 107.935 63.5624Z" fill="#FFFF8B"/>
<path d="M135.311 44.993L133.774 43.4512H140.035L138.498 44.993H135.311Z" fill="#FFFF8B"/>
<path d="M138.498 44.993L140.034 43.4512V68.6477L138.498 67.1059V44.993Z" fill="#FFAD8D"/>
<path d="M138.498 67.1057L140.035 68.6475H133.774L135.311 67.1057H138.498Z" fill="#FF4E70"/>
<path d="M135.311 67.1057L133.774 68.6476V58.8109L135.311 58.1646V67.1057Z" fill="#00A69B"/>
<path d="M135.31 58.1641L133.774 58.8104L125.019 50.1857L123.482 46.5118L135.31 58.1641Z" fill="#FF4E70"/>
<path d="M123.482 46.5118L125.019 50.1857V68.6472L123.482 67.1054V46.5118Z" fill="#FFAD8D"/>
<path d="M123.483 67.1057L125.02 68.6475H118.797L120.333 67.1057H123.483Z" fill="#FF4E70"/>
<path d="M120.333 67.1059L118.797 68.6477V43.4512L120.333 44.993V67.1059Z" fill="#00A69B"/>
<path d="M120.333 44.993L118.797 43.4512H126.317L125.711 44.993H120.333Z" fill="#FFFF8B"/>
<path d="M125.71 44.993L126.317 43.4512L133.774 50.4601L135.311 54.015L125.71 44.993Z" fill="#FFFF8B"/>
<path d="M135.311 54.015L133.774 50.4601V43.4512L135.311 44.993V54.015Z" fill="#00A69B"/>
<path d="M138.498 44.9927V67.1056H135.311V58.1644L123.483 46.5121V67.1056H120.333V44.9927H125.711L135.311 54.0147V44.9927H138.498Z" fill="url(#paint1_linear_129:861)"/>
<path d="M150.071 52.668L154.801 61.809L150.071 52.668Z" fill="#FFAD8D"/>
<path d="M154.802 61.8089L159.669 52.641L154.802 61.8089Z" fill="#00A69B"/>
<path d="M164.395 54.2349L165.931 54.6433L157.939 68.7306L157.049 67.1865L164.395 54.2349Z" fill="#FFAD8D"/>
<path d="M157.05 67.1866L157.94 68.7306L151.643 68.6991L152.547 67.1619L157.05 67.1866Z" fill="#FF4E70"/>
<path d="M152.547 67.1616L151.643 68.6989L143.808 54.6429L145.345 54.2412L152.547 67.1616Z" fill="#00A69B"/>
<path d="M145.345 54.2417L143.808 54.6434V43.4512L145.345 44.993V54.2417Z" fill="#00A69B"/>
<path d="M145.345 44.993L143.808 43.4512H150.071L148.534 44.993H145.345Z" fill="#FFFF8B"/>
<path d="M148.534 53.045L150.071 52.668L154.801 61.809L154.783 65.1192L148.534 53.045Z" fill="#FFAD8D"/>
<path d="M154.783 65.1192L154.801 61.8089L159.668 52.641L161.203 53.0248L154.783 65.1192Z" fill="#00A69B"/>
<path d="M161.203 53.0253L159.668 52.6415V43.4512L161.203 44.993V53.0253Z" fill="#00A69B"/>
<path d="M161.203 44.993L159.668 43.4512H165.931L164.394 44.993H161.203Z" fill="#FFFF8B"/>
<path d="M148.534 44.993L150.071 43.4512V52.6684L148.534 53.0455V44.993Z" fill="#FFAD8D"/>
<path d="M164.395 44.993L165.931 43.4512V54.6434L164.395 54.2349V44.993Z" fill="#FFAD8D"/>
<path d="M164.394 44.9927V54.2346L157.049 67.1864L152.546 67.1617L145.344 54.2414V44.9927H148.534V53.0452L154.783 65.1194L161.203 53.025V44.9927H164.394Z" fill="url(#paint2_linear_129:861)"/>
<path d="M175.562 47.6682L177.097 49.2078V52.7403L175.562 54.2821V47.6682Z" fill="#FFAD8D"/>
<path d="M175.562 54.2823L177.097 52.7405H187.366L185.829 54.2823H175.562Z" fill="#FFFF8B"/>
<path d="M185.83 54.2823L187.366 52.7405V58.3736L185.83 56.834V54.2823Z" fill="#FFAD8D"/>
<path d="M185.829 56.8336L187.366 58.3731H177.097L175.562 56.8336H185.829Z" fill="#FF4E70"/>
<path d="M175.562 56.8336L177.097 58.3731V62.8416L175.562 64.3834V56.8336Z" fill="#FFAD8D"/>
<path d="M175.562 64.3835L177.097 62.8417H186.303L184.766 64.3835H175.562Z" fill="#FFFF8B"/>
<path d="M184.768 64.3835L186.304 62.8417V68.56L184.768 67.0183V64.3835Z" fill="#FFAD8D"/>
<path d="M172.389 67.0181L170.852 68.5599V58.3731L172.389 56.8336V67.0181Z" fill="#00A69B"/>
<path d="M172.389 56.8336L170.852 58.3731H169.258L170.794 56.8336H172.389Z" fill="#FF4E70"/>
<path d="M170.794 56.8334L169.258 58.3731V52.6569L170.794 54.1986V56.8334Z" fill="#00A69B"/>
<path d="M170.794 54.1986L169.258 52.6569H170.852L172.389 54.1986H170.794Z" fill="#FFFF8B"/>
<path d="M172.389 54.1991L170.852 52.6572V43.4512L172.389 44.993V54.1991Z" fill="#00A69B"/>
<path d="M172.389 44.993L170.852 43.4512H185.561L184.024 44.993H172.389Z" fill="#FFFF8B"/>
<path d="M184.767 67.0184L186.304 68.5603H170.852L172.389 67.0184H184.767Z" fill="#FF4E70"/>
<path d="M184.025 44.993L185.562 43.4512V49.2078L184.025 47.6682V44.993Z" fill="#FFAD8D"/>
<path d="M184.024 47.6682L185.561 49.2078H177.097L175.562 47.6682H184.024Z" fill="#FF4E70"/>
<path d="M184.024 44.9927V47.6679H175.563V54.2817H185.829V56.8335H175.563V64.3833H184.767V67.018H172.389V56.8335H170.794V54.1987H172.389V44.9927H184.024Z" fill="url(#paint3_linear_129:861)"/>
<path d="M203.332 47.973L203.273 47.7126L203.316 47.9618" fill="#6B643F"/>
<path d="M207.047 60.7607C207.019 65.5343 203.245 68.9972 198.076 69.0039C203.256 69.0039 207.023 65.5343 207.047 60.7607Z" fill="#6B643F"/>
<path d="M200.205 60.961C200.205 59.895 199.59 59.39 198.628 58.6719C199.59 59.3855 200.212 59.895 200.205 60.961Z" fill="#6B643F"/>
<path d="M204.427 45.6073L206.427 45.163L203.77 50.0039L203.273 47.7102L204.427 45.6073Z" fill="#FFAD8D"/>
<path d="M203.273 47.7126L203.332 47.973L203.289 47.7239" fill="#6B643F"/>
<path d="M191.593 65.4494L189.572 65.7928L192.873 60.4672L193.262 62.7585L191.593 65.4494Z" fill="#00A69B"/>
<path d="M203.273 47.713L203.77 50.0044C202.723 49.2212 201.495 48.7813 200.607 48.7746C200.209 48.7806 199.82 48.9022 199.489 49.1247L198.594 47.8791C199.185 47.466 199.887 47.2415 200.607 47.235C201.862 47.2485 203.404 47.8095 203.269 47.713" fill="#FF4E70"/>
<path d="M198.593 47.8791L199.487 49.1246C199.276 49.2517 199.099 49.4285 198.972 49.6397C198.845 49.8508 198.77 50.09 198.756 50.3365C198.756 51.3375 199.651 52.1903 200.982 53.0297C205.171 55.6487 207.045 57.5676 207.049 60.6894C207.074 62.0165 206.765 63.3284 206.152 64.5048C205.539 65.6812 204.642 66.6844 203.543 67.4222L202.648 66.1655C203.547 65.5706 204.281 64.7576 204.783 63.8017C205.285 62.846 205.537 61.7785 205.517 60.6984C205.529 58.3621 204.068 56.8001 200.167 54.3403C198.602 53.3573 197.26 52.1611 197.224 50.341C197.238 49.8489 197.37 49.3675 197.609 48.9376C197.848 48.5078 198.187 48.1423 198.597 47.8723" fill="#FFAD8D"/>
<path d="M202.643 66.1629L203.538 67.4197C201.914 68.4837 200.01 69.0357 198.071 69.0041H197.924C195.016 68.9863 192.108 67.8529 189.567 65.7972L191.58 65.4537C192.813 66.4479 195.383 67.4489 197.924 67.4736H198.065C199.681 67.4989 201.268 67.047 202.63 66.1742" fill="#FF4E70"/>
<path d="M199.635 44.5438C201.556 44.5438 204.028 45.3091 204.429 45.6076L203.274 47.7127C203.408 47.8092 201.867 47.2481 200.613 47.2347C198.926 47.2347 197.257 48.5386 197.219 50.3385C197.255 52.1586 198.606 53.3549 200.163 54.3379C204.064 56.8066 205.532 58.3596 205.513 60.6959C205.513 64.5942 202.471 67.4422 198.078 67.4624C197.991 67.4624 197.964 67.4624 197.937 67.4624C195.405 67.4467 192.826 66.4458 191.594 65.4426L193.263 62.7494C193.822 63.1983 195.79 64.2328 197.613 64.2553C197.697 64.2714 197.782 64.2714 197.866 64.2553C200.897 64.0735 201.583 63.1758 201.731 61.2569C201.87 59.1989 200.774 58.3394 199.546 57.4282C197.707 56.0592 195.743 54.9595 194.542 53.4379C193.798 52.4782 193.38 51.3047 193.35 50.0894C193.334 47.1225 196.126 44.5505 199.575 44.5393L199.635 44.5438Z" fill="url(#paint4_linear_129:861)"/>
<path d="M199.574 44.5442H199.635C201.556 44.5442 204.028 45.3095 204.429 45.6079L206.427 45.1591C204.656 43.8619 201.867 43.0136 199.646 43.0001H199.574C198.493 42.9951 197.422 43.2068 196.423 43.6226C195.425 44.0384 194.519 44.65 193.759 45.4217C192.528 46.6565 191.826 48.3252 191.804 50.0718H193.354C193.373 48.7333 193.912 47.4553 194.857 46.5101C195.474 45.884 196.208 45.3876 197.018 45.05C197.828 44.7124 198.697 44.5405 199.574 44.5442Z" fill="#FFFF8B"/>
<path d="M199.545 57.4463C197.707 56.0751 195.743 54.9776 194.542 53.4538C193.798 52.4941 193.38 51.3206 193.349 50.1053V50.0851H191.813V50.1075C191.844 51.6701 192.38 53.1803 193.338 54.412C194.738 56.1806 196.832 57.3431 198.628 58.6763C199.552 59.363 200.16 59.8612 200.194 60.8464H201.733C201.71 59.0824 200.686 58.2723 199.545 57.4463Z" fill="#00A69B"/>
<path d="M200.2 60.8418C200.206 60.9451 200.206 61.0484 200.2 61.1516C200.181 61.4189 200.083 61.6745 199.918 61.8855C199.543 62.368 198.8 62.6755 197.796 62.7226H197.624C196.282 62.7226 194.611 61.8675 192.875 60.4783L193.264 62.7697C193.823 63.2186 195.792 64.2533 197.615 64.2757C197.698 64.2906 197.784 64.2906 197.867 64.2757C199.657 64.1679 200.628 63.811 201.155 63.1535C201.52 62.6866 201.672 62.074 201.732 61.2862C201.732 61.1404 201.732 61.0012 201.732 60.8665L200.2 60.8418Z" fill="#FFFF8B"/>
<path d="M211.015 44.993L209.478 43.4512H232.337L230.801 44.993H211.015Z" fill="#FFFF8B"/>
<path d="M230.801 44.993L232.339 43.4512V53.2362L230.801 51.6967V44.993Z" fill="#FFAD8D"/>
<path d="M230.801 51.6963L232.337 53.2359H226.974L228.511 51.6963H230.801Z" fill="#FF4E70"/>
<path d="M228.511 51.6968L226.974 53.2364V49.7331L228.511 48.1935V51.6968Z" fill="#00A69B"/>
<path d="M228.511 48.1935L226.974 49.7331H224.015L222.478 48.1935H228.511Z" fill="#FF4E70"/>
<path d="M222.478 48.1935L224.015 49.7331V68.6501L222.478 67.1083V48.1935Z" fill="#FFAD8D"/>
<path d="M222.478 67.1079L224.015 68.6497H217.755L219.289 67.1079H222.478Z" fill="#FF4E70"/>
<path d="M219.289 67.1083L217.755 68.6501V49.7331L219.289 48.1935V67.1083Z" fill="#00A69B"/>
<path d="M219.289 48.1935L217.755 49.7331H214.764L213.228 48.1935H219.289Z" fill="#FF4E70"/>
<path d="M213.228 48.1935L214.764 49.7331V53.2364L213.228 51.6968V48.1935Z" fill="#FFAD8D"/>
<path d="M213.227 51.6963L214.764 53.2359H209.478L211.015 51.6963H213.227Z" fill="#FF4E70"/>
<path d="M211.015 51.6967L209.478 53.2362V43.4512L211.015 44.993V51.6967Z" fill="#00A69B"/>
<path d="M230.801 44.9927V51.6964H228.511V48.193H222.478V67.1078H219.289V48.193H213.227V51.6964H211.015V44.9927H230.801Z" fill="url(#paint5_linear_129:861)"/>
<path d="M0 0V-1H-1V0H0ZM328 0H329V-1H328V0ZM328 112V113H329V112H328ZM0 112H-1V113H0V112ZM0 1H328V-1H0V1ZM327 0V112H329V0H327ZM328 111H0V113H328V111ZM1 112V0H-1V112H1Z" fill="#CECECD" fill-opacity="0.2"/>
<defs>
<linearGradient id="paint0_linear_129:861" x1="105.011" y1="67.4534" x2="105.011" y2="44.9927" gradientUnits="userSpaceOnUse">
<stop stop-color="#FFD871"/>
<stop offset="0.09" stop-color="#F3DA78"/>
<stop offset="0.25" stop-color="#D3DF8A"/>
<stop offset="0.46" stop-color="#9EE7A7"/>
<stop offset="0.72" stop-color="#56F2CF"/>
<stop offset="1" stop-color="#00FFFF"/>
</linearGradient>
<linearGradient id="paint1_linear_129:861" x1="129.415" y1="67.099" x2="129.415" y2="44.9927" gradientUnits="userSpaceOnUse">
<stop stop-color="#FFD871"/>
<stop offset="0.09" stop-color="#F3DA78"/>
<stop offset="0.25" stop-color="#D3DF8A"/>
<stop offset="0.46" stop-color="#9EE7A7"/>
<stop offset="0.72" stop-color="#56F2CF"/>
<stop offset="1" stop-color="#00FFFF"/>
</linearGradient>
<linearGradient id="paint2_linear_129:861" x1="154.868" y1="67.1798" x2="154.868" y2="44.9927" gradientUnits="userSpaceOnUse">
<stop stop-color="#FFD871"/>
<stop offset="0.09" stop-color="#F3DA78"/>
<stop offset="0.25" stop-color="#D3DF8A"/>
<stop offset="0.46" stop-color="#9EE7A7"/>
<stop offset="0.72" stop-color="#56F2CF"/>
<stop offset="1" stop-color="#00FFFF"/>
</linearGradient>
<linearGradient id="paint3_linear_129:861" x1="178.311" y1="67.0114" x2="178.311" y2="44.9927" gradientUnits="userSpaceOnUse">
<stop stop-color="#FFD871"/>
<stop offset="0.09" stop-color="#F3DA78"/>
<stop offset="0.25" stop-color="#D3DF8A"/>
<stop offset="0.46" stop-color="#9EE7A7"/>
<stop offset="0.72" stop-color="#56F2CF"/>
<stop offset="1" stop-color="#00FFFF"/>
</linearGradient>
<linearGradient id="paint4_linear_129:861" x1="198.553" y1="67.4555" x2="198.553" y2="44.5393" gradientUnits="userSpaceOnUse">
<stop stop-color="#FFD871"/>
<stop offset="0.09" stop-color="#F3DA78"/>
<stop offset="0.25" stop-color="#D3DF8A"/>
<stop offset="0.46" stop-color="#9EE7A7"/>
<stop offset="0.72" stop-color="#56F2CF"/>
<stop offset="1" stop-color="#00FFFF"/>
</linearGradient>
<linearGradient id="paint5_linear_129:861" x1="220.907" y1="67.1012" x2="220.907" y2="44.9927" gradientUnits="userSpaceOnUse">
<stop stop-color="#FFD871"/>
<stop offset="0.09" stop-color="#F3DA78"/>
<stop offset="0.25" stop-color="#D3DF8A"/>
<stop offset="0.46" stop-color="#9EE7A7"/>
<stop offset="0.72" stop-color="#56F2CF"/>
<stop offset="1" stop-color="#00FFFF"/>
</linearGradient>
</defs>
</svg>
