<svg width="28" height="20" viewBox="0 0 28 20" fill="none" xmlns="http://www.w3.org/2000/svg">
<path d="M26.8001 16.6C26.5334 18 25.4001 19.0667 24.0001 19.2667C21.8001 19.6 18.1334 20 14.0001 20C9.93342 20 6.26675 19.6 4.00008 19.2667C2.60008 19.0667 1.46675 18 1.20008 16.6C0.933416 15.0667 0.666748 12.8 0.666748 10C0.666748 7.2 0.933414 4.93333 1.20008 3.4C1.46675 2 2.60008 0.933334 4.00008 0.733334C6.20008 0.4 9.86675 0 14.0001 0C18.1334 0 21.7334 0.4 24.0001 0.733334C25.4001 0.933334 26.5334 2 26.8001 3.4C27.0668 4.93333 27.4001 7.2 27.4001 10C27.3334 12.8 27.0668 15.0667 26.8001 16.6Z" fill="#FF3D00"/>
<path d="M11.3335 14.6668V5.3335L19.3335 10.0002L11.3335 14.6668Z" fill="white"/>
</svg>
